G04 #@! TF.FileFunction,Legend,Top*
%FSLAX46Y46*%
G04 Gerber Fmt 4.6, Leading zero omitted, Abs format (unit mm)*
G04 Created by KiCad (PCBNEW 4.0.7+dfsg1-1ubuntu2) date Sat Apr 28 09:11:57 2018*
%MOMM*%
%LPD*%
G01*
G04 APERTURE LIST*
%ADD10C,0.100000*%
%ADD11C,0.300000*%
%ADD12C,0.120000*%
%ADD13C,0.150000*%
G04 APERTURE END LIST*
D10*
D11*
X144800000Y-155282143D02*
X145942857Y-155282143D01*
X147442857Y-155853571D02*
X146585714Y-155853571D01*
X147014286Y-155853571D02*
X147014286Y-154353571D01*
X146871429Y-154567857D01*
X146728571Y-154710714D01*
X146585714Y-154782143D01*
X148014285Y-154496429D02*
X148085714Y-154425000D01*
X148228571Y-154353571D01*
X148585714Y-154353571D01*
X148728571Y-154425000D01*
X148800000Y-154496429D01*
X148871428Y-154639286D01*
X148871428Y-154782143D01*
X148800000Y-154996429D01*
X147942857Y-155853571D01*
X148871428Y-155853571D01*
X142159523Y-154425000D02*
X142016666Y-154353571D01*
X141802380Y-154353571D01*
X141588095Y-154425000D01*
X141445237Y-154567857D01*
X141373809Y-154710714D01*
X141302380Y-154996429D01*
X141302380Y-155210714D01*
X141373809Y-155496429D01*
X141445237Y-155639286D01*
X141588095Y-155782143D01*
X141802380Y-155853571D01*
X141945237Y-155853571D01*
X142159523Y-155782143D01*
X142230952Y-155710714D01*
X142230952Y-155210714D01*
X141945237Y-155210714D01*
X130414286Y-155282143D02*
X131557143Y-155282143D01*
X130985714Y-155853571D02*
X130985714Y-154710714D01*
X132985715Y-154353571D02*
X132271429Y-154353571D01*
X132200000Y-155067857D01*
X132271429Y-154996429D01*
X132414286Y-154925000D01*
X132771429Y-154925000D01*
X132914286Y-154996429D01*
X132985715Y-155067857D01*
X133057143Y-155210714D01*
X133057143Y-155567857D01*
X132985715Y-155710714D01*
X132914286Y-155782143D01*
X132771429Y-155853571D01*
X132414286Y-155853571D01*
X132271429Y-155782143D01*
X132200000Y-155710714D01*
X134733334Y-155282143D02*
X135876191Y-155282143D01*
X135304762Y-155853571D02*
X135304762Y-154710714D01*
X137376191Y-155853571D02*
X136519048Y-155853571D01*
X136947620Y-155853571D02*
X136947620Y-154353571D01*
X136804763Y-154567857D01*
X136661905Y-154710714D01*
X136519048Y-154782143D01*
X137947619Y-154496429D02*
X138019048Y-154425000D01*
X138161905Y-154353571D01*
X138519048Y-154353571D01*
X138661905Y-154425000D01*
X138733334Y-154496429D01*
X138804762Y-154639286D01*
X138804762Y-154782143D01*
X138733334Y-154996429D01*
X137876191Y-155853571D01*
X138804762Y-155853571D01*
X144275000Y-94332143D02*
X145417857Y-94332143D01*
X146917857Y-94903571D02*
X146060714Y-94903571D01*
X146489286Y-94903571D02*
X146489286Y-93403571D01*
X146346429Y-93617857D01*
X146203571Y-93760714D01*
X146060714Y-93832143D01*
X147489285Y-93546429D02*
X147560714Y-93475000D01*
X147703571Y-93403571D01*
X148060714Y-93403571D01*
X148203571Y-93475000D01*
X148275000Y-93546429D01*
X148346428Y-93689286D01*
X148346428Y-93832143D01*
X148275000Y-94046429D01*
X147417857Y-94903571D01*
X148346428Y-94903571D01*
X141634523Y-93475000D02*
X141491666Y-93403571D01*
X141277380Y-93403571D01*
X141063095Y-93475000D01*
X140920237Y-93617857D01*
X140848809Y-93760714D01*
X140777380Y-94046429D01*
X140777380Y-94260714D01*
X140848809Y-94546429D01*
X140920237Y-94689286D01*
X141063095Y-94832143D01*
X141277380Y-94903571D01*
X141420237Y-94903571D01*
X141634523Y-94832143D01*
X141705952Y-94760714D01*
X141705952Y-94260714D01*
X141420237Y-94260714D01*
X134208334Y-94332143D02*
X135351191Y-94332143D01*
X134779762Y-94903571D02*
X134779762Y-93760714D01*
X136851191Y-94903571D02*
X135994048Y-94903571D01*
X136422620Y-94903571D02*
X136422620Y-93403571D01*
X136279763Y-93617857D01*
X136136905Y-93760714D01*
X135994048Y-93832143D01*
X137422619Y-93546429D02*
X137494048Y-93475000D01*
X137636905Y-93403571D01*
X137994048Y-93403571D01*
X138136905Y-93475000D01*
X138208334Y-93546429D01*
X138279762Y-93689286D01*
X138279762Y-93832143D01*
X138208334Y-94046429D01*
X137351191Y-94903571D01*
X138279762Y-94903571D01*
X129889286Y-94332143D02*
X131032143Y-94332143D01*
X130460714Y-94903571D02*
X130460714Y-93760714D01*
X132460715Y-93403571D02*
X131746429Y-93403571D01*
X131675000Y-94117857D01*
X131746429Y-94046429D01*
X131889286Y-93975000D01*
X132246429Y-93975000D01*
X132389286Y-94046429D01*
X132460715Y-94117857D01*
X132532143Y-94260714D01*
X132532143Y-94617857D01*
X132460715Y-94760714D01*
X132389286Y-94832143D01*
X132246429Y-94903571D01*
X131889286Y-94903571D01*
X131746429Y-94832143D01*
X131675000Y-94760714D01*
D12*
X129935000Y-116250000D02*
X129935000Y-115080000D01*
X129935000Y-111680000D02*
X129935000Y-112850000D01*
X134515000Y-112440000D02*
X134515000Y-112850000D01*
X134515000Y-115490000D02*
X134515000Y-115080000D01*
X133745000Y-116250000D02*
X129935000Y-116250000D01*
X133745000Y-116250000D02*
X134515000Y-115490000D01*
X133745000Y-111680000D02*
X129935000Y-111680000D01*
X133745000Y-111680000D02*
X134515000Y-112440000D01*
X134515000Y-120535000D02*
X134515000Y-121705000D01*
X134515000Y-125105000D02*
X134515000Y-123935000D01*
X129935000Y-124345000D02*
X129935000Y-123935000D01*
X129935000Y-121295000D02*
X129935000Y-121705000D01*
X130705000Y-120535000D02*
X134515000Y-120535000D01*
X130705000Y-120535000D02*
X129935000Y-121295000D01*
X130705000Y-125105000D02*
X134515000Y-125105000D01*
X130705000Y-125105000D02*
X129935000Y-124345000D01*
X134515000Y-129550000D02*
X134515000Y-130720000D01*
X134515000Y-134120000D02*
X134515000Y-132950000D01*
X129935000Y-133360000D02*
X129935000Y-132950000D01*
X129935000Y-130310000D02*
X129935000Y-130720000D01*
X130705000Y-129550000D02*
X134515000Y-129550000D01*
X130705000Y-129550000D02*
X129935000Y-130310000D01*
X130705000Y-134120000D02*
X134515000Y-134120000D01*
X130705000Y-134120000D02*
X129935000Y-133360000D01*
X137850000Y-112775000D02*
X137850000Y-114475000D01*
X137900000Y-114475000D02*
X141950000Y-114475000D01*
X137900000Y-112775000D02*
X141950000Y-112775000D01*
X137850000Y-117700000D02*
X137850000Y-119400000D01*
X137900000Y-119400000D02*
X141950000Y-119400000D01*
X137900000Y-117700000D02*
X141950000Y-117700000D01*
X137850000Y-122600000D02*
X137850000Y-124300000D01*
X137900000Y-124300000D02*
X141950000Y-124300000D01*
X137900000Y-122600000D02*
X141950000Y-122600000D01*
X149150000Y-108150000D02*
X128350000Y-108150000D01*
X128350000Y-108150000D02*
X128350000Y-103100000D01*
X128350000Y-103100000D02*
X128850000Y-103350000D01*
X128850000Y-103350000D02*
X128850000Y-97950000D01*
X128850000Y-97950000D02*
X128300000Y-98250000D01*
X128300000Y-98250000D02*
X128300000Y-96200000D01*
X128300000Y-96200000D02*
X128850000Y-96500000D01*
X128850000Y-96500000D02*
X128850000Y-95550000D01*
X128850000Y-95550000D02*
X149150000Y-95550000D01*
X149150000Y-95550000D02*
X149150000Y-108150000D01*
X150000000Y-153650000D02*
X129200000Y-153650000D01*
X129200000Y-153650000D02*
X129200000Y-148600000D01*
X129200000Y-148600000D02*
X129700000Y-148850000D01*
X129700000Y-148850000D02*
X129700000Y-143450000D01*
X129700000Y-143450000D02*
X129150000Y-143750000D01*
X129150000Y-143750000D02*
X129150000Y-141700000D01*
X129150000Y-141700000D02*
X129700000Y-142000000D01*
X129700000Y-142000000D02*
X129700000Y-141050000D01*
X129700000Y-141050000D02*
X150000000Y-141050000D01*
X150000000Y-141050000D02*
X150000000Y-153650000D01*
X151420000Y-104745000D02*
X154080000Y-104745000D01*
X151420000Y-102145000D02*
X151420000Y-104745000D01*
X154080000Y-102145000D02*
X154080000Y-104745000D01*
X151420000Y-102145000D02*
X154080000Y-102145000D01*
X151420000Y-100875000D02*
X151420000Y-99545000D01*
X151420000Y-99545000D02*
X152750000Y-99545000D01*
X151420000Y-112295000D02*
X154080000Y-112295000D01*
X151420000Y-109695000D02*
X151420000Y-112295000D01*
X154080000Y-109695000D02*
X154080000Y-112295000D01*
X151420000Y-109695000D02*
X154080000Y-109695000D01*
X151420000Y-108425000D02*
X151420000Y-107095000D01*
X151420000Y-107095000D02*
X152750000Y-107095000D01*
X156470000Y-104520000D02*
X159130000Y-104520000D01*
X156470000Y-101920000D02*
X156470000Y-104520000D01*
X159130000Y-101920000D02*
X159130000Y-104520000D01*
X156470000Y-101920000D02*
X159130000Y-101920000D01*
X156470000Y-100650000D02*
X156470000Y-99320000D01*
X156470000Y-99320000D02*
X157800000Y-99320000D01*
X156470000Y-112295000D02*
X159130000Y-112295000D01*
X156470000Y-109695000D02*
X156470000Y-112295000D01*
X159130000Y-109695000D02*
X159130000Y-112295000D01*
X156470000Y-109695000D02*
X159130000Y-109695000D01*
X156470000Y-108425000D02*
X156470000Y-107095000D01*
X156470000Y-107095000D02*
X157800000Y-107095000D01*
X146100000Y-114555000D02*
X144900000Y-114555000D01*
X144900000Y-112795000D02*
X146100000Y-112795000D01*
X146100000Y-119480000D02*
X144900000Y-119480000D01*
X144900000Y-117720000D02*
X146100000Y-117720000D01*
X146100000Y-124380000D02*
X144900000Y-124380000D01*
X144900000Y-122620000D02*
X146100000Y-122620000D01*
X144050000Y-128240000D02*
X142550000Y-128240000D01*
X142550000Y-128240000D02*
X142550000Y-130050000D01*
X142550000Y-130050000D02*
X137425000Y-130050000D01*
X144050000Y-138640000D02*
X142550000Y-138640000D01*
X142550000Y-138640000D02*
X142550000Y-136830000D01*
X142550000Y-136830000D02*
X141450000Y-136830000D01*
D10*
X238229998Y-153449999D02*
X238229998Y-125509999D01*
X238779998Y-152909999D02*
X238779998Y-126069999D01*
X247329998Y-153449999D02*
X247329998Y-125509999D01*
X246779998Y-152909999D02*
X246779998Y-141729999D01*
X246779998Y-137229999D02*
X246779998Y-126069999D01*
X246779998Y-141729999D02*
X247329998Y-141729999D01*
X246779998Y-137229999D02*
X247329998Y-137229999D01*
X238229998Y-153449999D02*
X247329998Y-153449999D01*
X238779998Y-152909999D02*
X246779998Y-152909999D01*
X238229998Y-125509999D02*
X247329998Y-125509999D01*
X238779998Y-126069999D02*
X246779998Y-126069999D01*
X238229998Y-153449999D02*
X238779998Y-152909999D01*
X238229998Y-125509999D02*
X238779998Y-126069999D01*
X247329998Y-153449999D02*
X246779998Y-152909999D01*
X247329998Y-125509999D02*
X246779998Y-126069999D01*
D12*
X237979998Y-153699999D02*
X237979998Y-125259999D01*
X237979998Y-125259999D02*
X247579998Y-125259999D01*
X247579998Y-125259999D02*
X247579998Y-153699999D01*
X247579998Y-153699999D02*
X237979998Y-153699999D01*
D10*
X115754988Y-153449999D02*
X115754988Y-125509999D01*
X116304988Y-152909999D02*
X116304988Y-126069999D01*
X124854988Y-153449999D02*
X124854988Y-125509999D01*
X124304988Y-152909999D02*
X124304988Y-141729999D01*
X124304988Y-137229999D02*
X124304988Y-126069999D01*
X124304988Y-141729999D02*
X124854988Y-141729999D01*
X124304988Y-137229999D02*
X124854988Y-137229999D01*
X115754988Y-153449999D02*
X124854988Y-153449999D01*
X116304988Y-152909999D02*
X124304988Y-152909999D01*
X115754988Y-125509999D02*
X124854988Y-125509999D01*
X116304988Y-126069999D02*
X124304988Y-126069999D01*
X115754988Y-153449999D02*
X116304988Y-152909999D01*
X115754988Y-125509999D02*
X116304988Y-126069999D01*
X124854988Y-153449999D02*
X124304988Y-152909999D01*
X124854988Y-125509999D02*
X124304988Y-126069999D01*
D12*
X115504988Y-153699999D02*
X115504988Y-125259999D01*
X115504988Y-125259999D02*
X125104988Y-125259999D01*
X125104988Y-125259999D02*
X125104988Y-153699999D01*
X125104988Y-153699999D02*
X115504988Y-153699999D01*
D10*
X237979998Y-122390001D02*
X237979998Y-94450001D01*
X238529998Y-121850001D02*
X238529998Y-95010001D01*
X247079998Y-122390001D02*
X247079998Y-94450001D01*
X246529998Y-121850001D02*
X246529998Y-110670001D01*
X246529998Y-106170001D02*
X246529998Y-95010001D01*
X246529998Y-110670001D02*
X247079998Y-110670001D01*
X246529998Y-106170001D02*
X247079998Y-106170001D01*
X237979998Y-122390001D02*
X247079998Y-122390001D01*
X238529998Y-121850001D02*
X246529998Y-121850001D01*
X237979998Y-94450001D02*
X247079998Y-94450001D01*
X238529998Y-95010001D02*
X246529998Y-95010001D01*
X237979998Y-122390001D02*
X238529998Y-121850001D01*
X237979998Y-94450001D02*
X238529998Y-95010001D01*
X247079998Y-122390001D02*
X246529998Y-121850001D01*
X247079998Y-94450001D02*
X246529998Y-95010001D01*
D12*
X237729998Y-122640001D02*
X237729998Y-94200001D01*
X237729998Y-94200001D02*
X247329998Y-94200001D01*
X247329998Y-94200001D02*
X247329998Y-122640001D01*
X247329998Y-122640001D02*
X237729998Y-122640001D01*
D10*
X115754988Y-122390001D02*
X115754988Y-94450001D01*
X116304988Y-121850001D02*
X116304988Y-95010001D01*
X124854988Y-122390001D02*
X124854988Y-94450001D01*
X124304988Y-121850001D02*
X124304988Y-110670001D01*
X124304988Y-106170001D02*
X124304988Y-95010001D01*
X124304988Y-110670001D02*
X124854988Y-110670001D01*
X124304988Y-106170001D02*
X124854988Y-106170001D01*
X115754988Y-122390001D02*
X124854988Y-122390001D01*
X116304988Y-121850001D02*
X124304988Y-121850001D01*
X115754988Y-94450001D02*
X124854988Y-94450001D01*
X116304988Y-95010001D02*
X124304988Y-95010001D01*
X115754988Y-122390001D02*
X116304988Y-121850001D01*
X115754988Y-94450001D02*
X116304988Y-95010001D01*
X124854988Y-122390001D02*
X124304988Y-121850001D01*
X124854988Y-94450001D02*
X124304988Y-95010001D01*
D12*
X115504988Y-122640001D02*
X115504988Y-94200001D01*
X115504988Y-94200001D02*
X125104988Y-94200001D01*
X125104988Y-94200001D02*
X125104988Y-122640001D01*
X125104988Y-122640001D02*
X115504988Y-122640001D01*
D10*
X225384165Y-153449999D02*
X225384165Y-125509999D01*
X225934165Y-152909999D02*
X225934165Y-126069999D01*
X234484165Y-153449999D02*
X234484165Y-125509999D01*
X233934165Y-152909999D02*
X233934165Y-141729999D01*
X233934165Y-137229999D02*
X233934165Y-126069999D01*
X233934165Y-141729999D02*
X234484165Y-141729999D01*
X233934165Y-137229999D02*
X234484165Y-137229999D01*
X225384165Y-153449999D02*
X234484165Y-153449999D01*
X225934165Y-152909999D02*
X233934165Y-152909999D01*
X225384165Y-125509999D02*
X234484165Y-125509999D01*
X225934165Y-126069999D02*
X233934165Y-126069999D01*
X225384165Y-153449999D02*
X225934165Y-152909999D01*
X225384165Y-125509999D02*
X225934165Y-126069999D01*
X234484165Y-153449999D02*
X233934165Y-152909999D01*
X234484165Y-125509999D02*
X233934165Y-126069999D01*
D12*
X225134165Y-153699999D02*
X225134165Y-125259999D01*
X225134165Y-125259999D02*
X234734165Y-125259999D01*
X234734165Y-125259999D02*
X234734165Y-153699999D01*
X234734165Y-153699999D02*
X225134165Y-153699999D01*
D10*
X102908836Y-153449999D02*
X102908836Y-125509999D01*
X103458836Y-152909999D02*
X103458836Y-126069999D01*
X112008836Y-153449999D02*
X112008836Y-125509999D01*
X111458836Y-152909999D02*
X111458836Y-141729999D01*
X111458836Y-137229999D02*
X111458836Y-126069999D01*
X111458836Y-141729999D02*
X112008836Y-141729999D01*
X111458836Y-137229999D02*
X112008836Y-137229999D01*
X102908836Y-153449999D02*
X112008836Y-153449999D01*
X103458836Y-152909999D02*
X111458836Y-152909999D01*
X102908836Y-125509999D02*
X112008836Y-125509999D01*
X103458836Y-126069999D02*
X111458836Y-126069999D01*
X102908836Y-153449999D02*
X103458836Y-152909999D01*
X102908836Y-125509999D02*
X103458836Y-126069999D01*
X112008836Y-153449999D02*
X111458836Y-152909999D01*
X112008836Y-125509999D02*
X111458836Y-126069999D01*
D12*
X102658836Y-153699999D02*
X102658836Y-125259999D01*
X102658836Y-125259999D02*
X112258836Y-125259999D01*
X112258836Y-125259999D02*
X112258836Y-153699999D01*
X112258836Y-153699999D02*
X102658836Y-153699999D01*
D10*
X225171665Y-122390001D02*
X225171665Y-94450001D01*
X225721665Y-121850001D02*
X225721665Y-95010001D01*
X234271665Y-122390001D02*
X234271665Y-94450001D01*
X233721665Y-121850001D02*
X233721665Y-110670001D01*
X233721665Y-106170001D02*
X233721665Y-95010001D01*
X233721665Y-110670001D02*
X234271665Y-110670001D01*
X233721665Y-106170001D02*
X234271665Y-106170001D01*
X225171665Y-122390001D02*
X234271665Y-122390001D01*
X225721665Y-121850001D02*
X233721665Y-121850001D01*
X225171665Y-94450001D02*
X234271665Y-94450001D01*
X225721665Y-95010001D02*
X233721665Y-95010001D01*
X225171665Y-122390001D02*
X225721665Y-121850001D01*
X225171665Y-94450001D02*
X225721665Y-95010001D01*
X234271665Y-122390001D02*
X233721665Y-121850001D01*
X234271665Y-94450001D02*
X233721665Y-95010001D01*
D12*
X224921665Y-122640001D02*
X224921665Y-94200001D01*
X224921665Y-94200001D02*
X234521665Y-94200001D01*
X234521665Y-94200001D02*
X234521665Y-122640001D01*
X234521665Y-122640001D02*
X224921665Y-122640001D01*
D10*
X102908836Y-122390001D02*
X102908836Y-94450001D01*
X103458836Y-121850001D02*
X103458836Y-95010001D01*
X112008836Y-122390001D02*
X112008836Y-94450001D01*
X111458836Y-121850001D02*
X111458836Y-110670001D01*
X111458836Y-106170001D02*
X111458836Y-95010001D01*
X111458836Y-110670001D02*
X112008836Y-110670001D01*
X111458836Y-106170001D02*
X112008836Y-106170001D01*
X102908836Y-122390001D02*
X112008836Y-122390001D01*
X103458836Y-121850001D02*
X111458836Y-121850001D01*
X102908836Y-94450001D02*
X112008836Y-94450001D01*
X103458836Y-95010001D02*
X111458836Y-95010001D01*
X102908836Y-122390001D02*
X103458836Y-121850001D01*
X102908836Y-94450001D02*
X103458836Y-95010001D01*
X112008836Y-122390001D02*
X111458836Y-121850001D01*
X112008836Y-94450001D02*
X111458836Y-95010001D01*
D12*
X102658836Y-122640001D02*
X102658836Y-94200001D01*
X102658836Y-94200001D02*
X112258836Y-94200001D01*
X112258836Y-94200001D02*
X112258836Y-122640001D01*
X112258836Y-122640001D02*
X102658836Y-122640001D01*
D10*
X212638332Y-153449999D02*
X212638332Y-125509999D01*
X213188332Y-152909999D02*
X213188332Y-126069999D01*
X221738332Y-153449999D02*
X221738332Y-125509999D01*
X221188332Y-152909999D02*
X221188332Y-141729999D01*
X221188332Y-137229999D02*
X221188332Y-126069999D01*
X221188332Y-141729999D02*
X221738332Y-141729999D01*
X221188332Y-137229999D02*
X221738332Y-137229999D01*
X212638332Y-153449999D02*
X221738332Y-153449999D01*
X213188332Y-152909999D02*
X221188332Y-152909999D01*
X212638332Y-125509999D02*
X221738332Y-125509999D01*
X213188332Y-126069999D02*
X221188332Y-126069999D01*
X212638332Y-153449999D02*
X213188332Y-152909999D01*
X212638332Y-125509999D02*
X213188332Y-126069999D01*
X221738332Y-153449999D02*
X221188332Y-152909999D01*
X221738332Y-125509999D02*
X221188332Y-126069999D01*
D12*
X212388332Y-153699999D02*
X212388332Y-125259999D01*
X212388332Y-125259999D02*
X221988332Y-125259999D01*
X221988332Y-125259999D02*
X221988332Y-153699999D01*
X221988332Y-153699999D02*
X212388332Y-153699999D01*
D10*
X90062684Y-153449999D02*
X90062684Y-125509999D01*
X90612684Y-152909999D02*
X90612684Y-126069999D01*
X99162684Y-153449999D02*
X99162684Y-125509999D01*
X98612684Y-152909999D02*
X98612684Y-141729999D01*
X98612684Y-137229999D02*
X98612684Y-126069999D01*
X98612684Y-141729999D02*
X99162684Y-141729999D01*
X98612684Y-137229999D02*
X99162684Y-137229999D01*
X90062684Y-153449999D02*
X99162684Y-153449999D01*
X90612684Y-152909999D02*
X98612684Y-152909999D01*
X90062684Y-125509999D02*
X99162684Y-125509999D01*
X90612684Y-126069999D02*
X98612684Y-126069999D01*
X90062684Y-153449999D02*
X90612684Y-152909999D01*
X90062684Y-125509999D02*
X90612684Y-126069999D01*
X99162684Y-153449999D02*
X98612684Y-152909999D01*
X99162684Y-125509999D02*
X98612684Y-126069999D01*
D12*
X89812684Y-153699999D02*
X89812684Y-125259999D01*
X89812684Y-125259999D02*
X99412684Y-125259999D01*
X99412684Y-125259999D02*
X99412684Y-153699999D01*
X99412684Y-153699999D02*
X89812684Y-153699999D01*
D10*
X212463332Y-122390001D02*
X212463332Y-94450001D01*
X213013332Y-121850001D02*
X213013332Y-95010001D01*
X221563332Y-122390001D02*
X221563332Y-94450001D01*
X221013332Y-121850001D02*
X221013332Y-110670001D01*
X221013332Y-106170001D02*
X221013332Y-95010001D01*
X221013332Y-110670001D02*
X221563332Y-110670001D01*
X221013332Y-106170001D02*
X221563332Y-106170001D01*
X212463332Y-122390001D02*
X221563332Y-122390001D01*
X213013332Y-121850001D02*
X221013332Y-121850001D01*
X212463332Y-94450001D02*
X221563332Y-94450001D01*
X213013332Y-95010001D02*
X221013332Y-95010001D01*
X212463332Y-122390001D02*
X213013332Y-121850001D01*
X212463332Y-94450001D02*
X213013332Y-95010001D01*
X221563332Y-122390001D02*
X221013332Y-121850001D01*
X221563332Y-94450001D02*
X221013332Y-95010001D01*
D12*
X212213332Y-122640001D02*
X212213332Y-94200001D01*
X212213332Y-94200001D02*
X221813332Y-94200001D01*
X221813332Y-94200001D02*
X221813332Y-122640001D01*
X221813332Y-122640001D02*
X212213332Y-122640001D01*
D10*
X90062684Y-122390001D02*
X90062684Y-94450001D01*
X90612684Y-121850001D02*
X90612684Y-95010001D01*
X99162684Y-122390001D02*
X99162684Y-94450001D01*
X98612684Y-121850001D02*
X98612684Y-110670001D01*
X98612684Y-106170001D02*
X98612684Y-95010001D01*
X98612684Y-110670001D02*
X99162684Y-110670001D01*
X98612684Y-106170001D02*
X99162684Y-106170001D01*
X90062684Y-122390001D02*
X99162684Y-122390001D01*
X90612684Y-121850001D02*
X98612684Y-121850001D01*
X90062684Y-94450001D02*
X99162684Y-94450001D01*
X90612684Y-95010001D02*
X98612684Y-95010001D01*
X90062684Y-122390001D02*
X90612684Y-121850001D01*
X90062684Y-94450001D02*
X90612684Y-95010001D01*
X99162684Y-122390001D02*
X98612684Y-121850001D01*
X99162684Y-94450001D02*
X98612684Y-95010001D01*
D12*
X89812684Y-122640001D02*
X89812684Y-94200001D01*
X89812684Y-94200001D02*
X99412684Y-94200001D01*
X99412684Y-94200001D02*
X99412684Y-122640001D01*
X99412684Y-122640001D02*
X89812684Y-122640001D01*
D10*
X199817499Y-153449999D02*
X199817499Y-125509999D01*
X200367499Y-152909999D02*
X200367499Y-126069999D01*
X208917499Y-153449999D02*
X208917499Y-125509999D01*
X208367499Y-152909999D02*
X208367499Y-141729999D01*
X208367499Y-137229999D02*
X208367499Y-126069999D01*
X208367499Y-141729999D02*
X208917499Y-141729999D01*
X208367499Y-137229999D02*
X208917499Y-137229999D01*
X199817499Y-153449999D02*
X208917499Y-153449999D01*
X200367499Y-152909999D02*
X208367499Y-152909999D01*
X199817499Y-125509999D02*
X208917499Y-125509999D01*
X200367499Y-126069999D02*
X208367499Y-126069999D01*
X199817499Y-153449999D02*
X200367499Y-152909999D01*
X199817499Y-125509999D02*
X200367499Y-126069999D01*
X208917499Y-153449999D02*
X208367499Y-152909999D01*
X208917499Y-125509999D02*
X208367499Y-126069999D01*
D12*
X199567499Y-153699999D02*
X199567499Y-125259999D01*
X199567499Y-125259999D02*
X209167499Y-125259999D01*
X209167499Y-125259999D02*
X209167499Y-153699999D01*
X209167499Y-153699999D02*
X199567499Y-153699999D01*
D10*
X77216532Y-153449999D02*
X77216532Y-125509999D01*
X77766532Y-152909999D02*
X77766532Y-126069999D01*
X86316532Y-153449999D02*
X86316532Y-125509999D01*
X85766532Y-152909999D02*
X85766532Y-141729999D01*
X85766532Y-137229999D02*
X85766532Y-126069999D01*
X85766532Y-141729999D02*
X86316532Y-141729999D01*
X85766532Y-137229999D02*
X86316532Y-137229999D01*
X77216532Y-153449999D02*
X86316532Y-153449999D01*
X77766532Y-152909999D02*
X85766532Y-152909999D01*
X77216532Y-125509999D02*
X86316532Y-125509999D01*
X77766532Y-126069999D02*
X85766532Y-126069999D01*
X77216532Y-153449999D02*
X77766532Y-152909999D01*
X77216532Y-125509999D02*
X77766532Y-126069999D01*
X86316532Y-153449999D02*
X85766532Y-152909999D01*
X86316532Y-125509999D02*
X85766532Y-126069999D01*
D12*
X76966532Y-153699999D02*
X76966532Y-125259999D01*
X76966532Y-125259999D02*
X86566532Y-125259999D01*
X86566532Y-125259999D02*
X86566532Y-153699999D01*
X86566532Y-153699999D02*
X76966532Y-153699999D01*
D10*
X199679999Y-122390001D02*
X199679999Y-94450001D01*
X200229999Y-121850001D02*
X200229999Y-95010001D01*
X208779999Y-122390001D02*
X208779999Y-94450001D01*
X208229999Y-121850001D02*
X208229999Y-110670001D01*
X208229999Y-106170001D02*
X208229999Y-95010001D01*
X208229999Y-110670001D02*
X208779999Y-110670001D01*
X208229999Y-106170001D02*
X208779999Y-106170001D01*
X199679999Y-122390001D02*
X208779999Y-122390001D01*
X200229999Y-121850001D02*
X208229999Y-121850001D01*
X199679999Y-94450001D02*
X208779999Y-94450001D01*
X200229999Y-95010001D02*
X208229999Y-95010001D01*
X199679999Y-122390001D02*
X200229999Y-121850001D01*
X199679999Y-94450001D02*
X200229999Y-95010001D01*
X208779999Y-122390001D02*
X208229999Y-121850001D01*
X208779999Y-94450001D02*
X208229999Y-95010001D01*
D12*
X199429999Y-122640001D02*
X199429999Y-94200001D01*
X199429999Y-94200001D02*
X209029999Y-94200001D01*
X209029999Y-94200001D02*
X209029999Y-122640001D01*
X209029999Y-122640001D02*
X199429999Y-122640001D01*
D10*
X77216532Y-122390001D02*
X77216532Y-94450001D01*
X77766532Y-121850001D02*
X77766532Y-95010001D01*
X86316532Y-122390001D02*
X86316532Y-94450001D01*
X85766532Y-121850001D02*
X85766532Y-110670001D01*
X85766532Y-106170001D02*
X85766532Y-95010001D01*
X85766532Y-110670001D02*
X86316532Y-110670001D01*
X85766532Y-106170001D02*
X86316532Y-106170001D01*
X77216532Y-122390001D02*
X86316532Y-122390001D01*
X77766532Y-121850001D02*
X85766532Y-121850001D01*
X77216532Y-94450001D02*
X86316532Y-94450001D01*
X77766532Y-95010001D02*
X85766532Y-95010001D01*
X77216532Y-122390001D02*
X77766532Y-121850001D01*
X77216532Y-94450001D02*
X77766532Y-95010001D01*
X86316532Y-122390001D02*
X85766532Y-121850001D01*
X86316532Y-94450001D02*
X85766532Y-95010001D01*
D12*
X76966532Y-122640001D02*
X76966532Y-94200001D01*
X76966532Y-94200001D02*
X86566532Y-94200001D01*
X86566532Y-94200001D02*
X86566532Y-122640001D01*
X86566532Y-122640001D02*
X76966532Y-122640001D01*
D10*
X186971666Y-153449999D02*
X186971666Y-125509999D01*
X187521666Y-152909999D02*
X187521666Y-126069999D01*
X196071666Y-153449999D02*
X196071666Y-125509999D01*
X195521666Y-152909999D02*
X195521666Y-141729999D01*
X195521666Y-137229999D02*
X195521666Y-126069999D01*
X195521666Y-141729999D02*
X196071666Y-141729999D01*
X195521666Y-137229999D02*
X196071666Y-137229999D01*
X186971666Y-153449999D02*
X196071666Y-153449999D01*
X187521666Y-152909999D02*
X195521666Y-152909999D01*
X186971666Y-125509999D02*
X196071666Y-125509999D01*
X187521666Y-126069999D02*
X195521666Y-126069999D01*
X186971666Y-153449999D02*
X187521666Y-152909999D01*
X186971666Y-125509999D02*
X187521666Y-126069999D01*
X196071666Y-153449999D02*
X195521666Y-152909999D01*
X196071666Y-125509999D02*
X195521666Y-126069999D01*
D12*
X186721666Y-153699999D02*
X186721666Y-125259999D01*
X186721666Y-125259999D02*
X196321666Y-125259999D01*
X196321666Y-125259999D02*
X196321666Y-153699999D01*
X196321666Y-153699999D02*
X186721666Y-153699999D01*
D10*
X64370380Y-153449999D02*
X64370380Y-125509999D01*
X64920380Y-152909999D02*
X64920380Y-126069999D01*
X73470380Y-153449999D02*
X73470380Y-125509999D01*
X72920380Y-152909999D02*
X72920380Y-141729999D01*
X72920380Y-137229999D02*
X72920380Y-126069999D01*
X72920380Y-141729999D02*
X73470380Y-141729999D01*
X72920380Y-137229999D02*
X73470380Y-137229999D01*
X64370380Y-153449999D02*
X73470380Y-153449999D01*
X64920380Y-152909999D02*
X72920380Y-152909999D01*
X64370380Y-125509999D02*
X73470380Y-125509999D01*
X64920380Y-126069999D02*
X72920380Y-126069999D01*
X64370380Y-153449999D02*
X64920380Y-152909999D01*
X64370380Y-125509999D02*
X64920380Y-126069999D01*
X73470380Y-153449999D02*
X72920380Y-152909999D01*
X73470380Y-125509999D02*
X72920380Y-126069999D01*
D12*
X64120380Y-153699999D02*
X64120380Y-125259999D01*
X64120380Y-125259999D02*
X73720380Y-125259999D01*
X73720380Y-125259999D02*
X73720380Y-153699999D01*
X73720380Y-153699999D02*
X64120380Y-153699999D01*
D10*
X186871666Y-122390001D02*
X186871666Y-94450001D01*
X187421666Y-121850001D02*
X187421666Y-95010001D01*
X195971666Y-122390001D02*
X195971666Y-94450001D01*
X195421666Y-121850001D02*
X195421666Y-110670001D01*
X195421666Y-106170001D02*
X195421666Y-95010001D01*
X195421666Y-110670001D02*
X195971666Y-110670001D01*
X195421666Y-106170001D02*
X195971666Y-106170001D01*
X186871666Y-122390001D02*
X195971666Y-122390001D01*
X187421666Y-121850001D02*
X195421666Y-121850001D01*
X186871666Y-94450001D02*
X195971666Y-94450001D01*
X187421666Y-95010001D02*
X195421666Y-95010001D01*
X186871666Y-122390001D02*
X187421666Y-121850001D01*
X186871666Y-94450001D02*
X187421666Y-95010001D01*
X195971666Y-122390001D02*
X195421666Y-121850001D01*
X195971666Y-94450001D02*
X195421666Y-95010001D01*
D12*
X186621666Y-122640001D02*
X186621666Y-94200001D01*
X186621666Y-94200001D02*
X196221666Y-94200001D01*
X196221666Y-94200001D02*
X196221666Y-122640001D01*
X196221666Y-122640001D02*
X186621666Y-122640001D01*
D10*
X64370380Y-122390001D02*
X64370380Y-94450001D01*
X64920380Y-121850001D02*
X64920380Y-95010001D01*
X73470380Y-122390001D02*
X73470380Y-94450001D01*
X72920380Y-121850001D02*
X72920380Y-110670001D01*
X72920380Y-106170001D02*
X72920380Y-95010001D01*
X72920380Y-110670001D02*
X73470380Y-110670001D01*
X72920380Y-106170001D02*
X73470380Y-106170001D01*
X64370380Y-122390001D02*
X73470380Y-122390001D01*
X64920380Y-121850001D02*
X72920380Y-121850001D01*
X64370380Y-94450001D02*
X73470380Y-94450001D01*
X64920380Y-95010001D02*
X72920380Y-95010001D01*
X64370380Y-122390001D02*
X64920380Y-121850001D01*
X64370380Y-94450001D02*
X64920380Y-95010001D01*
X73470380Y-122390001D02*
X72920380Y-121850001D01*
X73470380Y-94450001D02*
X72920380Y-95010001D01*
D12*
X64120380Y-122640001D02*
X64120380Y-94200001D01*
X64120380Y-94200001D02*
X73720380Y-94200001D01*
X73720380Y-94200001D02*
X73720380Y-122640001D01*
X73720380Y-122640001D02*
X64120380Y-122640001D01*
D10*
X174125833Y-153449999D02*
X174125833Y-125509999D01*
X174675833Y-152909999D02*
X174675833Y-126069999D01*
X183225833Y-153449999D02*
X183225833Y-125509999D01*
X182675833Y-152909999D02*
X182675833Y-141729999D01*
X182675833Y-137229999D02*
X182675833Y-126069999D01*
X182675833Y-141729999D02*
X183225833Y-141729999D01*
X182675833Y-137229999D02*
X183225833Y-137229999D01*
X174125833Y-153449999D02*
X183225833Y-153449999D01*
X174675833Y-152909999D02*
X182675833Y-152909999D01*
X174125833Y-125509999D02*
X183225833Y-125509999D01*
X174675833Y-126069999D02*
X182675833Y-126069999D01*
X174125833Y-153449999D02*
X174675833Y-152909999D01*
X174125833Y-125509999D02*
X174675833Y-126069999D01*
X183225833Y-153449999D02*
X182675833Y-152909999D01*
X183225833Y-125509999D02*
X182675833Y-126069999D01*
D12*
X173875833Y-153699999D02*
X173875833Y-125259999D01*
X173875833Y-125259999D02*
X183475833Y-125259999D01*
X183475833Y-125259999D02*
X183475833Y-153699999D01*
X183475833Y-153699999D02*
X173875833Y-153699999D01*
D10*
X51524228Y-153449999D02*
X51524228Y-125509999D01*
X52074228Y-152909999D02*
X52074228Y-126069999D01*
X60624228Y-153449999D02*
X60624228Y-125509999D01*
X60074228Y-152909999D02*
X60074228Y-141729999D01*
X60074228Y-137229999D02*
X60074228Y-126069999D01*
X60074228Y-141729999D02*
X60624228Y-141729999D01*
X60074228Y-137229999D02*
X60624228Y-137229999D01*
X51524228Y-153449999D02*
X60624228Y-153449999D01*
X52074228Y-152909999D02*
X60074228Y-152909999D01*
X51524228Y-125509999D02*
X60624228Y-125509999D01*
X52074228Y-126069999D02*
X60074228Y-126069999D01*
X51524228Y-153449999D02*
X52074228Y-152909999D01*
X51524228Y-125509999D02*
X52074228Y-126069999D01*
X60624228Y-153449999D02*
X60074228Y-152909999D01*
X60624228Y-125509999D02*
X60074228Y-126069999D01*
D12*
X51274228Y-153699999D02*
X51274228Y-125259999D01*
X51274228Y-125259999D02*
X60874228Y-125259999D01*
X60874228Y-125259999D02*
X60874228Y-153699999D01*
X60874228Y-153699999D02*
X51274228Y-153699999D01*
D10*
X174063333Y-122390001D02*
X174063333Y-94450001D01*
X174613333Y-121850001D02*
X174613333Y-95010001D01*
X183163333Y-122390001D02*
X183163333Y-94450001D01*
X182613333Y-121850001D02*
X182613333Y-110670001D01*
X182613333Y-106170001D02*
X182613333Y-95010001D01*
X182613333Y-110670001D02*
X183163333Y-110670001D01*
X182613333Y-106170001D02*
X183163333Y-106170001D01*
X174063333Y-122390001D02*
X183163333Y-122390001D01*
X174613333Y-121850001D02*
X182613333Y-121850001D01*
X174063333Y-94450001D02*
X183163333Y-94450001D01*
X174613333Y-95010001D02*
X182613333Y-95010001D01*
X174063333Y-122390001D02*
X174613333Y-121850001D01*
X174063333Y-94450001D02*
X174613333Y-95010001D01*
X183163333Y-122390001D02*
X182613333Y-121850001D01*
X183163333Y-94450001D02*
X182613333Y-95010001D01*
D12*
X173813333Y-122640001D02*
X173813333Y-94200001D01*
X173813333Y-94200001D02*
X183413333Y-94200001D01*
X183413333Y-94200001D02*
X183413333Y-122640001D01*
X183413333Y-122640001D02*
X173813333Y-122640001D01*
D10*
X51524228Y-122390001D02*
X51524228Y-94450001D01*
X52074228Y-121850001D02*
X52074228Y-95010001D01*
X60624228Y-122390001D02*
X60624228Y-94450001D01*
X60074228Y-121850001D02*
X60074228Y-110670001D01*
X60074228Y-106170001D02*
X60074228Y-95010001D01*
X60074228Y-110670001D02*
X60624228Y-110670001D01*
X60074228Y-106170001D02*
X60624228Y-106170001D01*
X51524228Y-122390001D02*
X60624228Y-122390001D01*
X52074228Y-121850001D02*
X60074228Y-121850001D01*
X51524228Y-94450001D02*
X60624228Y-94450001D01*
X52074228Y-95010001D02*
X60074228Y-95010001D01*
X51524228Y-122390001D02*
X52074228Y-121850001D01*
X51524228Y-94450001D02*
X52074228Y-95010001D01*
X60624228Y-122390001D02*
X60074228Y-121850001D01*
X60624228Y-94450001D02*
X60074228Y-95010001D01*
D12*
X51274228Y-122640001D02*
X51274228Y-94200001D01*
X51274228Y-94200001D02*
X60874228Y-94200001D01*
X60874228Y-94200001D02*
X60874228Y-122640001D01*
X60874228Y-122640001D02*
X51274228Y-122640001D01*
D10*
X161305000Y-153449999D02*
X161305000Y-125509999D01*
X161855000Y-152909999D02*
X161855000Y-126069999D01*
X170405000Y-153449999D02*
X170405000Y-125509999D01*
X169855000Y-152909999D02*
X169855000Y-141729999D01*
X169855000Y-137229999D02*
X169855000Y-126069999D01*
X169855000Y-141729999D02*
X170405000Y-141729999D01*
X169855000Y-137229999D02*
X170405000Y-137229999D01*
X161305000Y-153449999D02*
X170405000Y-153449999D01*
X161855000Y-152909999D02*
X169855000Y-152909999D01*
X161305000Y-125509999D02*
X170405000Y-125509999D01*
X161855000Y-126069999D02*
X169855000Y-126069999D01*
X161305000Y-153449999D02*
X161855000Y-152909999D01*
X161305000Y-125509999D02*
X161855000Y-126069999D01*
X170405000Y-153449999D02*
X169855000Y-152909999D01*
X170405000Y-125509999D02*
X169855000Y-126069999D01*
D12*
X161055000Y-153699999D02*
X161055000Y-125259999D01*
X161055000Y-125259999D02*
X170655000Y-125259999D01*
X170655000Y-125259999D02*
X170655000Y-153699999D01*
X170655000Y-153699999D02*
X161055000Y-153699999D01*
D10*
X38678076Y-153449999D02*
X38678076Y-125509999D01*
X39228076Y-152909999D02*
X39228076Y-126069999D01*
X47778076Y-153449999D02*
X47778076Y-125509999D01*
X47228076Y-152909999D02*
X47228076Y-141729999D01*
X47228076Y-137229999D02*
X47228076Y-126069999D01*
X47228076Y-141729999D02*
X47778076Y-141729999D01*
X47228076Y-137229999D02*
X47778076Y-137229999D01*
X38678076Y-153449999D02*
X47778076Y-153449999D01*
X39228076Y-152909999D02*
X47228076Y-152909999D01*
X38678076Y-125509999D02*
X47778076Y-125509999D01*
X39228076Y-126069999D02*
X47228076Y-126069999D01*
X38678076Y-153449999D02*
X39228076Y-152909999D01*
X38678076Y-125509999D02*
X39228076Y-126069999D01*
X47778076Y-153449999D02*
X47228076Y-152909999D01*
X47778076Y-125509999D02*
X47228076Y-126069999D01*
D12*
X38428076Y-153699999D02*
X38428076Y-125259999D01*
X38428076Y-125259999D02*
X48028076Y-125259999D01*
X48028076Y-125259999D02*
X48028076Y-153699999D01*
X48028076Y-153699999D02*
X38428076Y-153699999D01*
D10*
X161280000Y-122390001D02*
X161280000Y-94450001D01*
X161830000Y-121850001D02*
X161830000Y-95010001D01*
X170380000Y-122390001D02*
X170380000Y-94450001D01*
X169830000Y-121850001D02*
X169830000Y-110670001D01*
X169830000Y-106170001D02*
X169830000Y-95010001D01*
X169830000Y-110670001D02*
X170380000Y-110670001D01*
X169830000Y-106170001D02*
X170380000Y-106170001D01*
X161280000Y-122390001D02*
X170380000Y-122390001D01*
X161830000Y-121850001D02*
X169830000Y-121850001D01*
X161280000Y-94450001D02*
X170380000Y-94450001D01*
X161830000Y-95010001D02*
X169830000Y-95010001D01*
X161280000Y-122390001D02*
X161830000Y-121850001D01*
X161280000Y-94450001D02*
X161830000Y-95010001D01*
X170380000Y-122390001D02*
X169830000Y-121850001D01*
X170380000Y-94450001D02*
X169830000Y-95010001D01*
D12*
X161030000Y-122640001D02*
X161030000Y-94200001D01*
X161030000Y-94200001D02*
X170630000Y-94200001D01*
X170630000Y-94200001D02*
X170630000Y-122640001D01*
X170630000Y-122640001D02*
X161030000Y-122640001D01*
D10*
X38678076Y-122390001D02*
X38678076Y-94450001D01*
X39228076Y-121850001D02*
X39228076Y-95010001D01*
X47778076Y-122390001D02*
X47778076Y-94450001D01*
X47228076Y-121850001D02*
X47228076Y-110670001D01*
X47228076Y-106170001D02*
X47228076Y-95010001D01*
X47228076Y-110670001D02*
X47778076Y-110670001D01*
X47228076Y-106170001D02*
X47778076Y-106170001D01*
X38678076Y-122390001D02*
X47778076Y-122390001D01*
X39228076Y-121850001D02*
X47228076Y-121850001D01*
X38678076Y-94450001D02*
X47778076Y-94450001D01*
X39228076Y-95010001D02*
X47228076Y-95010001D01*
X38678076Y-122390001D02*
X39228076Y-121850001D01*
X38678076Y-94450001D02*
X39228076Y-95010001D01*
X47778076Y-122390001D02*
X47228076Y-121850001D01*
X47778076Y-94450001D02*
X47228076Y-95010001D01*
D12*
X38428076Y-122640001D02*
X38428076Y-94200001D01*
X38428076Y-94200001D02*
X48028076Y-94200001D01*
X48028076Y-94200001D02*
X48028076Y-122640001D01*
X48028076Y-122640001D02*
X38428076Y-122640001D01*
D13*
X34680000Y-121560000D02*
X25790000Y-115210000D01*
X34680000Y-136800000D02*
X34680000Y-121560000D01*
X37220000Y-134260000D02*
X34680000Y-136800000D01*
X37220000Y-120290000D02*
X37220000Y-134260000D01*
X25790000Y-111400000D02*
X37220000Y-120290000D01*
X23250000Y-111400000D02*
X25790000Y-111400000D01*
X25790000Y-134260000D02*
X25790000Y-115210000D01*
X23250000Y-136800000D02*
X25790000Y-134260000D01*
X23250000Y-111400000D02*
X23250000Y-136800000D01*
X260880000Y-122360000D02*
X251990000Y-116010000D01*
X260880000Y-137600000D02*
X260880000Y-122360000D01*
X263420000Y-135060000D02*
X260880000Y-137600000D01*
X263420000Y-121090000D02*
X263420000Y-135060000D01*
X251990000Y-112200000D02*
X263420000Y-121090000D01*
X249450000Y-112200000D02*
X251990000Y-112200000D01*
X251990000Y-135060000D02*
X251990000Y-116010000D01*
X249450000Y-137600000D02*
X251990000Y-135060000D01*
X249450000Y-112200000D02*
X249450000Y-137600000D01*
X132058334Y-110727143D02*
X132010715Y-110774762D01*
X131867858Y-110822381D01*
X131772620Y-110822381D01*
X131629762Y-110774762D01*
X131534524Y-110679524D01*
X131486905Y-110584286D01*
X131439286Y-110393810D01*
X131439286Y-110250952D01*
X131486905Y-110060476D01*
X131534524Y-109965238D01*
X131629762Y-109870000D01*
X131772620Y-109822381D01*
X131867858Y-109822381D01*
X132010715Y-109870000D01*
X132058334Y-109917619D01*
X133010715Y-110822381D02*
X132439286Y-110822381D01*
X132725000Y-110822381D02*
X132725000Y-109822381D01*
X132629762Y-109965238D01*
X132534524Y-110060476D01*
X132439286Y-110108095D01*
X131153572Y-117852381D02*
X130582143Y-117852381D01*
X130867857Y-117852381D02*
X130867857Y-116852381D01*
X130772619Y-116995238D01*
X130677381Y-117090476D01*
X130582143Y-117138095D01*
X131772619Y-116852381D02*
X131867858Y-116852381D01*
X131963096Y-116900000D01*
X132010715Y-116947619D01*
X132058334Y-117042857D01*
X132105953Y-117233333D01*
X132105953Y-117471429D01*
X132058334Y-117661905D01*
X132010715Y-117757143D01*
X131963096Y-117804762D01*
X131867858Y-117852381D01*
X131772619Y-117852381D01*
X131677381Y-117804762D01*
X131629762Y-117757143D01*
X131582143Y-117661905D01*
X131534524Y-117471429D01*
X131534524Y-117233333D01*
X131582143Y-117042857D01*
X131629762Y-116947619D01*
X131677381Y-116900000D01*
X131772619Y-116852381D01*
X132963096Y-117185714D02*
X132963096Y-117852381D01*
X132534524Y-117185714D02*
X132534524Y-117709524D01*
X132582143Y-117804762D01*
X132677381Y-117852381D01*
X132820239Y-117852381D01*
X132915477Y-117804762D01*
X132963096Y-117757143D01*
X133772620Y-117328571D02*
X133439286Y-117328571D01*
X133439286Y-117852381D02*
X133439286Y-116852381D01*
X133915477Y-116852381D01*
X134624048Y-112031429D02*
X135385953Y-112031429D01*
X135005001Y-112412381D02*
X135005001Y-111650476D01*
X132058334Y-110727143D02*
X132010715Y-110774762D01*
X131867858Y-110822381D01*
X131772620Y-110822381D01*
X131629762Y-110774762D01*
X131534524Y-110679524D01*
X131486905Y-110584286D01*
X131439286Y-110393810D01*
X131439286Y-110250952D01*
X131486905Y-110060476D01*
X131534524Y-109965238D01*
X131629762Y-109870000D01*
X131772620Y-109822381D01*
X131867858Y-109822381D01*
X132010715Y-109870000D01*
X132058334Y-109917619D01*
X133010715Y-110822381D02*
X132439286Y-110822381D01*
X132725000Y-110822381D02*
X132725000Y-109822381D01*
X132629762Y-109965238D01*
X132534524Y-110060476D01*
X132439286Y-110108095D01*
X132058334Y-126772143D02*
X132010715Y-126819762D01*
X131867858Y-126867381D01*
X131772620Y-126867381D01*
X131629762Y-126819762D01*
X131534524Y-126724524D01*
X131486905Y-126629286D01*
X131439286Y-126438810D01*
X131439286Y-126295952D01*
X131486905Y-126105476D01*
X131534524Y-126010238D01*
X131629762Y-125915000D01*
X131772620Y-125867381D01*
X131867858Y-125867381D01*
X132010715Y-125915000D01*
X132058334Y-125962619D01*
X132439286Y-125962619D02*
X132486905Y-125915000D01*
X132582143Y-125867381D01*
X132820239Y-125867381D01*
X132915477Y-125915000D01*
X132963096Y-125962619D01*
X133010715Y-126057857D01*
X133010715Y-126153095D01*
X132963096Y-126295952D01*
X132391667Y-126867381D01*
X133010715Y-126867381D01*
X131153572Y-119837381D02*
X130582143Y-119837381D01*
X130867857Y-119837381D02*
X130867857Y-118837381D01*
X130772619Y-118980238D01*
X130677381Y-119075476D01*
X130582143Y-119123095D01*
X131772619Y-118837381D02*
X131867858Y-118837381D01*
X131963096Y-118885000D01*
X132010715Y-118932619D01*
X132058334Y-119027857D01*
X132105953Y-119218333D01*
X132105953Y-119456429D01*
X132058334Y-119646905D01*
X132010715Y-119742143D01*
X131963096Y-119789762D01*
X131867858Y-119837381D01*
X131772619Y-119837381D01*
X131677381Y-119789762D01*
X131629762Y-119742143D01*
X131582143Y-119646905D01*
X131534524Y-119456429D01*
X131534524Y-119218333D01*
X131582143Y-119027857D01*
X131629762Y-118932619D01*
X131677381Y-118885000D01*
X131772619Y-118837381D01*
X132963096Y-119170714D02*
X132963096Y-119837381D01*
X132534524Y-119170714D02*
X132534524Y-119694524D01*
X132582143Y-119789762D01*
X132677381Y-119837381D01*
X132820239Y-119837381D01*
X132915477Y-119789762D01*
X132963096Y-119742143D01*
X133772620Y-119313571D02*
X133439286Y-119313571D01*
X133439286Y-119837381D02*
X133439286Y-118837381D01*
X133915477Y-118837381D01*
X129064048Y-124896429D02*
X129825953Y-124896429D01*
X129445001Y-125277381D02*
X129445001Y-124515476D01*
X132058334Y-126772143D02*
X132010715Y-126819762D01*
X131867858Y-126867381D01*
X131772620Y-126867381D01*
X131629762Y-126819762D01*
X131534524Y-126724524D01*
X131486905Y-126629286D01*
X131439286Y-126438810D01*
X131439286Y-126295952D01*
X131486905Y-126105476D01*
X131534524Y-126010238D01*
X131629762Y-125915000D01*
X131772620Y-125867381D01*
X131867858Y-125867381D01*
X132010715Y-125915000D01*
X132058334Y-125962619D01*
X132439286Y-125962619D02*
X132486905Y-125915000D01*
X132582143Y-125867381D01*
X132820239Y-125867381D01*
X132915477Y-125915000D01*
X132963096Y-125962619D01*
X133010715Y-126057857D01*
X133010715Y-126153095D01*
X132963096Y-126295952D01*
X132391667Y-126867381D01*
X133010715Y-126867381D01*
X132058334Y-135787143D02*
X132010715Y-135834762D01*
X131867858Y-135882381D01*
X131772620Y-135882381D01*
X131629762Y-135834762D01*
X131534524Y-135739524D01*
X131486905Y-135644286D01*
X131439286Y-135453810D01*
X131439286Y-135310952D01*
X131486905Y-135120476D01*
X131534524Y-135025238D01*
X131629762Y-134930000D01*
X131772620Y-134882381D01*
X131867858Y-134882381D01*
X132010715Y-134930000D01*
X132058334Y-134977619D01*
X132391667Y-134882381D02*
X133010715Y-134882381D01*
X132677381Y-135263333D01*
X132820239Y-135263333D01*
X132915477Y-135310952D01*
X132963096Y-135358571D01*
X133010715Y-135453810D01*
X133010715Y-135691905D01*
X132963096Y-135787143D01*
X132915477Y-135834762D01*
X132820239Y-135882381D01*
X132534524Y-135882381D01*
X132439286Y-135834762D01*
X132391667Y-135787143D01*
X131153572Y-128852381D02*
X130582143Y-128852381D01*
X130867857Y-128852381D02*
X130867857Y-127852381D01*
X130772619Y-127995238D01*
X130677381Y-128090476D01*
X130582143Y-128138095D01*
X131772619Y-127852381D02*
X131867858Y-127852381D01*
X131963096Y-127900000D01*
X132010715Y-127947619D01*
X132058334Y-128042857D01*
X132105953Y-128233333D01*
X132105953Y-128471429D01*
X132058334Y-128661905D01*
X132010715Y-128757143D01*
X131963096Y-128804762D01*
X131867858Y-128852381D01*
X131772619Y-128852381D01*
X131677381Y-128804762D01*
X131629762Y-128757143D01*
X131582143Y-128661905D01*
X131534524Y-128471429D01*
X131534524Y-128233333D01*
X131582143Y-128042857D01*
X131629762Y-127947619D01*
X131677381Y-127900000D01*
X131772619Y-127852381D01*
X132963096Y-128185714D02*
X132963096Y-128852381D01*
X132534524Y-128185714D02*
X132534524Y-128709524D01*
X132582143Y-128804762D01*
X132677381Y-128852381D01*
X132820239Y-128852381D01*
X132915477Y-128804762D01*
X132963096Y-128757143D01*
X133772620Y-128328571D02*
X133439286Y-128328571D01*
X133439286Y-128852381D02*
X133439286Y-127852381D01*
X133915477Y-127852381D01*
X129064048Y-133911429D02*
X129825953Y-133911429D01*
X129445001Y-134292381D02*
X129445001Y-133530476D01*
X132058334Y-135787143D02*
X132010715Y-135834762D01*
X131867858Y-135882381D01*
X131772620Y-135882381D01*
X131629762Y-135834762D01*
X131534524Y-135739524D01*
X131486905Y-135644286D01*
X131439286Y-135453810D01*
X131439286Y-135310952D01*
X131486905Y-135120476D01*
X131534524Y-135025238D01*
X131629762Y-134930000D01*
X131772620Y-134882381D01*
X131867858Y-134882381D01*
X132010715Y-134930000D01*
X132058334Y-134977619D01*
X132391667Y-134882381D02*
X133010715Y-134882381D01*
X132677381Y-135263333D01*
X132820239Y-135263333D01*
X132915477Y-135310952D01*
X132963096Y-135358571D01*
X133010715Y-135453810D01*
X133010715Y-135691905D01*
X132963096Y-135787143D01*
X132915477Y-135834762D01*
X132820239Y-135882381D01*
X132534524Y-135882381D01*
X132439286Y-135834762D01*
X132391667Y-135787143D01*
X139611905Y-112477381D02*
X139611905Y-111477381D01*
X139850000Y-111477381D01*
X139992858Y-111525000D01*
X140088096Y-111620238D01*
X140135715Y-111715476D01*
X140183334Y-111905952D01*
X140183334Y-112048810D01*
X140135715Y-112239286D01*
X140088096Y-112334524D01*
X139992858Y-112429762D01*
X139850000Y-112477381D01*
X139611905Y-112477381D01*
X141135715Y-112477381D02*
X140564286Y-112477381D01*
X140850000Y-112477381D02*
X140850000Y-111477381D01*
X140754762Y-111620238D01*
X140659524Y-111715476D01*
X140564286Y-111763095D01*
X139111905Y-115396429D02*
X139873810Y-115396429D01*
X139492858Y-115777381D02*
X139492858Y-115015476D01*
X140826191Y-114777381D02*
X140350000Y-114777381D01*
X140302381Y-115253571D01*
X140350000Y-115205952D01*
X140445238Y-115158333D01*
X140683334Y-115158333D01*
X140778572Y-115205952D01*
X140826191Y-115253571D01*
X140873810Y-115348810D01*
X140873810Y-115586905D01*
X140826191Y-115682143D01*
X140778572Y-115729762D01*
X140683334Y-115777381D01*
X140445238Y-115777381D01*
X140350000Y-115729762D01*
X140302381Y-115682143D01*
X139611905Y-117402381D02*
X139611905Y-116402381D01*
X139850000Y-116402381D01*
X139992858Y-116450000D01*
X140088096Y-116545238D01*
X140135715Y-116640476D01*
X140183334Y-116830952D01*
X140183334Y-116973810D01*
X140135715Y-117164286D01*
X140088096Y-117259524D01*
X139992858Y-117354762D01*
X139850000Y-117402381D01*
X139611905Y-117402381D01*
X140564286Y-116497619D02*
X140611905Y-116450000D01*
X140707143Y-116402381D01*
X140945239Y-116402381D01*
X141040477Y-116450000D01*
X141088096Y-116497619D01*
X141135715Y-116592857D01*
X141135715Y-116688095D01*
X141088096Y-116830952D01*
X140516667Y-117402381D01*
X141135715Y-117402381D01*
X138635714Y-120321429D02*
X139397619Y-120321429D01*
X139016667Y-120702381D02*
X139016667Y-119940476D01*
X140397619Y-120702381D02*
X139826190Y-120702381D01*
X140111904Y-120702381D02*
X140111904Y-119702381D01*
X140016666Y-119845238D01*
X139921428Y-119940476D01*
X139826190Y-119988095D01*
X140778571Y-119797619D02*
X140826190Y-119750000D01*
X140921428Y-119702381D01*
X141159524Y-119702381D01*
X141254762Y-119750000D01*
X141302381Y-119797619D01*
X141350000Y-119892857D01*
X141350000Y-119988095D01*
X141302381Y-120130952D01*
X140730952Y-120702381D01*
X141350000Y-120702381D01*
X139611905Y-122302381D02*
X139611905Y-121302381D01*
X139850000Y-121302381D01*
X139992858Y-121350000D01*
X140088096Y-121445238D01*
X140135715Y-121540476D01*
X140183334Y-121730952D01*
X140183334Y-121873810D01*
X140135715Y-122064286D01*
X140088096Y-122159524D01*
X139992858Y-122254762D01*
X139850000Y-122302381D01*
X139611905Y-122302381D01*
X140516667Y-121302381D02*
X141135715Y-121302381D01*
X140802381Y-121683333D01*
X140945239Y-121683333D01*
X141040477Y-121730952D01*
X141088096Y-121778571D01*
X141135715Y-121873810D01*
X141135715Y-122111905D01*
X141088096Y-122207143D01*
X141040477Y-122254762D01*
X140945239Y-122302381D01*
X140659524Y-122302381D01*
X140564286Y-122254762D01*
X140516667Y-122207143D01*
X138635714Y-125221429D02*
X139397619Y-125221429D01*
X140397619Y-125602381D02*
X139826190Y-125602381D01*
X140111904Y-125602381D02*
X140111904Y-124602381D01*
X140016666Y-124745238D01*
X139921428Y-124840476D01*
X139826190Y-124888095D01*
X140778571Y-124697619D02*
X140826190Y-124650000D01*
X140921428Y-124602381D01*
X141159524Y-124602381D01*
X141254762Y-124650000D01*
X141302381Y-124697619D01*
X141350000Y-124792857D01*
X141350000Y-124888095D01*
X141302381Y-125030952D01*
X140730952Y-125602381D01*
X141350000Y-125602381D01*
X138991667Y-108727381D02*
X138991667Y-109441667D01*
X138944047Y-109584524D01*
X138848809Y-109679762D01*
X138705952Y-109727381D01*
X138610714Y-109727381D01*
X139991667Y-109727381D02*
X139420238Y-109727381D01*
X139705952Y-109727381D02*
X139705952Y-108727381D01*
X139610714Y-108870238D01*
X139515476Y-108965476D01*
X139420238Y-109013095D01*
X141873810Y-109727381D02*
X141873810Y-108727381D01*
X142254763Y-108727381D01*
X142350001Y-108775000D01*
X142397620Y-108822619D01*
X142445239Y-108917857D01*
X142445239Y-109060714D01*
X142397620Y-109155952D01*
X142350001Y-109203571D01*
X142254763Y-109251190D01*
X141873810Y-109251190D01*
X142778572Y-108727381D02*
X143016667Y-109727381D01*
X143207144Y-109013095D01*
X143397620Y-109727381D01*
X143635715Y-108727381D01*
X144588096Y-109727381D02*
X144254762Y-109251190D01*
X144016667Y-109727381D02*
X144016667Y-108727381D01*
X144397620Y-108727381D01*
X144492858Y-108775000D01*
X144540477Y-108822619D01*
X144588096Y-108917857D01*
X144588096Y-109060714D01*
X144540477Y-109155952D01*
X144492858Y-109203571D01*
X144397620Y-109251190D01*
X144016667Y-109251190D01*
X144778572Y-109822619D02*
X145540477Y-109822619D01*
X145778572Y-109727381D02*
X145778572Y-108727381D01*
X146254762Y-109727381D02*
X146254762Y-108727381D01*
X146826191Y-109727381D01*
X146826191Y-108727381D01*
X136666667Y-139427381D02*
X136666667Y-140141667D01*
X136619047Y-140284524D01*
X136523809Y-140379762D01*
X136380952Y-140427381D01*
X136285714Y-140427381D01*
X137095238Y-139522619D02*
X137142857Y-139475000D01*
X137238095Y-139427381D01*
X137476191Y-139427381D01*
X137571429Y-139475000D01*
X137619048Y-139522619D01*
X137666667Y-139617857D01*
X137666667Y-139713095D01*
X137619048Y-139855952D01*
X137047619Y-140427381D01*
X137666667Y-140427381D01*
X129107143Y-140427381D02*
X129107143Y-139427381D01*
X129488096Y-139427381D01*
X129583334Y-139475000D01*
X129630953Y-139522619D01*
X129678572Y-139617857D01*
X129678572Y-139760714D01*
X129630953Y-139855952D01*
X129583334Y-139903571D01*
X129488096Y-139951190D01*
X129107143Y-139951190D01*
X130011905Y-139427381D02*
X130250000Y-140427381D01*
X130440477Y-139713095D01*
X130630953Y-140427381D01*
X130869048Y-139427381D01*
X131821429Y-140427381D02*
X131488095Y-139951190D01*
X131250000Y-140427381D02*
X131250000Y-139427381D01*
X131630953Y-139427381D01*
X131726191Y-139475000D01*
X131773810Y-139522619D01*
X131821429Y-139617857D01*
X131821429Y-139760714D01*
X131773810Y-139855952D01*
X131726191Y-139903571D01*
X131630953Y-139951190D01*
X131250000Y-139951190D01*
X132011905Y-140522619D02*
X132773810Y-140522619D01*
X133202381Y-139427381D02*
X133392858Y-139427381D01*
X133488096Y-139475000D01*
X133583334Y-139570238D01*
X133630953Y-139760714D01*
X133630953Y-140094048D01*
X133583334Y-140284524D01*
X133488096Y-140379762D01*
X133392858Y-140427381D01*
X133202381Y-140427381D01*
X133107143Y-140379762D01*
X133011905Y-140284524D01*
X132964286Y-140094048D01*
X132964286Y-139760714D01*
X133011905Y-139570238D01*
X133107143Y-139475000D01*
X133202381Y-139427381D01*
X134059524Y-139427381D02*
X134059524Y-140236905D01*
X134107143Y-140332143D01*
X134154762Y-140379762D01*
X134250000Y-140427381D01*
X134440477Y-140427381D01*
X134535715Y-140379762D01*
X134583334Y-140332143D01*
X134630953Y-140236905D01*
X134630953Y-139427381D01*
X134964286Y-139427381D02*
X135535715Y-139427381D01*
X135250000Y-140427381D02*
X135250000Y-139427381D01*
X152416667Y-97997381D02*
X152416667Y-98711667D01*
X152369047Y-98854524D01*
X152273809Y-98949762D01*
X152130952Y-98997381D01*
X152035714Y-98997381D01*
X152797619Y-97997381D02*
X153416667Y-97997381D01*
X153083333Y-98378333D01*
X153226191Y-98378333D01*
X153321429Y-98425952D01*
X153369048Y-98473571D01*
X153416667Y-98568810D01*
X153416667Y-98806905D01*
X153369048Y-98902143D01*
X153321429Y-98949762D01*
X153226191Y-98997381D01*
X152940476Y-98997381D01*
X152845238Y-98949762D01*
X152797619Y-98902143D01*
X150607143Y-105245000D02*
X150511905Y-105197381D01*
X150369048Y-105197381D01*
X150226190Y-105245000D01*
X150130952Y-105340238D01*
X150083333Y-105435476D01*
X150035714Y-105625952D01*
X150035714Y-105768810D01*
X150083333Y-105959286D01*
X150130952Y-106054524D01*
X150226190Y-106149762D01*
X150369048Y-106197381D01*
X150464286Y-106197381D01*
X150607143Y-106149762D01*
X150654762Y-106102143D01*
X150654762Y-105768810D01*
X150464286Y-105768810D01*
X151035714Y-105911667D02*
X151511905Y-105911667D01*
X150940476Y-106197381D02*
X151273809Y-105197381D01*
X151607143Y-106197381D01*
X151797619Y-105197381D02*
X152369048Y-105197381D01*
X152083333Y-106197381D02*
X152083333Y-105197381D01*
X152702381Y-105673571D02*
X153035715Y-105673571D01*
X153178572Y-106197381D02*
X152702381Y-106197381D01*
X152702381Y-105197381D01*
X153178572Y-105197381D01*
X153369048Y-106292619D02*
X154130953Y-106292619D01*
X154369048Y-106197381D02*
X154369048Y-105197381D01*
X154845238Y-106197381D02*
X154845238Y-105197381D01*
X155416667Y-106197381D01*
X155416667Y-105197381D01*
X149416667Y-108917381D02*
X149416667Y-109631667D01*
X149369047Y-109774524D01*
X149273809Y-109869762D01*
X149130952Y-109917381D01*
X149035714Y-109917381D01*
X150321429Y-109250714D02*
X150321429Y-109917381D01*
X150083333Y-108869762D02*
X149845238Y-109584048D01*
X150464286Y-109584048D01*
X148390476Y-112700000D02*
X148295238Y-112652381D01*
X148152381Y-112652381D01*
X148009523Y-112700000D01*
X147914285Y-112795238D01*
X147866666Y-112890476D01*
X147819047Y-113080952D01*
X147819047Y-113223810D01*
X147866666Y-113414286D01*
X147914285Y-113509524D01*
X148009523Y-113604762D01*
X148152381Y-113652381D01*
X148247619Y-113652381D01*
X148390476Y-113604762D01*
X148438095Y-113557143D01*
X148438095Y-113223810D01*
X148247619Y-113223810D01*
X148819047Y-113366667D02*
X149295238Y-113366667D01*
X148723809Y-113652381D02*
X149057142Y-112652381D01*
X149390476Y-113652381D01*
X149580952Y-112652381D02*
X150152381Y-112652381D01*
X149866666Y-113652381D02*
X149866666Y-112652381D01*
X150485714Y-113128571D02*
X150819048Y-113128571D01*
X150961905Y-113652381D02*
X150485714Y-113652381D01*
X150485714Y-112652381D01*
X150961905Y-112652381D01*
X151152381Y-113747619D02*
X151914286Y-113747619D01*
X152342857Y-112652381D02*
X152533334Y-112652381D01*
X152628572Y-112700000D01*
X152723810Y-112795238D01*
X152771429Y-112985714D01*
X152771429Y-113319048D01*
X152723810Y-113509524D01*
X152628572Y-113604762D01*
X152533334Y-113652381D01*
X152342857Y-113652381D01*
X152247619Y-113604762D01*
X152152381Y-113509524D01*
X152104762Y-113319048D01*
X152104762Y-112985714D01*
X152152381Y-112795238D01*
X152247619Y-112700000D01*
X152342857Y-112652381D01*
X153200000Y-112652381D02*
X153200000Y-113461905D01*
X153247619Y-113557143D01*
X153295238Y-113604762D01*
X153390476Y-113652381D01*
X153580953Y-113652381D01*
X153676191Y-113604762D01*
X153723810Y-113557143D01*
X153771429Y-113461905D01*
X153771429Y-112652381D01*
X154104762Y-112652381D02*
X154676191Y-112652381D01*
X154390476Y-113652381D02*
X154390476Y-112652381D01*
X157466667Y-97772381D02*
X157466667Y-98486667D01*
X157419047Y-98629524D01*
X157323809Y-98724762D01*
X157180952Y-98772381D01*
X157085714Y-98772381D01*
X158419048Y-97772381D02*
X157942857Y-97772381D01*
X157895238Y-98248571D01*
X157942857Y-98200952D01*
X158038095Y-98153333D01*
X158276191Y-98153333D01*
X158371429Y-98200952D01*
X158419048Y-98248571D01*
X158466667Y-98343810D01*
X158466667Y-98581905D01*
X158419048Y-98677143D01*
X158371429Y-98724762D01*
X158276191Y-98772381D01*
X158038095Y-98772381D01*
X157942857Y-98724762D01*
X157895238Y-98677143D01*
X156638096Y-106057143D02*
X156590477Y-106104762D01*
X156447620Y-106152381D01*
X156352382Y-106152381D01*
X156209524Y-106104762D01*
X156114286Y-106009524D01*
X156066667Y-105914286D01*
X156019048Y-105723810D01*
X156019048Y-105580952D01*
X156066667Y-105390476D01*
X156114286Y-105295238D01*
X156209524Y-105200000D01*
X156352382Y-105152381D01*
X156447620Y-105152381D01*
X156590477Y-105200000D01*
X156638096Y-105247619D01*
X156923810Y-105152381D02*
X157257143Y-106152381D01*
X157590477Y-105152381D01*
X157685715Y-106247619D02*
X158447620Y-106247619D01*
X158685715Y-106152381D02*
X158685715Y-105152381D01*
X159161905Y-106152381D02*
X159161905Y-105152381D01*
X159733334Y-106152381D01*
X159733334Y-105152381D01*
X154566667Y-109052381D02*
X154566667Y-109766667D01*
X154519047Y-109909524D01*
X154423809Y-110004762D01*
X154280952Y-110052381D01*
X154185714Y-110052381D01*
X155471429Y-109052381D02*
X155280952Y-109052381D01*
X155185714Y-109100000D01*
X155138095Y-109147619D01*
X155042857Y-109290476D01*
X154995238Y-109480952D01*
X154995238Y-109861905D01*
X155042857Y-109957143D01*
X155090476Y-110004762D01*
X155185714Y-110052381D01*
X155376191Y-110052381D01*
X155471429Y-110004762D01*
X155519048Y-109957143D01*
X155566667Y-109861905D01*
X155566667Y-109623810D01*
X155519048Y-109528571D01*
X155471429Y-109480952D01*
X155376191Y-109433333D01*
X155185714Y-109433333D01*
X155090476Y-109480952D01*
X155042857Y-109528571D01*
X154995238Y-109623810D01*
X155971429Y-113557143D02*
X155923810Y-113604762D01*
X155780953Y-113652381D01*
X155685715Y-113652381D01*
X155542857Y-113604762D01*
X155447619Y-113509524D01*
X155400000Y-113414286D01*
X155352381Y-113223810D01*
X155352381Y-113080952D01*
X155400000Y-112890476D01*
X155447619Y-112795238D01*
X155542857Y-112700000D01*
X155685715Y-112652381D01*
X155780953Y-112652381D01*
X155923810Y-112700000D01*
X155971429Y-112747619D01*
X156257143Y-112652381D02*
X156590476Y-113652381D01*
X156923810Y-112652381D01*
X157019048Y-113747619D02*
X157780953Y-113747619D01*
X158209524Y-112652381D02*
X158400001Y-112652381D01*
X158495239Y-112700000D01*
X158590477Y-112795238D01*
X158638096Y-112985714D01*
X158638096Y-113319048D01*
X158590477Y-113509524D01*
X158495239Y-113604762D01*
X158400001Y-113652381D01*
X158209524Y-113652381D01*
X158114286Y-113604762D01*
X158019048Y-113509524D01*
X157971429Y-113319048D01*
X157971429Y-112985714D01*
X158019048Y-112795238D01*
X158114286Y-112700000D01*
X158209524Y-112652381D01*
X159066667Y-112652381D02*
X159066667Y-113461905D01*
X159114286Y-113557143D01*
X159161905Y-113604762D01*
X159257143Y-113652381D01*
X159447620Y-113652381D01*
X159542858Y-113604762D01*
X159590477Y-113557143D01*
X159638096Y-113461905D01*
X159638096Y-112652381D01*
X159971429Y-112652381D02*
X160542858Y-112652381D01*
X160257143Y-113652381D02*
X160257143Y-112652381D01*
X145333334Y-112477381D02*
X145000000Y-112001190D01*
X144761905Y-112477381D02*
X144761905Y-111477381D01*
X145142858Y-111477381D01*
X145238096Y-111525000D01*
X145285715Y-111572619D01*
X145333334Y-111667857D01*
X145333334Y-111810714D01*
X145285715Y-111905952D01*
X145238096Y-111953571D01*
X145142858Y-112001190D01*
X144761905Y-112001190D01*
X146285715Y-112477381D02*
X145714286Y-112477381D01*
X146000000Y-112477381D02*
X146000000Y-111477381D01*
X145904762Y-111620238D01*
X145809524Y-111715476D01*
X145714286Y-111763095D01*
X144857143Y-115877381D02*
X144380952Y-115877381D01*
X144380952Y-114877381D01*
X145190476Y-115353571D02*
X145523810Y-115353571D01*
X145666667Y-115877381D02*
X145190476Y-115877381D01*
X145190476Y-114877381D01*
X145666667Y-114877381D01*
X146095238Y-115877381D02*
X146095238Y-114877381D01*
X146333333Y-114877381D01*
X146476191Y-114925000D01*
X146571429Y-115020238D01*
X146619048Y-115115476D01*
X146666667Y-115305952D01*
X146666667Y-115448810D01*
X146619048Y-115639286D01*
X146571429Y-115734524D01*
X146476191Y-115829762D01*
X146333333Y-115877381D01*
X146095238Y-115877381D01*
X145333334Y-117402381D02*
X145000000Y-116926190D01*
X144761905Y-117402381D02*
X144761905Y-116402381D01*
X145142858Y-116402381D01*
X145238096Y-116450000D01*
X145285715Y-116497619D01*
X145333334Y-116592857D01*
X145333334Y-116735714D01*
X145285715Y-116830952D01*
X145238096Y-116878571D01*
X145142858Y-116926190D01*
X144761905Y-116926190D01*
X145714286Y-116497619D02*
X145761905Y-116450000D01*
X145857143Y-116402381D01*
X146095239Y-116402381D01*
X146190477Y-116450000D01*
X146238096Y-116497619D01*
X146285715Y-116592857D01*
X146285715Y-116688095D01*
X146238096Y-116830952D01*
X145666667Y-117402381D01*
X146285715Y-117402381D01*
X144857143Y-120802381D02*
X144380952Y-120802381D01*
X144380952Y-119802381D01*
X145190476Y-120278571D02*
X145523810Y-120278571D01*
X145666667Y-120802381D02*
X145190476Y-120802381D01*
X145190476Y-119802381D01*
X145666667Y-119802381D01*
X146095238Y-120802381D02*
X146095238Y-119802381D01*
X146333333Y-119802381D01*
X146476191Y-119850000D01*
X146571429Y-119945238D01*
X146619048Y-120040476D01*
X146666667Y-120230952D01*
X146666667Y-120373810D01*
X146619048Y-120564286D01*
X146571429Y-120659524D01*
X146476191Y-120754762D01*
X146333333Y-120802381D01*
X146095238Y-120802381D01*
X145333334Y-122302381D02*
X145000000Y-121826190D01*
X144761905Y-122302381D02*
X144761905Y-121302381D01*
X145142858Y-121302381D01*
X145238096Y-121350000D01*
X145285715Y-121397619D01*
X145333334Y-121492857D01*
X145333334Y-121635714D01*
X145285715Y-121730952D01*
X145238096Y-121778571D01*
X145142858Y-121826190D01*
X144761905Y-121826190D01*
X145666667Y-121302381D02*
X146285715Y-121302381D01*
X145952381Y-121683333D01*
X146095239Y-121683333D01*
X146190477Y-121730952D01*
X146238096Y-121778571D01*
X146285715Y-121873810D01*
X146285715Y-122111905D01*
X146238096Y-122207143D01*
X146190477Y-122254762D01*
X146095239Y-122302381D01*
X145809524Y-122302381D01*
X145714286Y-122254762D01*
X145666667Y-122207143D01*
X144857143Y-125702381D02*
X144380952Y-125702381D01*
X144380952Y-124702381D01*
X145190476Y-125178571D02*
X145523810Y-125178571D01*
X145666667Y-125702381D02*
X145190476Y-125702381D01*
X145190476Y-124702381D01*
X145666667Y-124702381D01*
X146095238Y-125702381D02*
X146095238Y-124702381D01*
X146333333Y-124702381D01*
X146476191Y-124750000D01*
X146571429Y-124845238D01*
X146619048Y-124940476D01*
X146666667Y-125130952D01*
X146666667Y-125273810D01*
X146619048Y-125464286D01*
X146571429Y-125559524D01*
X146476191Y-125654762D01*
X146333333Y-125702381D01*
X146095238Y-125702381D01*
X144738095Y-126242381D02*
X144738095Y-127051905D01*
X144785714Y-127147143D01*
X144833333Y-127194762D01*
X144928571Y-127242381D01*
X145119048Y-127242381D01*
X145214286Y-127194762D01*
X145261905Y-127147143D01*
X145309524Y-127051905D01*
X145309524Y-126242381D01*
X146309524Y-127242381D02*
X145738095Y-127242381D01*
X146023809Y-127242381D02*
X146023809Y-126242381D01*
X145928571Y-126385238D01*
X145833333Y-126480476D01*
X145738095Y-126528095D01*
X143476191Y-139542381D02*
X143000000Y-139542381D01*
X142952381Y-140018571D01*
X143000000Y-139970952D01*
X143095238Y-139923333D01*
X143333334Y-139923333D01*
X143428572Y-139970952D01*
X143476191Y-140018571D01*
X143523810Y-140113810D01*
X143523810Y-140351905D01*
X143476191Y-140447143D01*
X143428572Y-140494762D01*
X143333334Y-140542381D01*
X143095238Y-140542381D01*
X143000000Y-140494762D01*
X142952381Y-140447143D01*
X143809524Y-139542381D02*
X144142857Y-140542381D01*
X144476191Y-139542381D01*
X144571429Y-140637619D02*
X145333334Y-140637619D01*
X146142858Y-140542381D02*
X145809524Y-140066190D01*
X145571429Y-140542381D02*
X145571429Y-139542381D01*
X145952382Y-139542381D01*
X146047620Y-139590000D01*
X146095239Y-139637619D01*
X146142858Y-139732857D01*
X146142858Y-139875714D01*
X146095239Y-139970952D01*
X146047620Y-140018571D01*
X145952382Y-140066190D01*
X145571429Y-140066190D01*
X146571429Y-140018571D02*
X146904763Y-140018571D01*
X147047620Y-140542381D02*
X146571429Y-140542381D01*
X146571429Y-139542381D01*
X147047620Y-139542381D01*
X148000001Y-139590000D02*
X147904763Y-139542381D01*
X147761906Y-139542381D01*
X147619048Y-139590000D01*
X147523810Y-139685238D01*
X147476191Y-139780476D01*
X147428572Y-139970952D01*
X147428572Y-140113810D01*
X147476191Y-140304286D01*
X147523810Y-140399524D01*
X147619048Y-140494762D01*
X147761906Y-140542381D01*
X147857144Y-140542381D01*
X148000001Y-140494762D01*
X148047620Y-140447143D01*
X148047620Y-140113810D01*
X147857144Y-140113810D01*
X248607379Y-148440712D02*
X249321665Y-148440712D01*
X249464522Y-148488332D01*
X249559760Y-148583570D01*
X249607379Y-148726427D01*
X249607379Y-148821665D01*
X248607379Y-148059760D02*
X248607379Y-147440712D01*
X248988331Y-147774046D01*
X248988331Y-147631188D01*
X249035950Y-147535950D01*
X249083569Y-147488331D01*
X249178808Y-147440712D01*
X249416903Y-147440712D01*
X249512141Y-147488331D01*
X249559760Y-147535950D01*
X249607379Y-147631188D01*
X249607379Y-147916903D01*
X249559760Y-148012141D01*
X249512141Y-148059760D01*
X248940712Y-146583569D02*
X249607379Y-146583569D01*
X248559760Y-146821665D02*
X249274046Y-147059760D01*
X249274046Y-146440712D01*
X249652381Y-144385714D02*
X248652381Y-144385714D01*
X248652381Y-144004761D01*
X248700000Y-143909523D01*
X248747619Y-143861904D01*
X248842857Y-143814285D01*
X248985714Y-143814285D01*
X249080952Y-143861904D01*
X249128571Y-143909523D01*
X249176190Y-144004761D01*
X249176190Y-144385714D01*
X248652381Y-143480952D02*
X249652381Y-143242857D01*
X248938095Y-143052380D01*
X249652381Y-142861904D01*
X248652381Y-142623809D01*
X249652381Y-141671428D02*
X249176190Y-142004762D01*
X249652381Y-142242857D02*
X248652381Y-142242857D01*
X248652381Y-141861904D01*
X248700000Y-141766666D01*
X248747619Y-141719047D01*
X248842857Y-141671428D01*
X248985714Y-141671428D01*
X249080952Y-141719047D01*
X249128571Y-141766666D01*
X249176190Y-141861904D01*
X249176190Y-142242857D01*
X248747619Y-141290476D02*
X248700000Y-141242857D01*
X248652381Y-141147619D01*
X248652381Y-140909523D01*
X248700000Y-140814285D01*
X248747619Y-140766666D01*
X248842857Y-140719047D01*
X248938095Y-140719047D01*
X249080952Y-140766666D01*
X249652381Y-141338095D01*
X249652381Y-140719047D01*
X249080952Y-140147619D02*
X249033333Y-140242857D01*
X248985714Y-140290476D01*
X248890476Y-140338095D01*
X248842857Y-140338095D01*
X248747619Y-140290476D01*
X248700000Y-140242857D01*
X248652381Y-140147619D01*
X248652381Y-139957142D01*
X248700000Y-139861904D01*
X248747619Y-139814285D01*
X248842857Y-139766666D01*
X248890476Y-139766666D01*
X248985714Y-139814285D01*
X249033333Y-139861904D01*
X249080952Y-139957142D01*
X249080952Y-140147619D01*
X249128571Y-140242857D01*
X249176190Y-140290476D01*
X249271429Y-140338095D01*
X249461905Y-140338095D01*
X249557143Y-140290476D01*
X249604762Y-140242857D01*
X249652381Y-140147619D01*
X249652381Y-139957142D01*
X249604762Y-139861904D01*
X249557143Y-139814285D01*
X249461905Y-139766666D01*
X249271429Y-139766666D01*
X249176190Y-139814285D01*
X249128571Y-139861904D01*
X249080952Y-139957142D01*
D12*
X246222379Y-148064284D02*
X246222379Y-148635713D01*
X246222379Y-148349999D02*
X245222379Y-148349999D01*
X245365236Y-148445237D01*
X245460474Y-148540475D01*
X245508093Y-148635713D01*
D13*
X126132369Y-148440712D02*
X126846655Y-148440712D01*
X126989512Y-148488332D01*
X127084750Y-148583570D01*
X127132369Y-148726427D01*
X127132369Y-148821665D01*
X126132369Y-148059760D02*
X126132369Y-147440712D01*
X126513321Y-147774046D01*
X126513321Y-147631188D01*
X126560940Y-147535950D01*
X126608559Y-147488331D01*
X126703798Y-147440712D01*
X126941893Y-147440712D01*
X127037131Y-147488331D01*
X127084750Y-147535950D01*
X127132369Y-147631188D01*
X127132369Y-147916903D01*
X127084750Y-148012141D01*
X127037131Y-148059760D01*
X126132369Y-147107379D02*
X126132369Y-146488331D01*
X126513321Y-146821665D01*
X126513321Y-146678807D01*
X126560940Y-146583569D01*
X126608559Y-146535950D01*
X126703798Y-146488331D01*
X126941893Y-146488331D01*
X127037131Y-146535950D01*
X127084750Y-146583569D01*
X127132369Y-146678807D01*
X127132369Y-146964522D01*
X127084750Y-147059760D01*
X127037131Y-147107379D01*
X127250369Y-141765713D02*
X126250369Y-141765713D01*
X126250369Y-141384760D01*
X126297988Y-141289522D01*
X126345607Y-141241903D01*
X126440845Y-141194284D01*
X126583702Y-141194284D01*
X126678940Y-141241903D01*
X126726559Y-141289522D01*
X126774178Y-141384760D01*
X126774178Y-141765713D01*
X126250369Y-140860951D02*
X127250369Y-140622856D01*
X126536083Y-140432379D01*
X127250369Y-140241903D01*
X126250369Y-140003808D01*
X127250369Y-139051427D02*
X126774178Y-139384761D01*
X127250369Y-139622856D02*
X126250369Y-139622856D01*
X126250369Y-139241903D01*
X126297988Y-139146665D01*
X126345607Y-139099046D01*
X126440845Y-139051427D01*
X126583702Y-139051427D01*
X126678940Y-139099046D01*
X126726559Y-139146665D01*
X126774178Y-139241903D01*
X126774178Y-139622856D01*
X126345607Y-138670475D02*
X126297988Y-138622856D01*
X126250369Y-138527618D01*
X126250369Y-138289522D01*
X126297988Y-138194284D01*
X126345607Y-138146665D01*
X126440845Y-138099046D01*
X126536083Y-138099046D01*
X126678940Y-138146665D01*
X127250369Y-138718094D01*
X127250369Y-138099046D01*
X127250369Y-137146665D02*
X127250369Y-137718094D01*
X127250369Y-137432380D02*
X126250369Y-137432380D01*
X126393226Y-137527618D01*
X126488464Y-137622856D01*
X126536083Y-137718094D01*
D12*
X123747369Y-148064284D02*
X123747369Y-148635713D01*
X123747369Y-148349999D02*
X122747369Y-148349999D01*
X122890226Y-148445237D01*
X122985464Y-148540475D01*
X123033083Y-148635713D01*
D13*
X248452381Y-102409523D02*
X249166667Y-102409523D01*
X249309524Y-102457143D01*
X249404762Y-102552381D01*
X249452381Y-102695238D01*
X249452381Y-102790476D01*
X248452381Y-102028571D02*
X248452381Y-101409523D01*
X248833333Y-101742857D01*
X248833333Y-101599999D01*
X248880952Y-101504761D01*
X248928571Y-101457142D01*
X249023810Y-101409523D01*
X249261905Y-101409523D01*
X249357143Y-101457142D01*
X249404762Y-101504761D01*
X249452381Y-101599999D01*
X249452381Y-101885714D01*
X249404762Y-101980952D01*
X249357143Y-102028571D01*
X248547619Y-101028571D02*
X248500000Y-100980952D01*
X248452381Y-100885714D01*
X248452381Y-100647618D01*
X248500000Y-100552380D01*
X248547619Y-100504761D01*
X248642857Y-100457142D01*
X248738095Y-100457142D01*
X248880952Y-100504761D01*
X249452381Y-101076190D01*
X249452381Y-100457142D01*
X249475379Y-110705715D02*
X248475379Y-110705715D01*
X248475379Y-110324762D01*
X248522998Y-110229524D01*
X248570617Y-110181905D01*
X248665855Y-110134286D01*
X248808712Y-110134286D01*
X248903950Y-110181905D01*
X248951569Y-110229524D01*
X248999188Y-110324762D01*
X248999188Y-110705715D01*
X248475379Y-109800953D02*
X249475379Y-109562858D01*
X248761093Y-109372381D01*
X249475379Y-109181905D01*
X248475379Y-108943810D01*
X249475379Y-107991429D02*
X248999188Y-108324763D01*
X249475379Y-108562858D02*
X248475379Y-108562858D01*
X248475379Y-108181905D01*
X248522998Y-108086667D01*
X248570617Y-108039048D01*
X248665855Y-107991429D01*
X248808712Y-107991429D01*
X248903950Y-108039048D01*
X248951569Y-108086667D01*
X248999188Y-108181905D01*
X248999188Y-108562858D01*
X249475379Y-107039048D02*
X249475379Y-107610477D01*
X249475379Y-107324763D02*
X248475379Y-107324763D01*
X248618236Y-107420001D01*
X248713474Y-107515239D01*
X248761093Y-107610477D01*
X248808712Y-106181905D02*
X249475379Y-106181905D01*
X248427760Y-106420001D02*
X249142046Y-106658096D01*
X249142046Y-106039048D01*
D12*
X245972379Y-117004286D02*
X245972379Y-117575715D01*
X245972379Y-117290001D02*
X244972379Y-117290001D01*
X245115236Y-117385239D01*
X245210474Y-117480477D01*
X245258093Y-117575715D01*
D13*
X126132369Y-117380714D02*
X126846655Y-117380714D01*
X126989512Y-117428334D01*
X127084750Y-117523572D01*
X127132369Y-117666429D01*
X127132369Y-117761667D01*
X126132369Y-116999762D02*
X126132369Y-116380714D01*
X126513321Y-116714048D01*
X126513321Y-116571190D01*
X126560940Y-116475952D01*
X126608559Y-116428333D01*
X126703798Y-116380714D01*
X126941893Y-116380714D01*
X127037131Y-116428333D01*
X127084750Y-116475952D01*
X127132369Y-116571190D01*
X127132369Y-116856905D01*
X127084750Y-116952143D01*
X127037131Y-116999762D01*
X127132369Y-115428333D02*
X127132369Y-115999762D01*
X127132369Y-115714048D02*
X126132369Y-115714048D01*
X126275226Y-115809286D01*
X126370464Y-115904524D01*
X126418083Y-115999762D01*
X127250369Y-110229525D02*
X126250369Y-110229525D01*
X126250369Y-109848572D01*
X126297988Y-109753334D01*
X126345607Y-109705715D01*
X126440845Y-109658096D01*
X126583702Y-109658096D01*
X126678940Y-109705715D01*
X126726559Y-109753334D01*
X126774178Y-109848572D01*
X126774178Y-110229525D01*
X126250369Y-109324763D02*
X127250369Y-109086668D01*
X126536083Y-108896191D01*
X127250369Y-108705715D01*
X126250369Y-108467620D01*
X127250369Y-107515239D02*
X126774178Y-107848573D01*
X127250369Y-108086668D02*
X126250369Y-108086668D01*
X126250369Y-107705715D01*
X126297988Y-107610477D01*
X126345607Y-107562858D01*
X126440845Y-107515239D01*
X126583702Y-107515239D01*
X126678940Y-107562858D01*
X126726559Y-107610477D01*
X126774178Y-107705715D01*
X126774178Y-108086668D01*
X126250369Y-107181906D02*
X126250369Y-106515239D01*
X127250369Y-106943811D01*
D12*
X123747369Y-117004286D02*
X123747369Y-117575715D01*
X123747369Y-117290001D02*
X122747369Y-117290001D01*
X122890226Y-117385239D01*
X122985464Y-117480477D01*
X123033083Y-117575715D01*
D13*
X235761546Y-148440712D02*
X236475832Y-148440712D01*
X236618689Y-148488332D01*
X236713927Y-148583570D01*
X236761546Y-148726427D01*
X236761546Y-148821665D01*
X235761546Y-148059760D02*
X235761546Y-147440712D01*
X236142498Y-147774046D01*
X236142498Y-147631188D01*
X236190117Y-147535950D01*
X236237736Y-147488331D01*
X236332975Y-147440712D01*
X236571070Y-147440712D01*
X236666308Y-147488331D01*
X236713927Y-147535950D01*
X236761546Y-147631188D01*
X236761546Y-147916903D01*
X236713927Y-148012141D01*
X236666308Y-148059760D01*
X235761546Y-146821665D02*
X235761546Y-146726426D01*
X235809165Y-146631188D01*
X235856784Y-146583569D01*
X235952022Y-146535950D01*
X236142498Y-146488331D01*
X236380594Y-146488331D01*
X236571070Y-146535950D01*
X236666308Y-146583569D01*
X236713927Y-146631188D01*
X236761546Y-146726426D01*
X236761546Y-146821665D01*
X236713927Y-146916903D01*
X236666308Y-146964522D01*
X236571070Y-147012141D01*
X236380594Y-147059760D01*
X236142498Y-147059760D01*
X235952022Y-147012141D01*
X235856784Y-146964522D01*
X235809165Y-146916903D01*
X235761546Y-146821665D01*
X236879546Y-141765713D02*
X235879546Y-141765713D01*
X235879546Y-141384760D01*
X235927165Y-141289522D01*
X235974784Y-141241903D01*
X236070022Y-141194284D01*
X236212879Y-141194284D01*
X236308117Y-141241903D01*
X236355736Y-141289522D01*
X236403355Y-141384760D01*
X236403355Y-141765713D01*
X235879546Y-140860951D02*
X236879546Y-140622856D01*
X236165260Y-140432379D01*
X236879546Y-140241903D01*
X235879546Y-140003808D01*
X236879546Y-139051427D02*
X236403355Y-139384761D01*
X236879546Y-139622856D02*
X235879546Y-139622856D01*
X235879546Y-139241903D01*
X235927165Y-139146665D01*
X235974784Y-139099046D01*
X236070022Y-139051427D01*
X236212879Y-139051427D01*
X236308117Y-139099046D01*
X236355736Y-139146665D01*
X236403355Y-139241903D01*
X236403355Y-139622856D01*
X235974784Y-138670475D02*
X235927165Y-138622856D01*
X235879546Y-138527618D01*
X235879546Y-138289522D01*
X235927165Y-138194284D01*
X235974784Y-138146665D01*
X236070022Y-138099046D01*
X236165260Y-138099046D01*
X236308117Y-138146665D01*
X236879546Y-138718094D01*
X236879546Y-138099046D01*
X235879546Y-137765713D02*
X235879546Y-137099046D01*
X236879546Y-137527618D01*
D12*
X233376546Y-148064284D02*
X233376546Y-148635713D01*
X233376546Y-148349999D02*
X232376546Y-148349999D01*
X232519403Y-148445237D01*
X232614641Y-148540475D01*
X232662260Y-148635713D01*
D13*
X113286217Y-148440712D02*
X114000503Y-148440712D01*
X114143360Y-148488332D01*
X114238598Y-148583570D01*
X114286217Y-148726427D01*
X114286217Y-148821665D01*
X113381455Y-148012141D02*
X113333836Y-147964522D01*
X113286217Y-147869284D01*
X113286217Y-147631188D01*
X113333836Y-147535950D01*
X113381455Y-147488331D01*
X113476693Y-147440712D01*
X113571931Y-147440712D01*
X113714788Y-147488331D01*
X114286217Y-148059760D01*
X114286217Y-147440712D01*
X114286217Y-146964522D02*
X114286217Y-146774046D01*
X114238598Y-146678807D01*
X114190979Y-146631188D01*
X114048122Y-146535950D01*
X113857646Y-146488331D01*
X113476693Y-146488331D01*
X113381455Y-146535950D01*
X113333836Y-146583569D01*
X113286217Y-146678807D01*
X113286217Y-146869284D01*
X113333836Y-146964522D01*
X113381455Y-147012141D01*
X113476693Y-147059760D01*
X113714788Y-147059760D01*
X113810026Y-147012141D01*
X113857646Y-146964522D01*
X113905265Y-146869284D01*
X113905265Y-146678807D01*
X113857646Y-146583569D01*
X113810026Y-146535950D01*
X113714788Y-146488331D01*
X114404217Y-141765713D02*
X113404217Y-141765713D01*
X113404217Y-141384760D01*
X113451836Y-141289522D01*
X113499455Y-141241903D01*
X113594693Y-141194284D01*
X113737550Y-141194284D01*
X113832788Y-141241903D01*
X113880407Y-141289522D01*
X113928026Y-141384760D01*
X113928026Y-141765713D01*
X113404217Y-140860951D02*
X114404217Y-140622856D01*
X113689931Y-140432379D01*
X114404217Y-140241903D01*
X113404217Y-140003808D01*
X114404217Y-139051427D02*
X113928026Y-139384761D01*
X114404217Y-139622856D02*
X113404217Y-139622856D01*
X113404217Y-139241903D01*
X113451836Y-139146665D01*
X113499455Y-139099046D01*
X113594693Y-139051427D01*
X113737550Y-139051427D01*
X113832788Y-139099046D01*
X113880407Y-139146665D01*
X113928026Y-139241903D01*
X113928026Y-139622856D01*
X113499455Y-138670475D02*
X113451836Y-138622856D01*
X113404217Y-138527618D01*
X113404217Y-138289522D01*
X113451836Y-138194284D01*
X113499455Y-138146665D01*
X113594693Y-138099046D01*
X113689931Y-138099046D01*
X113832788Y-138146665D01*
X114404217Y-138718094D01*
X114404217Y-138099046D01*
X113404217Y-137479999D02*
X113404217Y-137384760D01*
X113451836Y-137289522D01*
X113499455Y-137241903D01*
X113594693Y-137194284D01*
X113785169Y-137146665D01*
X114023265Y-137146665D01*
X114213741Y-137194284D01*
X114308979Y-137241903D01*
X114356598Y-137289522D01*
X114404217Y-137384760D01*
X114404217Y-137479999D01*
X114356598Y-137575237D01*
X114308979Y-137622856D01*
X114213741Y-137670475D01*
X114023265Y-137718094D01*
X113785169Y-137718094D01*
X113594693Y-137670475D01*
X113499455Y-137622856D01*
X113451836Y-137575237D01*
X113404217Y-137479999D01*
D12*
X110901217Y-148064284D02*
X110901217Y-148635713D01*
X110901217Y-148349999D02*
X109901217Y-148349999D01*
X110044074Y-148445237D01*
X110139312Y-148540475D01*
X110186931Y-148635713D01*
D13*
X235549046Y-117380714D02*
X236263332Y-117380714D01*
X236406189Y-117428334D01*
X236501427Y-117523572D01*
X236549046Y-117666429D01*
X236549046Y-117761667D01*
X235644284Y-116952143D02*
X235596665Y-116904524D01*
X235549046Y-116809286D01*
X235549046Y-116571190D01*
X235596665Y-116475952D01*
X235644284Y-116428333D01*
X235739522Y-116380714D01*
X235834760Y-116380714D01*
X235977617Y-116428333D01*
X236549046Y-116999762D01*
X236549046Y-116380714D01*
X235977617Y-115809286D02*
X235929998Y-115904524D01*
X235882379Y-115952143D01*
X235787141Y-115999762D01*
X235739522Y-115999762D01*
X235644284Y-115952143D01*
X235596665Y-115904524D01*
X235549046Y-115809286D01*
X235549046Y-115618809D01*
X235596665Y-115523571D01*
X235644284Y-115475952D01*
X235739522Y-115428333D01*
X235787141Y-115428333D01*
X235882379Y-115475952D01*
X235929998Y-115523571D01*
X235977617Y-115618809D01*
X235977617Y-115809286D01*
X236025236Y-115904524D01*
X236072855Y-115952143D01*
X236168094Y-115999762D01*
X236358570Y-115999762D01*
X236453808Y-115952143D01*
X236501427Y-115904524D01*
X236549046Y-115809286D01*
X236549046Y-115618809D01*
X236501427Y-115523571D01*
X236453808Y-115475952D01*
X236358570Y-115428333D01*
X236168094Y-115428333D01*
X236072855Y-115475952D01*
X236025236Y-115523571D01*
X235977617Y-115618809D01*
X236667046Y-110705715D02*
X235667046Y-110705715D01*
X235667046Y-110324762D01*
X235714665Y-110229524D01*
X235762284Y-110181905D01*
X235857522Y-110134286D01*
X236000379Y-110134286D01*
X236095617Y-110181905D01*
X236143236Y-110229524D01*
X236190855Y-110324762D01*
X236190855Y-110705715D01*
X235667046Y-109800953D02*
X236667046Y-109562858D01*
X235952760Y-109372381D01*
X236667046Y-109181905D01*
X235667046Y-108943810D01*
X236667046Y-107991429D02*
X236190855Y-108324763D01*
X236667046Y-108562858D02*
X235667046Y-108562858D01*
X235667046Y-108181905D01*
X235714665Y-108086667D01*
X235762284Y-108039048D01*
X235857522Y-107991429D01*
X236000379Y-107991429D01*
X236095617Y-108039048D01*
X236143236Y-108086667D01*
X236190855Y-108181905D01*
X236190855Y-108562858D01*
X236667046Y-107039048D02*
X236667046Y-107610477D01*
X236667046Y-107324763D02*
X235667046Y-107324763D01*
X235809903Y-107420001D01*
X235905141Y-107515239D01*
X235952760Y-107610477D01*
X235667046Y-106705715D02*
X235667046Y-106086667D01*
X236047998Y-106420001D01*
X236047998Y-106277143D01*
X236095617Y-106181905D01*
X236143236Y-106134286D01*
X236238475Y-106086667D01*
X236476570Y-106086667D01*
X236571808Y-106134286D01*
X236619427Y-106181905D01*
X236667046Y-106277143D01*
X236667046Y-106562858D01*
X236619427Y-106658096D01*
X236571808Y-106705715D01*
D12*
X233164046Y-117004286D02*
X233164046Y-117575715D01*
X233164046Y-117290001D02*
X232164046Y-117290001D01*
X232306903Y-117385239D01*
X232402141Y-117480477D01*
X232449760Y-117575715D01*
D13*
X113286217Y-117380714D02*
X114000503Y-117380714D01*
X114143360Y-117428334D01*
X114238598Y-117523572D01*
X114286217Y-117666429D01*
X114286217Y-117761667D01*
X113381455Y-116952143D02*
X113333836Y-116904524D01*
X113286217Y-116809286D01*
X113286217Y-116571190D01*
X113333836Y-116475952D01*
X113381455Y-116428333D01*
X113476693Y-116380714D01*
X113571931Y-116380714D01*
X113714788Y-116428333D01*
X114286217Y-116999762D01*
X114286217Y-116380714D01*
X113286217Y-116047381D02*
X113286217Y-115380714D01*
X114286217Y-115809286D01*
X114404217Y-110229525D02*
X113404217Y-110229525D01*
X113404217Y-109848572D01*
X113451836Y-109753334D01*
X113499455Y-109705715D01*
X113594693Y-109658096D01*
X113737550Y-109658096D01*
X113832788Y-109705715D01*
X113880407Y-109753334D01*
X113928026Y-109848572D01*
X113928026Y-110229525D01*
X113404217Y-109324763D02*
X114404217Y-109086668D01*
X113689931Y-108896191D01*
X114404217Y-108705715D01*
X113404217Y-108467620D01*
X114404217Y-107515239D02*
X113928026Y-107848573D01*
X114404217Y-108086668D02*
X113404217Y-108086668D01*
X113404217Y-107705715D01*
X113451836Y-107610477D01*
X113499455Y-107562858D01*
X113594693Y-107515239D01*
X113737550Y-107515239D01*
X113832788Y-107562858D01*
X113880407Y-107610477D01*
X113928026Y-107705715D01*
X113928026Y-108086668D01*
X113404217Y-106658096D02*
X113404217Y-106848573D01*
X113451836Y-106943811D01*
X113499455Y-106991430D01*
X113642312Y-107086668D01*
X113832788Y-107134287D01*
X114213741Y-107134287D01*
X114308979Y-107086668D01*
X114356598Y-107039049D01*
X114404217Y-106943811D01*
X114404217Y-106753334D01*
X114356598Y-106658096D01*
X114308979Y-106610477D01*
X114213741Y-106562858D01*
X113975646Y-106562858D01*
X113880407Y-106610477D01*
X113832788Y-106658096D01*
X113785169Y-106753334D01*
X113785169Y-106943811D01*
X113832788Y-107039049D01*
X113880407Y-107086668D01*
X113975646Y-107134287D01*
D12*
X110901217Y-117004286D02*
X110901217Y-117575715D01*
X110901217Y-117290001D02*
X109901217Y-117290001D01*
X110044074Y-117385239D01*
X110139312Y-117480477D01*
X110186931Y-117575715D01*
D13*
X223015713Y-148440712D02*
X223729999Y-148440712D01*
X223872856Y-148488332D01*
X223968094Y-148583570D01*
X224015713Y-148726427D01*
X224015713Y-148821665D01*
X223110951Y-148012141D02*
X223063332Y-147964522D01*
X223015713Y-147869284D01*
X223015713Y-147631188D01*
X223063332Y-147535950D01*
X223110951Y-147488331D01*
X223206189Y-147440712D01*
X223301427Y-147440712D01*
X223444284Y-147488331D01*
X224015713Y-148059760D01*
X224015713Y-147440712D01*
X223015713Y-146583569D02*
X223015713Y-146774046D01*
X223063332Y-146869284D01*
X223110951Y-146916903D01*
X223253808Y-147012141D01*
X223444284Y-147059760D01*
X223825237Y-147059760D01*
X223920475Y-147012141D01*
X223968094Y-146964522D01*
X224015713Y-146869284D01*
X224015713Y-146678807D01*
X223968094Y-146583569D01*
X223920475Y-146535950D01*
X223825237Y-146488331D01*
X223587142Y-146488331D01*
X223491903Y-146535950D01*
X223444284Y-146583569D01*
X223396665Y-146678807D01*
X223396665Y-146869284D01*
X223444284Y-146964522D01*
X223491903Y-147012141D01*
X223587142Y-147059760D01*
X224133713Y-141765713D02*
X223133713Y-141765713D01*
X223133713Y-141384760D01*
X223181332Y-141289522D01*
X223228951Y-141241903D01*
X223324189Y-141194284D01*
X223467046Y-141194284D01*
X223562284Y-141241903D01*
X223609903Y-141289522D01*
X223657522Y-141384760D01*
X223657522Y-141765713D01*
X223133713Y-140860951D02*
X224133713Y-140622856D01*
X223419427Y-140432379D01*
X224133713Y-140241903D01*
X223133713Y-140003808D01*
X224133713Y-139051427D02*
X223657522Y-139384761D01*
X224133713Y-139622856D02*
X223133713Y-139622856D01*
X223133713Y-139241903D01*
X223181332Y-139146665D01*
X223228951Y-139099046D01*
X223324189Y-139051427D01*
X223467046Y-139051427D01*
X223562284Y-139099046D01*
X223609903Y-139146665D01*
X223657522Y-139241903D01*
X223657522Y-139622856D01*
X223228951Y-138670475D02*
X223181332Y-138622856D01*
X223133713Y-138527618D01*
X223133713Y-138289522D01*
X223181332Y-138194284D01*
X223228951Y-138146665D01*
X223324189Y-138099046D01*
X223419427Y-138099046D01*
X223562284Y-138146665D01*
X224133713Y-138718094D01*
X224133713Y-138099046D01*
X223133713Y-137241903D02*
X223133713Y-137432380D01*
X223181332Y-137527618D01*
X223228951Y-137575237D01*
X223371808Y-137670475D01*
X223562284Y-137718094D01*
X223943237Y-137718094D01*
X224038475Y-137670475D01*
X224086094Y-137622856D01*
X224133713Y-137527618D01*
X224133713Y-137337141D01*
X224086094Y-137241903D01*
X224038475Y-137194284D01*
X223943237Y-137146665D01*
X223705142Y-137146665D01*
X223609903Y-137194284D01*
X223562284Y-137241903D01*
X223514665Y-137337141D01*
X223514665Y-137527618D01*
X223562284Y-137622856D01*
X223609903Y-137670475D01*
X223705142Y-137718094D01*
D12*
X220630713Y-148064284D02*
X220630713Y-148635713D01*
X220630713Y-148349999D02*
X219630713Y-148349999D01*
X219773570Y-148445237D01*
X219868808Y-148540475D01*
X219916427Y-148635713D01*
D13*
X100440065Y-148440712D02*
X101154351Y-148440712D01*
X101297208Y-148488332D01*
X101392446Y-148583570D01*
X101440065Y-148726427D01*
X101440065Y-148821665D01*
X100535303Y-148012141D02*
X100487684Y-147964522D01*
X100440065Y-147869284D01*
X100440065Y-147631188D01*
X100487684Y-147535950D01*
X100535303Y-147488331D01*
X100630541Y-147440712D01*
X100725779Y-147440712D01*
X100868636Y-147488331D01*
X101440065Y-148059760D01*
X101440065Y-147440712D01*
X100440065Y-146535950D02*
X100440065Y-147012141D01*
X100916255Y-147059760D01*
X100868636Y-147012141D01*
X100821017Y-146916903D01*
X100821017Y-146678807D01*
X100868636Y-146583569D01*
X100916255Y-146535950D01*
X101011494Y-146488331D01*
X101249589Y-146488331D01*
X101344827Y-146535950D01*
X101392446Y-146583569D01*
X101440065Y-146678807D01*
X101440065Y-146916903D01*
X101392446Y-147012141D01*
X101344827Y-147059760D01*
X101558065Y-141765713D02*
X100558065Y-141765713D01*
X100558065Y-141384760D01*
X100605684Y-141289522D01*
X100653303Y-141241903D01*
X100748541Y-141194284D01*
X100891398Y-141194284D01*
X100986636Y-141241903D01*
X101034255Y-141289522D01*
X101081874Y-141384760D01*
X101081874Y-141765713D01*
X100558065Y-140860951D02*
X101558065Y-140622856D01*
X100843779Y-140432379D01*
X101558065Y-140241903D01*
X100558065Y-140003808D01*
X101558065Y-139051427D02*
X101081874Y-139384761D01*
X101558065Y-139622856D02*
X100558065Y-139622856D01*
X100558065Y-139241903D01*
X100605684Y-139146665D01*
X100653303Y-139099046D01*
X100748541Y-139051427D01*
X100891398Y-139051427D01*
X100986636Y-139099046D01*
X101034255Y-139146665D01*
X101081874Y-139241903D01*
X101081874Y-139622856D01*
X101558065Y-138099046D02*
X101558065Y-138670475D01*
X101558065Y-138384761D02*
X100558065Y-138384761D01*
X100700922Y-138479999D01*
X100796160Y-138575237D01*
X100843779Y-138670475D01*
X101558065Y-137622856D02*
X101558065Y-137432380D01*
X101510446Y-137337141D01*
X101462827Y-137289522D01*
X101319970Y-137194284D01*
X101129494Y-137146665D01*
X100748541Y-137146665D01*
X100653303Y-137194284D01*
X100605684Y-137241903D01*
X100558065Y-137337141D01*
X100558065Y-137527618D01*
X100605684Y-137622856D01*
X100653303Y-137670475D01*
X100748541Y-137718094D01*
X100986636Y-137718094D01*
X101081874Y-137670475D01*
X101129494Y-137622856D01*
X101177113Y-137527618D01*
X101177113Y-137337141D01*
X101129494Y-137241903D01*
X101081874Y-137194284D01*
X100986636Y-137146665D01*
D12*
X98055065Y-148064284D02*
X98055065Y-148635713D01*
X98055065Y-148349999D02*
X97055065Y-148349999D01*
X97197922Y-148445237D01*
X97293160Y-148540475D01*
X97340779Y-148635713D01*
D13*
X222840713Y-117380714D02*
X223554999Y-117380714D01*
X223697856Y-117428334D01*
X223793094Y-117523572D01*
X223840713Y-117666429D01*
X223840713Y-117761667D01*
X222935951Y-116952143D02*
X222888332Y-116904524D01*
X222840713Y-116809286D01*
X222840713Y-116571190D01*
X222888332Y-116475952D01*
X222935951Y-116428333D01*
X223031189Y-116380714D01*
X223126427Y-116380714D01*
X223269284Y-116428333D01*
X223840713Y-116999762D01*
X223840713Y-116380714D01*
X223174046Y-115523571D02*
X223840713Y-115523571D01*
X222793094Y-115761667D02*
X223507380Y-115999762D01*
X223507380Y-115380714D01*
X223958713Y-110705715D02*
X222958713Y-110705715D01*
X222958713Y-110324762D01*
X223006332Y-110229524D01*
X223053951Y-110181905D01*
X223149189Y-110134286D01*
X223292046Y-110134286D01*
X223387284Y-110181905D01*
X223434903Y-110229524D01*
X223482522Y-110324762D01*
X223482522Y-110705715D01*
X222958713Y-109800953D02*
X223958713Y-109562858D01*
X223244427Y-109372381D01*
X223958713Y-109181905D01*
X222958713Y-108943810D01*
X223958713Y-107991429D02*
X223482522Y-108324763D01*
X223958713Y-108562858D02*
X222958713Y-108562858D01*
X222958713Y-108181905D01*
X223006332Y-108086667D01*
X223053951Y-108039048D01*
X223149189Y-107991429D01*
X223292046Y-107991429D01*
X223387284Y-108039048D01*
X223434903Y-108086667D01*
X223482522Y-108181905D01*
X223482522Y-108562858D01*
X223958713Y-107039048D02*
X223958713Y-107610477D01*
X223958713Y-107324763D02*
X222958713Y-107324763D01*
X223101570Y-107420001D01*
X223196808Y-107515239D01*
X223244427Y-107610477D01*
X223053951Y-106658096D02*
X223006332Y-106610477D01*
X222958713Y-106515239D01*
X222958713Y-106277143D01*
X223006332Y-106181905D01*
X223053951Y-106134286D01*
X223149189Y-106086667D01*
X223244427Y-106086667D01*
X223387284Y-106134286D01*
X223958713Y-106705715D01*
X223958713Y-106086667D01*
D12*
X220455713Y-117004286D02*
X220455713Y-117575715D01*
X220455713Y-117290001D02*
X219455713Y-117290001D01*
X219598570Y-117385239D01*
X219693808Y-117480477D01*
X219741427Y-117575715D01*
D13*
X100440065Y-117380714D02*
X101154351Y-117380714D01*
X101297208Y-117428334D01*
X101392446Y-117523572D01*
X101440065Y-117666429D01*
X101440065Y-117761667D01*
X100535303Y-116952143D02*
X100487684Y-116904524D01*
X100440065Y-116809286D01*
X100440065Y-116571190D01*
X100487684Y-116475952D01*
X100535303Y-116428333D01*
X100630541Y-116380714D01*
X100725779Y-116380714D01*
X100868636Y-116428333D01*
X101440065Y-116999762D01*
X101440065Y-116380714D01*
X100440065Y-116047381D02*
X100440065Y-115428333D01*
X100821017Y-115761667D01*
X100821017Y-115618809D01*
X100868636Y-115523571D01*
X100916255Y-115475952D01*
X101011494Y-115428333D01*
X101249589Y-115428333D01*
X101344827Y-115475952D01*
X101392446Y-115523571D01*
X101440065Y-115618809D01*
X101440065Y-115904524D01*
X101392446Y-115999762D01*
X101344827Y-116047381D01*
X101558065Y-110229525D02*
X100558065Y-110229525D01*
X100558065Y-109848572D01*
X100605684Y-109753334D01*
X100653303Y-109705715D01*
X100748541Y-109658096D01*
X100891398Y-109658096D01*
X100986636Y-109705715D01*
X101034255Y-109753334D01*
X101081874Y-109848572D01*
X101081874Y-110229525D01*
X100558065Y-109324763D02*
X101558065Y-109086668D01*
X100843779Y-108896191D01*
X101558065Y-108705715D01*
X100558065Y-108467620D01*
X101558065Y-107515239D02*
X101081874Y-107848573D01*
X101558065Y-108086668D02*
X100558065Y-108086668D01*
X100558065Y-107705715D01*
X100605684Y-107610477D01*
X100653303Y-107562858D01*
X100748541Y-107515239D01*
X100891398Y-107515239D01*
X100986636Y-107562858D01*
X101034255Y-107610477D01*
X101081874Y-107705715D01*
X101081874Y-108086668D01*
X100558065Y-106610477D02*
X100558065Y-107086668D01*
X101034255Y-107134287D01*
X100986636Y-107086668D01*
X100939017Y-106991430D01*
X100939017Y-106753334D01*
X100986636Y-106658096D01*
X101034255Y-106610477D01*
X101129494Y-106562858D01*
X101367589Y-106562858D01*
X101462827Y-106610477D01*
X101510446Y-106658096D01*
X101558065Y-106753334D01*
X101558065Y-106991430D01*
X101510446Y-107086668D01*
X101462827Y-107134287D01*
D12*
X98055065Y-117004286D02*
X98055065Y-117575715D01*
X98055065Y-117290001D02*
X97055065Y-117290001D01*
X97197922Y-117385239D01*
X97293160Y-117480477D01*
X97340779Y-117575715D01*
D13*
X210194880Y-148440712D02*
X210909166Y-148440712D01*
X211052023Y-148488332D01*
X211147261Y-148583570D01*
X211194880Y-148726427D01*
X211194880Y-148821665D01*
X210290118Y-148012141D02*
X210242499Y-147964522D01*
X210194880Y-147869284D01*
X210194880Y-147631188D01*
X210242499Y-147535950D01*
X210290118Y-147488331D01*
X210385356Y-147440712D01*
X210480594Y-147440712D01*
X210623451Y-147488331D01*
X211194880Y-148059760D01*
X211194880Y-147440712D01*
X210290118Y-147059760D02*
X210242499Y-147012141D01*
X210194880Y-146916903D01*
X210194880Y-146678807D01*
X210242499Y-146583569D01*
X210290118Y-146535950D01*
X210385356Y-146488331D01*
X210480594Y-146488331D01*
X210623451Y-146535950D01*
X211194880Y-147107379D01*
X211194880Y-146488331D01*
X211312880Y-141765713D02*
X210312880Y-141765713D01*
X210312880Y-141384760D01*
X210360499Y-141289522D01*
X210408118Y-141241903D01*
X210503356Y-141194284D01*
X210646213Y-141194284D01*
X210741451Y-141241903D01*
X210789070Y-141289522D01*
X210836689Y-141384760D01*
X210836689Y-141765713D01*
X210312880Y-140860951D02*
X211312880Y-140622856D01*
X210598594Y-140432379D01*
X211312880Y-140241903D01*
X210312880Y-140003808D01*
X211312880Y-139051427D02*
X210836689Y-139384761D01*
X211312880Y-139622856D02*
X210312880Y-139622856D01*
X210312880Y-139241903D01*
X210360499Y-139146665D01*
X210408118Y-139099046D01*
X210503356Y-139051427D01*
X210646213Y-139051427D01*
X210741451Y-139099046D01*
X210789070Y-139146665D01*
X210836689Y-139241903D01*
X210836689Y-139622856D01*
X210408118Y-138670475D02*
X210360499Y-138622856D01*
X210312880Y-138527618D01*
X210312880Y-138289522D01*
X210360499Y-138194284D01*
X210408118Y-138146665D01*
X210503356Y-138099046D01*
X210598594Y-138099046D01*
X210741451Y-138146665D01*
X211312880Y-138718094D01*
X211312880Y-138099046D01*
X210312880Y-137194284D02*
X210312880Y-137670475D01*
X210789070Y-137718094D01*
X210741451Y-137670475D01*
X210693832Y-137575237D01*
X210693832Y-137337141D01*
X210741451Y-137241903D01*
X210789070Y-137194284D01*
X210884309Y-137146665D01*
X211122404Y-137146665D01*
X211217642Y-137194284D01*
X211265261Y-137241903D01*
X211312880Y-137337141D01*
X211312880Y-137575237D01*
X211265261Y-137670475D01*
X211217642Y-137718094D01*
D12*
X207809880Y-148064284D02*
X207809880Y-148635713D01*
X207809880Y-148349999D02*
X206809880Y-148349999D01*
X206952737Y-148445237D01*
X207047975Y-148540475D01*
X207095594Y-148635713D01*
D13*
X87593913Y-148440712D02*
X88308199Y-148440712D01*
X88451056Y-148488332D01*
X88546294Y-148583570D01*
X88593913Y-148726427D01*
X88593913Y-148821665D01*
X87689151Y-148012141D02*
X87641532Y-147964522D01*
X87593913Y-147869284D01*
X87593913Y-147631188D01*
X87641532Y-147535950D01*
X87689151Y-147488331D01*
X87784389Y-147440712D01*
X87879627Y-147440712D01*
X88022484Y-147488331D01*
X88593913Y-148059760D01*
X88593913Y-147440712D01*
X88593913Y-146488331D02*
X88593913Y-147059760D01*
X88593913Y-146774046D02*
X87593913Y-146774046D01*
X87736770Y-146869284D01*
X87832008Y-146964522D01*
X87879627Y-147059760D01*
X88711913Y-141765713D02*
X87711913Y-141765713D01*
X87711913Y-141384760D01*
X87759532Y-141289522D01*
X87807151Y-141241903D01*
X87902389Y-141194284D01*
X88045246Y-141194284D01*
X88140484Y-141241903D01*
X88188103Y-141289522D01*
X88235722Y-141384760D01*
X88235722Y-141765713D01*
X87711913Y-140860951D02*
X88711913Y-140622856D01*
X87997627Y-140432379D01*
X88711913Y-140241903D01*
X87711913Y-140003808D01*
X88711913Y-139051427D02*
X88235722Y-139384761D01*
X88711913Y-139622856D02*
X87711913Y-139622856D01*
X87711913Y-139241903D01*
X87759532Y-139146665D01*
X87807151Y-139099046D01*
X87902389Y-139051427D01*
X88045246Y-139051427D01*
X88140484Y-139099046D01*
X88188103Y-139146665D01*
X88235722Y-139241903D01*
X88235722Y-139622856D01*
X88711913Y-138099046D02*
X88711913Y-138670475D01*
X88711913Y-138384761D02*
X87711913Y-138384761D01*
X87854770Y-138479999D01*
X87950008Y-138575237D01*
X87997627Y-138670475D01*
X88140484Y-137527618D02*
X88092865Y-137622856D01*
X88045246Y-137670475D01*
X87950008Y-137718094D01*
X87902389Y-137718094D01*
X87807151Y-137670475D01*
X87759532Y-137622856D01*
X87711913Y-137527618D01*
X87711913Y-137337141D01*
X87759532Y-137241903D01*
X87807151Y-137194284D01*
X87902389Y-137146665D01*
X87950008Y-137146665D01*
X88045246Y-137194284D01*
X88092865Y-137241903D01*
X88140484Y-137337141D01*
X88140484Y-137527618D01*
X88188103Y-137622856D01*
X88235722Y-137670475D01*
X88330961Y-137718094D01*
X88521437Y-137718094D01*
X88616675Y-137670475D01*
X88664294Y-137622856D01*
X88711913Y-137527618D01*
X88711913Y-137337141D01*
X88664294Y-137241903D01*
X88616675Y-137194284D01*
X88521437Y-137146665D01*
X88330961Y-137146665D01*
X88235722Y-137194284D01*
X88188103Y-137241903D01*
X88140484Y-137337141D01*
D12*
X85208913Y-148064284D02*
X85208913Y-148635713D01*
X85208913Y-148349999D02*
X84208913Y-148349999D01*
X84351770Y-148445237D01*
X84447008Y-148540475D01*
X84494627Y-148635713D01*
D13*
X210057380Y-117380714D02*
X210771666Y-117380714D01*
X210914523Y-117428334D01*
X211009761Y-117523572D01*
X211057380Y-117666429D01*
X211057380Y-117761667D01*
X210152618Y-116952143D02*
X210104999Y-116904524D01*
X210057380Y-116809286D01*
X210057380Y-116571190D01*
X210104999Y-116475952D01*
X210152618Y-116428333D01*
X210247856Y-116380714D01*
X210343094Y-116380714D01*
X210485951Y-116428333D01*
X211057380Y-116999762D01*
X211057380Y-116380714D01*
X210057380Y-115761667D02*
X210057380Y-115666428D01*
X210104999Y-115571190D01*
X210152618Y-115523571D01*
X210247856Y-115475952D01*
X210438332Y-115428333D01*
X210676428Y-115428333D01*
X210866904Y-115475952D01*
X210962142Y-115523571D01*
X211009761Y-115571190D01*
X211057380Y-115666428D01*
X211057380Y-115761667D01*
X211009761Y-115856905D01*
X210962142Y-115904524D01*
X210866904Y-115952143D01*
X210676428Y-115999762D01*
X210438332Y-115999762D01*
X210247856Y-115952143D01*
X210152618Y-115904524D01*
X210104999Y-115856905D01*
X210057380Y-115761667D01*
X211175380Y-110705715D02*
X210175380Y-110705715D01*
X210175380Y-110324762D01*
X210222999Y-110229524D01*
X210270618Y-110181905D01*
X210365856Y-110134286D01*
X210508713Y-110134286D01*
X210603951Y-110181905D01*
X210651570Y-110229524D01*
X210699189Y-110324762D01*
X210699189Y-110705715D01*
X210175380Y-109800953D02*
X211175380Y-109562858D01*
X210461094Y-109372381D01*
X211175380Y-109181905D01*
X210175380Y-108943810D01*
X211175380Y-107991429D02*
X210699189Y-108324763D01*
X211175380Y-108562858D02*
X210175380Y-108562858D01*
X210175380Y-108181905D01*
X210222999Y-108086667D01*
X210270618Y-108039048D01*
X210365856Y-107991429D01*
X210508713Y-107991429D01*
X210603951Y-108039048D01*
X210651570Y-108086667D01*
X210699189Y-108181905D01*
X210699189Y-108562858D01*
X211175380Y-107039048D02*
X211175380Y-107610477D01*
X211175380Y-107324763D02*
X210175380Y-107324763D01*
X210318237Y-107420001D01*
X210413475Y-107515239D01*
X210461094Y-107610477D01*
X211175380Y-106086667D02*
X211175380Y-106658096D01*
X211175380Y-106372382D02*
X210175380Y-106372382D01*
X210318237Y-106467620D01*
X210413475Y-106562858D01*
X210461094Y-106658096D01*
D12*
X207672380Y-117004286D02*
X207672380Y-117575715D01*
X207672380Y-117290001D02*
X206672380Y-117290001D01*
X206815237Y-117385239D01*
X206910475Y-117480477D01*
X206958094Y-117575715D01*
D13*
X87593913Y-117380714D02*
X88308199Y-117380714D01*
X88451056Y-117428334D01*
X88546294Y-117523572D01*
X88593913Y-117666429D01*
X88593913Y-117761667D01*
X88593913Y-116380714D02*
X88593913Y-116952143D01*
X88593913Y-116666429D02*
X87593913Y-116666429D01*
X87736770Y-116761667D01*
X87832008Y-116856905D01*
X87879627Y-116952143D01*
X88593913Y-115904524D02*
X88593913Y-115714048D01*
X88546294Y-115618809D01*
X88498675Y-115571190D01*
X88355818Y-115475952D01*
X88165342Y-115428333D01*
X87784389Y-115428333D01*
X87689151Y-115475952D01*
X87641532Y-115523571D01*
X87593913Y-115618809D01*
X87593913Y-115809286D01*
X87641532Y-115904524D01*
X87689151Y-115952143D01*
X87784389Y-115999762D01*
X88022484Y-115999762D01*
X88117722Y-115952143D01*
X88165342Y-115904524D01*
X88212961Y-115809286D01*
X88212961Y-115618809D01*
X88165342Y-115523571D01*
X88117722Y-115475952D01*
X88022484Y-115428333D01*
X88711913Y-110229525D02*
X87711913Y-110229525D01*
X87711913Y-109848572D01*
X87759532Y-109753334D01*
X87807151Y-109705715D01*
X87902389Y-109658096D01*
X88045246Y-109658096D01*
X88140484Y-109705715D01*
X88188103Y-109753334D01*
X88235722Y-109848572D01*
X88235722Y-110229525D01*
X87711913Y-109324763D02*
X88711913Y-109086668D01*
X87997627Y-108896191D01*
X88711913Y-108705715D01*
X87711913Y-108467620D01*
X88711913Y-107515239D02*
X88235722Y-107848573D01*
X88711913Y-108086668D02*
X87711913Y-108086668D01*
X87711913Y-107705715D01*
X87759532Y-107610477D01*
X87807151Y-107562858D01*
X87902389Y-107515239D01*
X88045246Y-107515239D01*
X88140484Y-107562858D01*
X88188103Y-107610477D01*
X88235722Y-107705715D01*
X88235722Y-108086668D01*
X88045246Y-106658096D02*
X88711913Y-106658096D01*
X87664294Y-106896192D02*
X88378580Y-107134287D01*
X88378580Y-106515239D01*
D12*
X85208913Y-117004286D02*
X85208913Y-117575715D01*
X85208913Y-117290001D02*
X84208913Y-117290001D01*
X84351770Y-117385239D01*
X84447008Y-117480477D01*
X84494627Y-117575715D01*
D13*
X197349047Y-148440712D02*
X198063333Y-148440712D01*
X198206190Y-148488332D01*
X198301428Y-148583570D01*
X198349047Y-148726427D01*
X198349047Y-148821665D01*
X198349047Y-147440712D02*
X198349047Y-148012141D01*
X198349047Y-147726427D02*
X197349047Y-147726427D01*
X197491904Y-147821665D01*
X197587142Y-147916903D01*
X197634761Y-148012141D01*
X197777618Y-146869284D02*
X197729999Y-146964522D01*
X197682380Y-147012141D01*
X197587142Y-147059760D01*
X197539523Y-147059760D01*
X197444285Y-147012141D01*
X197396666Y-146964522D01*
X197349047Y-146869284D01*
X197349047Y-146678807D01*
X197396666Y-146583569D01*
X197444285Y-146535950D01*
X197539523Y-146488331D01*
X197587142Y-146488331D01*
X197682380Y-146535950D01*
X197729999Y-146583569D01*
X197777618Y-146678807D01*
X197777618Y-146869284D01*
X197825237Y-146964522D01*
X197872856Y-147012141D01*
X197968095Y-147059760D01*
X198158571Y-147059760D01*
X198253809Y-147012141D01*
X198301428Y-146964522D01*
X198349047Y-146869284D01*
X198349047Y-146678807D01*
X198301428Y-146583569D01*
X198253809Y-146535950D01*
X198158571Y-146488331D01*
X197968095Y-146488331D01*
X197872856Y-146535950D01*
X197825237Y-146583569D01*
X197777618Y-146678807D01*
X198467047Y-141765713D02*
X197467047Y-141765713D01*
X197467047Y-141384760D01*
X197514666Y-141289522D01*
X197562285Y-141241903D01*
X197657523Y-141194284D01*
X197800380Y-141194284D01*
X197895618Y-141241903D01*
X197943237Y-141289522D01*
X197990856Y-141384760D01*
X197990856Y-141765713D01*
X197467047Y-140860951D02*
X198467047Y-140622856D01*
X197752761Y-140432379D01*
X198467047Y-140241903D01*
X197467047Y-140003808D01*
X198467047Y-139051427D02*
X197990856Y-139384761D01*
X198467047Y-139622856D02*
X197467047Y-139622856D01*
X197467047Y-139241903D01*
X197514666Y-139146665D01*
X197562285Y-139099046D01*
X197657523Y-139051427D01*
X197800380Y-139051427D01*
X197895618Y-139099046D01*
X197943237Y-139146665D01*
X197990856Y-139241903D01*
X197990856Y-139622856D01*
X197562285Y-138670475D02*
X197514666Y-138622856D01*
X197467047Y-138527618D01*
X197467047Y-138289522D01*
X197514666Y-138194284D01*
X197562285Y-138146665D01*
X197657523Y-138099046D01*
X197752761Y-138099046D01*
X197895618Y-138146665D01*
X198467047Y-138718094D01*
X198467047Y-138099046D01*
X197800380Y-137241903D02*
X198467047Y-137241903D01*
X197419428Y-137479999D02*
X198133714Y-137718094D01*
X198133714Y-137099046D01*
D12*
X194964047Y-148064284D02*
X194964047Y-148635713D01*
X194964047Y-148349999D02*
X193964047Y-148349999D01*
X194106904Y-148445237D01*
X194202142Y-148540475D01*
X194249761Y-148635713D01*
D13*
X74747761Y-148440712D02*
X75462047Y-148440712D01*
X75604904Y-148488332D01*
X75700142Y-148583570D01*
X75747761Y-148726427D01*
X75747761Y-148821665D01*
X75747761Y-147440712D02*
X75747761Y-148012141D01*
X75747761Y-147726427D02*
X74747761Y-147726427D01*
X74890618Y-147821665D01*
X74985856Y-147916903D01*
X75033475Y-148012141D01*
X74747761Y-147107379D02*
X74747761Y-146440712D01*
X75747761Y-146869284D01*
X75865761Y-141765713D02*
X74865761Y-141765713D01*
X74865761Y-141384760D01*
X74913380Y-141289522D01*
X74960999Y-141241903D01*
X75056237Y-141194284D01*
X75199094Y-141194284D01*
X75294332Y-141241903D01*
X75341951Y-141289522D01*
X75389570Y-141384760D01*
X75389570Y-141765713D01*
X74865761Y-140860951D02*
X75865761Y-140622856D01*
X75151475Y-140432379D01*
X75865761Y-140241903D01*
X74865761Y-140003808D01*
X75865761Y-139051427D02*
X75389570Y-139384761D01*
X75865761Y-139622856D02*
X74865761Y-139622856D01*
X74865761Y-139241903D01*
X74913380Y-139146665D01*
X74960999Y-139099046D01*
X75056237Y-139051427D01*
X75199094Y-139051427D01*
X75294332Y-139099046D01*
X75341951Y-139146665D01*
X75389570Y-139241903D01*
X75389570Y-139622856D01*
X75865761Y-138099046D02*
X75865761Y-138670475D01*
X75865761Y-138384761D02*
X74865761Y-138384761D01*
X75008618Y-138479999D01*
X75103856Y-138575237D01*
X75151475Y-138670475D01*
X74865761Y-137765713D02*
X74865761Y-137099046D01*
X75865761Y-137527618D01*
D12*
X72362761Y-148064284D02*
X72362761Y-148635713D01*
X72362761Y-148349999D02*
X71362761Y-148349999D01*
X71505618Y-148445237D01*
X71600856Y-148540475D01*
X71648475Y-148635713D01*
D13*
X197249047Y-117380714D02*
X197963333Y-117380714D01*
X198106190Y-117428334D01*
X198201428Y-117523572D01*
X198249047Y-117666429D01*
X198249047Y-117761667D01*
X198249047Y-116380714D02*
X198249047Y-116952143D01*
X198249047Y-116666429D02*
X197249047Y-116666429D01*
X197391904Y-116761667D01*
X197487142Y-116856905D01*
X197534761Y-116952143D01*
X197249047Y-115523571D02*
X197249047Y-115714048D01*
X197296666Y-115809286D01*
X197344285Y-115856905D01*
X197487142Y-115952143D01*
X197677618Y-115999762D01*
X198058571Y-115999762D01*
X198153809Y-115952143D01*
X198201428Y-115904524D01*
X198249047Y-115809286D01*
X198249047Y-115618809D01*
X198201428Y-115523571D01*
X198153809Y-115475952D01*
X198058571Y-115428333D01*
X197820476Y-115428333D01*
X197725237Y-115475952D01*
X197677618Y-115523571D01*
X197629999Y-115618809D01*
X197629999Y-115809286D01*
X197677618Y-115904524D01*
X197725237Y-115952143D01*
X197820476Y-115999762D01*
X198367047Y-110705715D02*
X197367047Y-110705715D01*
X197367047Y-110324762D01*
X197414666Y-110229524D01*
X197462285Y-110181905D01*
X197557523Y-110134286D01*
X197700380Y-110134286D01*
X197795618Y-110181905D01*
X197843237Y-110229524D01*
X197890856Y-110324762D01*
X197890856Y-110705715D01*
X197367047Y-109800953D02*
X198367047Y-109562858D01*
X197652761Y-109372381D01*
X198367047Y-109181905D01*
X197367047Y-108943810D01*
X198367047Y-107991429D02*
X197890856Y-108324763D01*
X198367047Y-108562858D02*
X197367047Y-108562858D01*
X197367047Y-108181905D01*
X197414666Y-108086667D01*
X197462285Y-108039048D01*
X197557523Y-107991429D01*
X197700380Y-107991429D01*
X197795618Y-108039048D01*
X197843237Y-108086667D01*
X197890856Y-108181905D01*
X197890856Y-108562858D01*
X198367047Y-107039048D02*
X198367047Y-107610477D01*
X198367047Y-107324763D02*
X197367047Y-107324763D01*
X197509904Y-107420001D01*
X197605142Y-107515239D01*
X197652761Y-107610477D01*
X197367047Y-106420001D02*
X197367047Y-106324762D01*
X197414666Y-106229524D01*
X197462285Y-106181905D01*
X197557523Y-106134286D01*
X197747999Y-106086667D01*
X197986095Y-106086667D01*
X198176571Y-106134286D01*
X198271809Y-106181905D01*
X198319428Y-106229524D01*
X198367047Y-106324762D01*
X198367047Y-106420001D01*
X198319428Y-106515239D01*
X198271809Y-106562858D01*
X198176571Y-106610477D01*
X197986095Y-106658096D01*
X197747999Y-106658096D01*
X197557523Y-106610477D01*
X197462285Y-106562858D01*
X197414666Y-106515239D01*
X197367047Y-106420001D01*
D12*
X194864047Y-117004286D02*
X194864047Y-117575715D01*
X194864047Y-117290001D02*
X193864047Y-117290001D01*
X194006904Y-117385239D01*
X194102142Y-117480477D01*
X194149761Y-117575715D01*
D13*
X74747761Y-117380714D02*
X75462047Y-117380714D01*
X75604904Y-117428334D01*
X75700142Y-117523572D01*
X75747761Y-117666429D01*
X75747761Y-117761667D01*
X75747761Y-116380714D02*
X75747761Y-116952143D01*
X75747761Y-116666429D02*
X74747761Y-116666429D01*
X74890618Y-116761667D01*
X74985856Y-116856905D01*
X75033475Y-116952143D01*
X74747761Y-115475952D02*
X74747761Y-115952143D01*
X75223951Y-115999762D01*
X75176332Y-115952143D01*
X75128713Y-115856905D01*
X75128713Y-115618809D01*
X75176332Y-115523571D01*
X75223951Y-115475952D01*
X75319190Y-115428333D01*
X75557285Y-115428333D01*
X75652523Y-115475952D01*
X75700142Y-115523571D01*
X75747761Y-115618809D01*
X75747761Y-115856905D01*
X75700142Y-115952143D01*
X75652523Y-115999762D01*
X75865761Y-110229525D02*
X74865761Y-110229525D01*
X74865761Y-109848572D01*
X74913380Y-109753334D01*
X74960999Y-109705715D01*
X75056237Y-109658096D01*
X75199094Y-109658096D01*
X75294332Y-109705715D01*
X75341951Y-109753334D01*
X75389570Y-109848572D01*
X75389570Y-110229525D01*
X74865761Y-109324763D02*
X75865761Y-109086668D01*
X75151475Y-108896191D01*
X75865761Y-108705715D01*
X74865761Y-108467620D01*
X75865761Y-107515239D02*
X75389570Y-107848573D01*
X75865761Y-108086668D02*
X74865761Y-108086668D01*
X74865761Y-107705715D01*
X74913380Y-107610477D01*
X74960999Y-107562858D01*
X75056237Y-107515239D01*
X75199094Y-107515239D01*
X75294332Y-107562858D01*
X75341951Y-107610477D01*
X75389570Y-107705715D01*
X75389570Y-108086668D01*
X74865761Y-107181906D02*
X74865761Y-106562858D01*
X75246713Y-106896192D01*
X75246713Y-106753334D01*
X75294332Y-106658096D01*
X75341951Y-106610477D01*
X75437190Y-106562858D01*
X75675285Y-106562858D01*
X75770523Y-106610477D01*
X75818142Y-106658096D01*
X75865761Y-106753334D01*
X75865761Y-107039049D01*
X75818142Y-107134287D01*
X75770523Y-107181906D01*
D12*
X72362761Y-117004286D02*
X72362761Y-117575715D01*
X72362761Y-117290001D02*
X71362761Y-117290001D01*
X71505618Y-117385239D01*
X71600856Y-117480477D01*
X71648475Y-117575715D01*
D13*
X184503214Y-148440712D02*
X185217500Y-148440712D01*
X185360357Y-148488332D01*
X185455595Y-148583570D01*
X185503214Y-148726427D01*
X185503214Y-148821665D01*
X185503214Y-147440712D02*
X185503214Y-148012141D01*
X185503214Y-147726427D02*
X184503214Y-147726427D01*
X184646071Y-147821665D01*
X184741309Y-147916903D01*
X184788928Y-148012141D01*
X184836547Y-146583569D02*
X185503214Y-146583569D01*
X184455595Y-146821665D02*
X185169881Y-147059760D01*
X185169881Y-146440712D01*
X185621214Y-141765713D02*
X184621214Y-141765713D01*
X184621214Y-141384760D01*
X184668833Y-141289522D01*
X184716452Y-141241903D01*
X184811690Y-141194284D01*
X184954547Y-141194284D01*
X185049785Y-141241903D01*
X185097404Y-141289522D01*
X185145023Y-141384760D01*
X185145023Y-141765713D01*
X184621214Y-140860951D02*
X185621214Y-140622856D01*
X184906928Y-140432379D01*
X185621214Y-140241903D01*
X184621214Y-140003808D01*
X185621214Y-139051427D02*
X185145023Y-139384761D01*
X185621214Y-139622856D02*
X184621214Y-139622856D01*
X184621214Y-139241903D01*
X184668833Y-139146665D01*
X184716452Y-139099046D01*
X184811690Y-139051427D01*
X184954547Y-139051427D01*
X185049785Y-139099046D01*
X185097404Y-139146665D01*
X185145023Y-139241903D01*
X185145023Y-139622856D01*
X184716452Y-138670475D02*
X184668833Y-138622856D01*
X184621214Y-138527618D01*
X184621214Y-138289522D01*
X184668833Y-138194284D01*
X184716452Y-138146665D01*
X184811690Y-138099046D01*
X184906928Y-138099046D01*
X185049785Y-138146665D01*
X185621214Y-138718094D01*
X185621214Y-138099046D01*
X184621214Y-137765713D02*
X184621214Y-137146665D01*
X185002166Y-137479999D01*
X185002166Y-137337141D01*
X185049785Y-137241903D01*
X185097404Y-137194284D01*
X185192643Y-137146665D01*
X185430738Y-137146665D01*
X185525976Y-137194284D01*
X185573595Y-137241903D01*
X185621214Y-137337141D01*
X185621214Y-137622856D01*
X185573595Y-137718094D01*
X185525976Y-137765713D01*
D12*
X182118214Y-148064284D02*
X182118214Y-148635713D01*
X182118214Y-148349999D02*
X181118214Y-148349999D01*
X181261071Y-148445237D01*
X181356309Y-148540475D01*
X181403928Y-148635713D01*
D13*
X61901609Y-148440712D02*
X62615895Y-148440712D01*
X62758752Y-148488332D01*
X62853990Y-148583570D01*
X62901609Y-148726427D01*
X62901609Y-148821665D01*
X62901609Y-147440712D02*
X62901609Y-148012141D01*
X62901609Y-147726427D02*
X61901609Y-147726427D01*
X62044466Y-147821665D01*
X62139704Y-147916903D01*
X62187323Y-148012141D01*
X61901609Y-147107379D02*
X61901609Y-146488331D01*
X62282561Y-146821665D01*
X62282561Y-146678807D01*
X62330180Y-146583569D01*
X62377799Y-146535950D01*
X62473038Y-146488331D01*
X62711133Y-146488331D01*
X62806371Y-146535950D01*
X62853990Y-146583569D01*
X62901609Y-146678807D01*
X62901609Y-146964522D01*
X62853990Y-147059760D01*
X62806371Y-147107379D01*
X63019609Y-141765713D02*
X62019609Y-141765713D01*
X62019609Y-141384760D01*
X62067228Y-141289522D01*
X62114847Y-141241903D01*
X62210085Y-141194284D01*
X62352942Y-141194284D01*
X62448180Y-141241903D01*
X62495799Y-141289522D01*
X62543418Y-141384760D01*
X62543418Y-141765713D01*
X62019609Y-140860951D02*
X63019609Y-140622856D01*
X62305323Y-140432379D01*
X63019609Y-140241903D01*
X62019609Y-140003808D01*
X63019609Y-139051427D02*
X62543418Y-139384761D01*
X63019609Y-139622856D02*
X62019609Y-139622856D01*
X62019609Y-139241903D01*
X62067228Y-139146665D01*
X62114847Y-139099046D01*
X62210085Y-139051427D01*
X62352942Y-139051427D01*
X62448180Y-139099046D01*
X62495799Y-139146665D01*
X62543418Y-139241903D01*
X62543418Y-139622856D01*
X63019609Y-138099046D02*
X63019609Y-138670475D01*
X63019609Y-138384761D02*
X62019609Y-138384761D01*
X62162466Y-138479999D01*
X62257704Y-138575237D01*
X62305323Y-138670475D01*
X62019609Y-137241903D02*
X62019609Y-137432380D01*
X62067228Y-137527618D01*
X62114847Y-137575237D01*
X62257704Y-137670475D01*
X62448180Y-137718094D01*
X62829133Y-137718094D01*
X62924371Y-137670475D01*
X62971990Y-137622856D01*
X63019609Y-137527618D01*
X63019609Y-137337141D01*
X62971990Y-137241903D01*
X62924371Y-137194284D01*
X62829133Y-137146665D01*
X62591038Y-137146665D01*
X62495799Y-137194284D01*
X62448180Y-137241903D01*
X62400561Y-137337141D01*
X62400561Y-137527618D01*
X62448180Y-137622856D01*
X62495799Y-137670475D01*
X62591038Y-137718094D01*
D12*
X59516609Y-148064284D02*
X59516609Y-148635713D01*
X59516609Y-148349999D02*
X58516609Y-148349999D01*
X58659466Y-148445237D01*
X58754704Y-148540475D01*
X58802323Y-148635713D01*
D13*
X184440714Y-117380714D02*
X185155000Y-117380714D01*
X185297857Y-117428334D01*
X185393095Y-117523572D01*
X185440714Y-117666429D01*
X185440714Y-117761667D01*
X185440714Y-116380714D02*
X185440714Y-116952143D01*
X185440714Y-116666429D02*
X184440714Y-116666429D01*
X184583571Y-116761667D01*
X184678809Y-116856905D01*
X184726428Y-116952143D01*
X184535952Y-115999762D02*
X184488333Y-115952143D01*
X184440714Y-115856905D01*
X184440714Y-115618809D01*
X184488333Y-115523571D01*
X184535952Y-115475952D01*
X184631190Y-115428333D01*
X184726428Y-115428333D01*
X184869285Y-115475952D01*
X185440714Y-116047381D01*
X185440714Y-115428333D01*
X185558714Y-110229525D02*
X184558714Y-110229525D01*
X184558714Y-109848572D01*
X184606333Y-109753334D01*
X184653952Y-109705715D01*
X184749190Y-109658096D01*
X184892047Y-109658096D01*
X184987285Y-109705715D01*
X185034904Y-109753334D01*
X185082523Y-109848572D01*
X185082523Y-110229525D01*
X184558714Y-109324763D02*
X185558714Y-109086668D01*
X184844428Y-108896191D01*
X185558714Y-108705715D01*
X184558714Y-108467620D01*
X185558714Y-107515239D02*
X185082523Y-107848573D01*
X185558714Y-108086668D02*
X184558714Y-108086668D01*
X184558714Y-107705715D01*
X184606333Y-107610477D01*
X184653952Y-107562858D01*
X184749190Y-107515239D01*
X184892047Y-107515239D01*
X184987285Y-107562858D01*
X185034904Y-107610477D01*
X185082523Y-107705715D01*
X185082523Y-108086668D01*
X185558714Y-107039049D02*
X185558714Y-106848573D01*
X185511095Y-106753334D01*
X185463476Y-106705715D01*
X185320619Y-106610477D01*
X185130143Y-106562858D01*
X184749190Y-106562858D01*
X184653952Y-106610477D01*
X184606333Y-106658096D01*
X184558714Y-106753334D01*
X184558714Y-106943811D01*
X184606333Y-107039049D01*
X184653952Y-107086668D01*
X184749190Y-107134287D01*
X184987285Y-107134287D01*
X185082523Y-107086668D01*
X185130143Y-107039049D01*
X185177762Y-106943811D01*
X185177762Y-106753334D01*
X185130143Y-106658096D01*
X185082523Y-106610477D01*
X184987285Y-106562858D01*
D12*
X182055714Y-117004286D02*
X182055714Y-117575715D01*
X182055714Y-117290001D02*
X181055714Y-117290001D01*
X181198571Y-117385239D01*
X181293809Y-117480477D01*
X181341428Y-117575715D01*
D13*
X61901609Y-117380714D02*
X62615895Y-117380714D01*
X62758752Y-117428334D01*
X62853990Y-117523572D01*
X62901609Y-117666429D01*
X62901609Y-117761667D01*
X62901609Y-116380714D02*
X62901609Y-116952143D01*
X62901609Y-116666429D02*
X61901609Y-116666429D01*
X62044466Y-116761667D01*
X62139704Y-116856905D01*
X62187323Y-116952143D01*
X62901609Y-115428333D02*
X62901609Y-115999762D01*
X62901609Y-115714048D02*
X61901609Y-115714048D01*
X62044466Y-115809286D01*
X62139704Y-115904524D01*
X62187323Y-115999762D01*
X63019609Y-110229525D02*
X62019609Y-110229525D01*
X62019609Y-109848572D01*
X62067228Y-109753334D01*
X62114847Y-109705715D01*
X62210085Y-109658096D01*
X62352942Y-109658096D01*
X62448180Y-109705715D01*
X62495799Y-109753334D01*
X62543418Y-109848572D01*
X62543418Y-110229525D01*
X62019609Y-109324763D02*
X63019609Y-109086668D01*
X62305323Y-108896191D01*
X63019609Y-108705715D01*
X62019609Y-108467620D01*
X63019609Y-107515239D02*
X62543418Y-107848573D01*
X63019609Y-108086668D02*
X62019609Y-108086668D01*
X62019609Y-107705715D01*
X62067228Y-107610477D01*
X62114847Y-107562858D01*
X62210085Y-107515239D01*
X62352942Y-107515239D01*
X62448180Y-107562858D01*
X62495799Y-107610477D01*
X62543418Y-107705715D01*
X62543418Y-108086668D01*
X62114847Y-107134287D02*
X62067228Y-107086668D01*
X62019609Y-106991430D01*
X62019609Y-106753334D01*
X62067228Y-106658096D01*
X62114847Y-106610477D01*
X62210085Y-106562858D01*
X62305323Y-106562858D01*
X62448180Y-106610477D01*
X63019609Y-107181906D01*
X63019609Y-106562858D01*
D12*
X59516609Y-117004286D02*
X59516609Y-117575715D01*
X59516609Y-117290001D02*
X58516609Y-117290001D01*
X58659466Y-117385239D01*
X58754704Y-117480477D01*
X58802323Y-117575715D01*
D13*
X171682381Y-148440712D02*
X172396667Y-148440712D01*
X172539524Y-148488332D01*
X172634762Y-148583570D01*
X172682381Y-148726427D01*
X172682381Y-148821665D01*
X172682381Y-147440712D02*
X172682381Y-148012141D01*
X172682381Y-147726427D02*
X171682381Y-147726427D01*
X171825238Y-147821665D01*
X171920476Y-147916903D01*
X171968095Y-148012141D01*
X171682381Y-146821665D02*
X171682381Y-146726426D01*
X171730000Y-146631188D01*
X171777619Y-146583569D01*
X171872857Y-146535950D01*
X172063333Y-146488331D01*
X172301429Y-146488331D01*
X172491905Y-146535950D01*
X172587143Y-146583569D01*
X172634762Y-146631188D01*
X172682381Y-146726426D01*
X172682381Y-146821665D01*
X172634762Y-146916903D01*
X172587143Y-146964522D01*
X172491905Y-147012141D01*
X172301429Y-147059760D01*
X172063333Y-147059760D01*
X171872857Y-147012141D01*
X171777619Y-146964522D01*
X171730000Y-146916903D01*
X171682381Y-146821665D01*
X172800381Y-141765713D02*
X171800381Y-141765713D01*
X171800381Y-141384760D01*
X171848000Y-141289522D01*
X171895619Y-141241903D01*
X171990857Y-141194284D01*
X172133714Y-141194284D01*
X172228952Y-141241903D01*
X172276571Y-141289522D01*
X172324190Y-141384760D01*
X172324190Y-141765713D01*
X171800381Y-140860951D02*
X172800381Y-140622856D01*
X172086095Y-140432379D01*
X172800381Y-140241903D01*
X171800381Y-140003808D01*
X172800381Y-139051427D02*
X172324190Y-139384761D01*
X172800381Y-139622856D02*
X171800381Y-139622856D01*
X171800381Y-139241903D01*
X171848000Y-139146665D01*
X171895619Y-139099046D01*
X171990857Y-139051427D01*
X172133714Y-139051427D01*
X172228952Y-139099046D01*
X172276571Y-139146665D01*
X172324190Y-139241903D01*
X172324190Y-139622856D01*
X171895619Y-138670475D02*
X171848000Y-138622856D01*
X171800381Y-138527618D01*
X171800381Y-138289522D01*
X171848000Y-138194284D01*
X171895619Y-138146665D01*
X171990857Y-138099046D01*
X172086095Y-138099046D01*
X172228952Y-138146665D01*
X172800381Y-138718094D01*
X172800381Y-138099046D01*
X171895619Y-137718094D02*
X171848000Y-137670475D01*
X171800381Y-137575237D01*
X171800381Y-137337141D01*
X171848000Y-137241903D01*
X171895619Y-137194284D01*
X171990857Y-137146665D01*
X172086095Y-137146665D01*
X172228952Y-137194284D01*
X172800381Y-137765713D01*
X172800381Y-137146665D01*
D12*
X169297381Y-148064284D02*
X169297381Y-148635713D01*
X169297381Y-148349999D02*
X168297381Y-148349999D01*
X168440238Y-148445237D01*
X168535476Y-148540475D01*
X168583095Y-148635713D01*
D13*
X49055457Y-147964522D02*
X49769743Y-147964522D01*
X49912600Y-148012142D01*
X50007838Y-148107380D01*
X50055457Y-148250237D01*
X50055457Y-148345475D01*
X50055457Y-147440713D02*
X50055457Y-147250237D01*
X50007838Y-147154998D01*
X49960219Y-147107379D01*
X49817362Y-147012141D01*
X49626886Y-146964522D01*
X49245933Y-146964522D01*
X49150695Y-147012141D01*
X49103076Y-147059760D01*
X49055457Y-147154998D01*
X49055457Y-147345475D01*
X49103076Y-147440713D01*
X49150695Y-147488332D01*
X49245933Y-147535951D01*
X49484028Y-147535951D01*
X49579266Y-147488332D01*
X49626886Y-147440713D01*
X49674505Y-147345475D01*
X49674505Y-147154998D01*
X49626886Y-147059760D01*
X49579266Y-147012141D01*
X49484028Y-146964522D01*
X50173457Y-141765713D02*
X49173457Y-141765713D01*
X49173457Y-141384760D01*
X49221076Y-141289522D01*
X49268695Y-141241903D01*
X49363933Y-141194284D01*
X49506790Y-141194284D01*
X49602028Y-141241903D01*
X49649647Y-141289522D01*
X49697266Y-141384760D01*
X49697266Y-141765713D01*
X49173457Y-140860951D02*
X50173457Y-140622856D01*
X49459171Y-140432379D01*
X50173457Y-140241903D01*
X49173457Y-140003808D01*
X50173457Y-139051427D02*
X49697266Y-139384761D01*
X50173457Y-139622856D02*
X49173457Y-139622856D01*
X49173457Y-139241903D01*
X49221076Y-139146665D01*
X49268695Y-139099046D01*
X49363933Y-139051427D01*
X49506790Y-139051427D01*
X49602028Y-139099046D01*
X49649647Y-139146665D01*
X49697266Y-139241903D01*
X49697266Y-139622856D01*
X50173457Y-138099046D02*
X50173457Y-138670475D01*
X50173457Y-138384761D02*
X49173457Y-138384761D01*
X49316314Y-138479999D01*
X49411552Y-138575237D01*
X49459171Y-138670475D01*
X49173457Y-137194284D02*
X49173457Y-137670475D01*
X49649647Y-137718094D01*
X49602028Y-137670475D01*
X49554409Y-137575237D01*
X49554409Y-137337141D01*
X49602028Y-137241903D01*
X49649647Y-137194284D01*
X49744886Y-137146665D01*
X49982981Y-137146665D01*
X50078219Y-137194284D01*
X50125838Y-137241903D01*
X50173457Y-137337141D01*
X50173457Y-137575237D01*
X50125838Y-137670475D01*
X50078219Y-137718094D01*
D12*
X46670457Y-148064284D02*
X46670457Y-148635713D01*
X46670457Y-148349999D02*
X45670457Y-148349999D01*
X45813314Y-148445237D01*
X45908552Y-148540475D01*
X45956171Y-148635713D01*
D13*
X171657381Y-116904524D02*
X172371667Y-116904524D01*
X172514524Y-116952144D01*
X172609762Y-117047382D01*
X172657381Y-117190239D01*
X172657381Y-117285477D01*
X172085952Y-116285477D02*
X172038333Y-116380715D01*
X171990714Y-116428334D01*
X171895476Y-116475953D01*
X171847857Y-116475953D01*
X171752619Y-116428334D01*
X171705000Y-116380715D01*
X171657381Y-116285477D01*
X171657381Y-116095000D01*
X171705000Y-115999762D01*
X171752619Y-115952143D01*
X171847857Y-115904524D01*
X171895476Y-115904524D01*
X171990714Y-115952143D01*
X172038333Y-115999762D01*
X172085952Y-116095000D01*
X172085952Y-116285477D01*
X172133571Y-116380715D01*
X172181190Y-116428334D01*
X172276429Y-116475953D01*
X172466905Y-116475953D01*
X172562143Y-116428334D01*
X172609762Y-116380715D01*
X172657381Y-116285477D01*
X172657381Y-116095000D01*
X172609762Y-115999762D01*
X172562143Y-115952143D01*
X172466905Y-115904524D01*
X172276429Y-115904524D01*
X172181190Y-115952143D01*
X172133571Y-115999762D01*
X172085952Y-116095000D01*
X172775381Y-110229525D02*
X171775381Y-110229525D01*
X171775381Y-109848572D01*
X171823000Y-109753334D01*
X171870619Y-109705715D01*
X171965857Y-109658096D01*
X172108714Y-109658096D01*
X172203952Y-109705715D01*
X172251571Y-109753334D01*
X172299190Y-109848572D01*
X172299190Y-110229525D01*
X171775381Y-109324763D02*
X172775381Y-109086668D01*
X172061095Y-108896191D01*
X172775381Y-108705715D01*
X171775381Y-108467620D01*
X172775381Y-107515239D02*
X172299190Y-107848573D01*
X172775381Y-108086668D02*
X171775381Y-108086668D01*
X171775381Y-107705715D01*
X171823000Y-107610477D01*
X171870619Y-107562858D01*
X171965857Y-107515239D01*
X172108714Y-107515239D01*
X172203952Y-107562858D01*
X172251571Y-107610477D01*
X172299190Y-107705715D01*
X172299190Y-108086668D01*
X172203952Y-106943811D02*
X172156333Y-107039049D01*
X172108714Y-107086668D01*
X172013476Y-107134287D01*
X171965857Y-107134287D01*
X171870619Y-107086668D01*
X171823000Y-107039049D01*
X171775381Y-106943811D01*
X171775381Y-106753334D01*
X171823000Y-106658096D01*
X171870619Y-106610477D01*
X171965857Y-106562858D01*
X172013476Y-106562858D01*
X172108714Y-106610477D01*
X172156333Y-106658096D01*
X172203952Y-106753334D01*
X172203952Y-106943811D01*
X172251571Y-107039049D01*
X172299190Y-107086668D01*
X172394429Y-107134287D01*
X172584905Y-107134287D01*
X172680143Y-107086668D01*
X172727762Y-107039049D01*
X172775381Y-106943811D01*
X172775381Y-106753334D01*
X172727762Y-106658096D01*
X172680143Y-106610477D01*
X172584905Y-106562858D01*
X172394429Y-106562858D01*
X172299190Y-106610477D01*
X172251571Y-106658096D01*
X172203952Y-106753334D01*
D12*
X169272381Y-117004286D02*
X169272381Y-117575715D01*
X169272381Y-117290001D02*
X168272381Y-117290001D01*
X168415238Y-117385239D01*
X168510476Y-117480477D01*
X168558095Y-117575715D01*
D13*
X49055457Y-116904524D02*
X49769743Y-116904524D01*
X49912600Y-116952144D01*
X50007838Y-117047382D01*
X50055457Y-117190239D01*
X50055457Y-117285477D01*
X49055457Y-116523572D02*
X49055457Y-115856905D01*
X50055457Y-116285477D01*
X50173457Y-110229525D02*
X49173457Y-110229525D01*
X49173457Y-109848572D01*
X49221076Y-109753334D01*
X49268695Y-109705715D01*
X49363933Y-109658096D01*
X49506790Y-109658096D01*
X49602028Y-109705715D01*
X49649647Y-109753334D01*
X49697266Y-109848572D01*
X49697266Y-110229525D01*
X49173457Y-109324763D02*
X50173457Y-109086668D01*
X49459171Y-108896191D01*
X50173457Y-108705715D01*
X49173457Y-108467620D01*
X50173457Y-107515239D02*
X49697266Y-107848573D01*
X50173457Y-108086668D02*
X49173457Y-108086668D01*
X49173457Y-107705715D01*
X49221076Y-107610477D01*
X49268695Y-107562858D01*
X49363933Y-107515239D01*
X49506790Y-107515239D01*
X49602028Y-107562858D01*
X49649647Y-107610477D01*
X49697266Y-107705715D01*
X49697266Y-108086668D01*
X50173457Y-106562858D02*
X50173457Y-107134287D01*
X50173457Y-106848573D02*
X49173457Y-106848573D01*
X49316314Y-106943811D01*
X49411552Y-107039049D01*
X49459171Y-107134287D01*
D12*
X46670457Y-117004286D02*
X46670457Y-117575715D01*
X46670457Y-117290001D02*
X45670457Y-117290001D01*
X45813314Y-117385239D01*
X45908552Y-117480477D01*
X45956171Y-117575715D01*
D13*
M02*
