G04 #@! TF.FileFunction,Copper,L1,Top,Signal*
%FSLAX46Y46*%
G04 Gerber Fmt 4.6, Leading zero omitted, Abs format (unit mm)*
G04 Created by KiCad (PCBNEW 4.0.7+dfsg1-1ubuntu2) date Sat Apr 28 09:11:57 2018*
%MOMM*%
%LPD*%
G01*
G04 APERTURE LIST*
%ADD10C,0.100000*%
%ADD11C,0.300000*%
%ADD12C,0.381000*%
%ADD13C,10.600000*%
%ADD14C,0.700000*%
%ADD15R,2.600000X1.600000*%
%ADD16R,1.500000X1.500000*%
%ADD17R,1.980000X3.960000*%
%ADD18O,1.980000X3.960000*%
%ADD19R,1.700000X1.700000*%
%ADD20O,1.700000X1.700000*%
%ADD21R,0.700000X1.300000*%
%ADD22R,4.600000X1.100000*%
%ADD23R,9.400000X10.800000*%
%ADD24R,4.550000X5.250000*%
%ADD25R,1.727200X1.727200*%
%ADD26O,1.727200X1.727200*%
G04 APERTURE END LIST*
D10*
D11*
X154278572Y-144507143D02*
X154135715Y-144578571D01*
X153850001Y-144578571D01*
X153707144Y-144507143D01*
X153635715Y-144364286D01*
X153635715Y-143792857D01*
X153707144Y-143650000D01*
X153850001Y-143578571D01*
X154135715Y-143578571D01*
X154278572Y-143650000D01*
X154350001Y-143792857D01*
X154350001Y-143935714D01*
X153635715Y-144078571D01*
X155635715Y-144507143D02*
X155492858Y-144578571D01*
X155207144Y-144578571D01*
X155064286Y-144507143D01*
X154992858Y-144435714D01*
X154921429Y-144292857D01*
X154921429Y-143864286D01*
X154992858Y-143721429D01*
X155064286Y-143650000D01*
X155207144Y-143578571D01*
X155492858Y-143578571D01*
X155635715Y-143650000D01*
X156564286Y-143078571D02*
X156707143Y-143078571D01*
X156850000Y-143150000D01*
X156921429Y-143221429D01*
X156992858Y-143364286D01*
X157064286Y-143650000D01*
X157064286Y-144007143D01*
X156992858Y-144292857D01*
X156921429Y-144435714D01*
X156850000Y-144507143D01*
X156707143Y-144578571D01*
X156564286Y-144578571D01*
X156421429Y-144507143D01*
X156350000Y-144435714D01*
X156278572Y-144292857D01*
X156207143Y-144007143D01*
X156207143Y-143650000D01*
X156278572Y-143364286D01*
X156350000Y-143221429D01*
X156421429Y-143150000D01*
X156564286Y-143078571D01*
D12*
X156975200Y-149399900D02*
X156876140Y-149300840D01*
X156876140Y-149300840D02*
X156675480Y-149199240D01*
X156675480Y-149199240D02*
X156375760Y-149199240D01*
X156375760Y-149199240D02*
X156076040Y-149300840D01*
X156076040Y-149300840D02*
X155875380Y-149699620D01*
X155875380Y-149699620D02*
X155773780Y-150200000D01*
X155773780Y-150200000D02*
X155773780Y-150598780D01*
X155773780Y-150598780D02*
X155974440Y-151000100D01*
X155974440Y-151000100D02*
X156375760Y-151200760D01*
X156375760Y-151200760D02*
X156573880Y-151200760D01*
X156573880Y-151200760D02*
X156876140Y-151200760D01*
X156876140Y-151200760D02*
X156975200Y-151000100D01*
X154976220Y-149399900D02*
X154874620Y-149300840D01*
X154874620Y-149300840D02*
X154574900Y-149199240D01*
X154574900Y-149199240D02*
X154176120Y-149300840D01*
X154176120Y-149300840D02*
X153873860Y-149498960D01*
X153873860Y-149498960D02*
X153774800Y-149900280D01*
X153774800Y-149900280D02*
X153774800Y-150299060D01*
X153774800Y-150299060D02*
X153873860Y-150799440D01*
X153873860Y-150799440D02*
X154074520Y-151099160D01*
X154074520Y-151099160D02*
X154374240Y-151200760D01*
X154374240Y-151200760D02*
X154775560Y-151200760D01*
X154775560Y-151200760D02*
X154976220Y-151000100D01*
X155375000Y-147700640D02*
X155275940Y-147700640D01*
X155275940Y-147700640D02*
X154673960Y-147799700D01*
X154673960Y-147799700D02*
X154176120Y-148000360D01*
X154176120Y-148000360D02*
X153675740Y-148399140D01*
X153675740Y-148399140D02*
X153175360Y-149001120D01*
X153175360Y-149001120D02*
X152974700Y-149399900D01*
X152974700Y-149399900D02*
X152875640Y-149900280D01*
X152875640Y-149900280D02*
X152875640Y-150499720D01*
X152875640Y-150499720D02*
X153073760Y-151299820D01*
X153073760Y-151299820D02*
X153675740Y-152000860D01*
X153675740Y-152000860D02*
X154176120Y-152399640D01*
X154176120Y-152399640D02*
X154874620Y-152699360D01*
X154874620Y-152699360D02*
X155674720Y-152699360D01*
X155674720Y-152699360D02*
X156274160Y-152501240D01*
X156274160Y-152501240D02*
X156876140Y-152198980D01*
X156876140Y-152198980D02*
X157373980Y-151701140D01*
X157373980Y-151701140D02*
X157775300Y-151000100D01*
X157775300Y-151000100D02*
X157874360Y-150400660D01*
X157874360Y-150400660D02*
X157874360Y-149801220D01*
X157874360Y-149801220D02*
X157676240Y-149199240D01*
X157676240Y-149199240D02*
X157373980Y-148698860D01*
X157373980Y-148698860D02*
X156876140Y-148201020D01*
X156876140Y-148201020D02*
X156375760Y-147898760D01*
X156375760Y-147898760D02*
X155974440Y-147799700D01*
X155974440Y-147799700D02*
X155375000Y-147700640D01*
X156975200Y-149399900D02*
X156876140Y-149300840D01*
X156876140Y-149300840D02*
X156675480Y-149199240D01*
X156675480Y-149199240D02*
X156375760Y-149199240D01*
X156375760Y-149199240D02*
X156076040Y-149300840D01*
X156076040Y-149300840D02*
X155875380Y-149699620D01*
X155875380Y-149699620D02*
X155773780Y-150200000D01*
X155773780Y-150200000D02*
X155773780Y-150598780D01*
X155773780Y-150598780D02*
X155974440Y-151000100D01*
X155974440Y-151000100D02*
X156375760Y-151200760D01*
X156375760Y-151200760D02*
X156573880Y-151200760D01*
X156573880Y-151200760D02*
X156876140Y-151200760D01*
X156876140Y-151200760D02*
X156975200Y-151000100D01*
X154976220Y-149399900D02*
X154874620Y-149300840D01*
X154874620Y-149300840D02*
X154574900Y-149199240D01*
X154574900Y-149199240D02*
X154176120Y-149300840D01*
X154176120Y-149300840D02*
X153873860Y-149498960D01*
X153873860Y-149498960D02*
X153774800Y-149900280D01*
X153774800Y-149900280D02*
X153774800Y-150299060D01*
X153774800Y-150299060D02*
X153873860Y-150799440D01*
X153873860Y-150799440D02*
X154074520Y-151099160D01*
X154074520Y-151099160D02*
X154374240Y-151200760D01*
X154374240Y-151200760D02*
X154775560Y-151200760D01*
X154775560Y-151200760D02*
X154976220Y-151000100D01*
X155375000Y-147700640D02*
X155275940Y-147700640D01*
X155275940Y-147700640D02*
X154673960Y-147799700D01*
X154673960Y-147799700D02*
X154176120Y-148000360D01*
X154176120Y-148000360D02*
X153675740Y-148399140D01*
X153675740Y-148399140D02*
X153175360Y-149001120D01*
X153175360Y-149001120D02*
X152974700Y-149399900D01*
X152974700Y-149399900D02*
X152875640Y-149900280D01*
X152875640Y-149900280D02*
X152875640Y-150499720D01*
X152875640Y-150499720D02*
X153073760Y-151299820D01*
X153073760Y-151299820D02*
X153675740Y-152000860D01*
X153675740Y-152000860D02*
X154176120Y-152399640D01*
X154176120Y-152399640D02*
X154874620Y-152699360D01*
X154874620Y-152699360D02*
X155674720Y-152699360D01*
X155674720Y-152699360D02*
X156274160Y-152501240D01*
X156274160Y-152501240D02*
X156876140Y-152198980D01*
X156876140Y-152198980D02*
X157373980Y-151701140D01*
X157373980Y-151701140D02*
X157775300Y-151000100D01*
X157775300Y-151000100D02*
X157874360Y-150400660D01*
X157874360Y-150400660D02*
X157874360Y-149801220D01*
X157874360Y-149801220D02*
X157676240Y-149199240D01*
X157676240Y-149199240D02*
X157373980Y-148698860D01*
X157373980Y-148698860D02*
X156876140Y-148201020D01*
X156876140Y-148201020D02*
X156375760Y-147898760D01*
X156375760Y-147898760D02*
X155974440Y-147799700D01*
X155974440Y-147799700D02*
X155375000Y-147700640D01*
D13*
X256135749Y-99550000D03*
D14*
X260110749Y-99550000D03*
X258946498Y-102360749D03*
X256135749Y-103525000D03*
X253325000Y-102360749D03*
X252160749Y-99550000D03*
X253325000Y-96739251D03*
X256135749Y-95575000D03*
X258946498Y-96739251D03*
D13*
X256135749Y-148460749D03*
D14*
X260110749Y-148460749D03*
X258946498Y-151271498D03*
X256135749Y-152435749D03*
X253325000Y-151271498D03*
X252160749Y-148460749D03*
X253325000Y-145650000D03*
X256135749Y-144485749D03*
X258946498Y-145650000D03*
D13*
X153914251Y-121239251D03*
D14*
X157889251Y-121239251D03*
X156725000Y-124050000D03*
X153914251Y-125214251D03*
X151103502Y-124050000D03*
X149939251Y-121239251D03*
X151103502Y-118428502D03*
X153914251Y-117264251D03*
X156725000Y-118428502D03*
D13*
X29885749Y-148660749D03*
D14*
X33860749Y-148660749D03*
X32696498Y-151471498D03*
X29885749Y-152635749D03*
X27075000Y-151471498D03*
X25910749Y-148660749D03*
X27075000Y-145850000D03*
X29885749Y-144685749D03*
X32696498Y-145850000D03*
D15*
X134025000Y-113950000D03*
X130425000Y-113950000D03*
X130425000Y-122835000D03*
X134025000Y-122835000D03*
X130425000Y-131850000D03*
X134025000Y-131850000D03*
D16*
X142000000Y-113625000D03*
X138700000Y-113625000D03*
X142000000Y-118550000D03*
X138700000Y-118550000D03*
X142000000Y-123450000D03*
X138700000Y-123450000D03*
D17*
X146500000Y-101850000D03*
D18*
X141500000Y-101850000D03*
X131500000Y-101850000D03*
X136500000Y-101850000D03*
D17*
X147350000Y-147350000D03*
D18*
X142350000Y-147350000D03*
X132350000Y-147350000D03*
X137350000Y-147350000D03*
D19*
X152750000Y-100875000D03*
D20*
X152750000Y-103415000D03*
D19*
X152750000Y-108425000D03*
D20*
X152750000Y-110965000D03*
D19*
X157800000Y-100650000D03*
D20*
X157800000Y-103190000D03*
D19*
X157800000Y-108425000D03*
D20*
X157800000Y-110965000D03*
D21*
X144550000Y-113675000D03*
X146450000Y-113675000D03*
X144550000Y-118600000D03*
X146450000Y-118600000D03*
X144550000Y-123500000D03*
X146450000Y-123500000D03*
D13*
X29885749Y-99750000D03*
D14*
X33860749Y-99750000D03*
X32696498Y-102560749D03*
X29885749Y-103725000D03*
X27075000Y-102560749D03*
X25910749Y-99750000D03*
X27075000Y-96939251D03*
X29885749Y-95775000D03*
X32696498Y-96939251D03*
D22*
X139725000Y-130900000D03*
X139725000Y-133440000D03*
X139725000Y-135980000D03*
D23*
X148875000Y-133440000D03*
D24*
X151300000Y-136215000D03*
X146450000Y-130665000D03*
X151300000Y-130665000D03*
X146450000Y-136215000D03*
D25*
X244049998Y-148369999D03*
D26*
X241509998Y-148369999D03*
X244049998Y-145829999D03*
X241509998Y-145829999D03*
X244049998Y-143289999D03*
X241509998Y-143289999D03*
X244049998Y-140749999D03*
X241509998Y-140749999D03*
X244049998Y-138209999D03*
X241509998Y-138209999D03*
X244049998Y-135669999D03*
X241509998Y-135669999D03*
X244049998Y-133129999D03*
X241509998Y-133129999D03*
X244049998Y-130589999D03*
X241509998Y-130589999D03*
D25*
X121574988Y-148369999D03*
D26*
X119034988Y-148369999D03*
X121574988Y-145829999D03*
X119034988Y-145829999D03*
X121574988Y-143289999D03*
X119034988Y-143289999D03*
X121574988Y-140749999D03*
X119034988Y-140749999D03*
X121574988Y-138209999D03*
X119034988Y-138209999D03*
X121574988Y-135669999D03*
X119034988Y-135669999D03*
X121574988Y-133129999D03*
X119034988Y-133129999D03*
X121574988Y-130589999D03*
X119034988Y-130589999D03*
D25*
X243799998Y-117310001D03*
D26*
X241259998Y-117310001D03*
X243799998Y-114770001D03*
X241259998Y-114770001D03*
X243799998Y-112230001D03*
X241259998Y-112230001D03*
X243799998Y-109690001D03*
X241259998Y-109690001D03*
X243799998Y-107150001D03*
X241259998Y-107150001D03*
X243799998Y-104610001D03*
X241259998Y-104610001D03*
X243799998Y-102070001D03*
X241259998Y-102070001D03*
X243799998Y-99530001D03*
X241259998Y-99530001D03*
D25*
X121574988Y-117310001D03*
D26*
X119034988Y-117310001D03*
X121574988Y-114770001D03*
X119034988Y-114770001D03*
X121574988Y-112230001D03*
X119034988Y-112230001D03*
X121574988Y-109690001D03*
X119034988Y-109690001D03*
X121574988Y-107150001D03*
X119034988Y-107150001D03*
X121574988Y-104610001D03*
X119034988Y-104610001D03*
X121574988Y-102070001D03*
X119034988Y-102070001D03*
X121574988Y-99530001D03*
X119034988Y-99530001D03*
D25*
X231204165Y-148369999D03*
D26*
X228664165Y-148369999D03*
X231204165Y-145829999D03*
X228664165Y-145829999D03*
X231204165Y-143289999D03*
X228664165Y-143289999D03*
X231204165Y-140749999D03*
X228664165Y-140749999D03*
X231204165Y-138209999D03*
X228664165Y-138209999D03*
X231204165Y-135669999D03*
X228664165Y-135669999D03*
X231204165Y-133129999D03*
X228664165Y-133129999D03*
X231204165Y-130589999D03*
X228664165Y-130589999D03*
D25*
X108728836Y-148369999D03*
D26*
X106188836Y-148369999D03*
X108728836Y-145829999D03*
X106188836Y-145829999D03*
X108728836Y-143289999D03*
X106188836Y-143289999D03*
X108728836Y-140749999D03*
X106188836Y-140749999D03*
X108728836Y-138209999D03*
X106188836Y-138209999D03*
X108728836Y-135669999D03*
X106188836Y-135669999D03*
X108728836Y-133129999D03*
X106188836Y-133129999D03*
X108728836Y-130589999D03*
X106188836Y-130589999D03*
D25*
X230991665Y-117310001D03*
D26*
X228451665Y-117310001D03*
X230991665Y-114770001D03*
X228451665Y-114770001D03*
X230991665Y-112230001D03*
X228451665Y-112230001D03*
X230991665Y-109690001D03*
X228451665Y-109690001D03*
X230991665Y-107150001D03*
X228451665Y-107150001D03*
X230991665Y-104610001D03*
X228451665Y-104610001D03*
X230991665Y-102070001D03*
X228451665Y-102070001D03*
X230991665Y-99530001D03*
X228451665Y-99530001D03*
D25*
X108728836Y-117310001D03*
D26*
X106188836Y-117310001D03*
X108728836Y-114770001D03*
X106188836Y-114770001D03*
X108728836Y-112230001D03*
X106188836Y-112230001D03*
X108728836Y-109690001D03*
X106188836Y-109690001D03*
X108728836Y-107150001D03*
X106188836Y-107150001D03*
X108728836Y-104610001D03*
X106188836Y-104610001D03*
X108728836Y-102070001D03*
X106188836Y-102070001D03*
X108728836Y-99530001D03*
X106188836Y-99530001D03*
D25*
X218458332Y-148369999D03*
D26*
X215918332Y-148369999D03*
X218458332Y-145829999D03*
X215918332Y-145829999D03*
X218458332Y-143289999D03*
X215918332Y-143289999D03*
X218458332Y-140749999D03*
X215918332Y-140749999D03*
X218458332Y-138209999D03*
X215918332Y-138209999D03*
X218458332Y-135669999D03*
X215918332Y-135669999D03*
X218458332Y-133129999D03*
X215918332Y-133129999D03*
X218458332Y-130589999D03*
X215918332Y-130589999D03*
D25*
X95882684Y-148369999D03*
D26*
X93342684Y-148369999D03*
X95882684Y-145829999D03*
X93342684Y-145829999D03*
X95882684Y-143289999D03*
X93342684Y-143289999D03*
X95882684Y-140749999D03*
X93342684Y-140749999D03*
X95882684Y-138209999D03*
X93342684Y-138209999D03*
X95882684Y-135669999D03*
X93342684Y-135669999D03*
X95882684Y-133129999D03*
X93342684Y-133129999D03*
X95882684Y-130589999D03*
X93342684Y-130589999D03*
D25*
X218283332Y-117310001D03*
D26*
X215743332Y-117310001D03*
X218283332Y-114770001D03*
X215743332Y-114770001D03*
X218283332Y-112230001D03*
X215743332Y-112230001D03*
X218283332Y-109690001D03*
X215743332Y-109690001D03*
X218283332Y-107150001D03*
X215743332Y-107150001D03*
X218283332Y-104610001D03*
X215743332Y-104610001D03*
X218283332Y-102070001D03*
X215743332Y-102070001D03*
X218283332Y-99530001D03*
X215743332Y-99530001D03*
D25*
X95882684Y-117310001D03*
D26*
X93342684Y-117310001D03*
X95882684Y-114770001D03*
X93342684Y-114770001D03*
X95882684Y-112230001D03*
X93342684Y-112230001D03*
X95882684Y-109690001D03*
X93342684Y-109690001D03*
X95882684Y-107150001D03*
X93342684Y-107150001D03*
X95882684Y-104610001D03*
X93342684Y-104610001D03*
X95882684Y-102070001D03*
X93342684Y-102070001D03*
X95882684Y-99530001D03*
X93342684Y-99530001D03*
D25*
X205637499Y-148369999D03*
D26*
X203097499Y-148369999D03*
X205637499Y-145829999D03*
X203097499Y-145829999D03*
X205637499Y-143289999D03*
X203097499Y-143289999D03*
X205637499Y-140749999D03*
X203097499Y-140749999D03*
X205637499Y-138209999D03*
X203097499Y-138209999D03*
X205637499Y-135669999D03*
X203097499Y-135669999D03*
X205637499Y-133129999D03*
X203097499Y-133129999D03*
X205637499Y-130589999D03*
X203097499Y-130589999D03*
D25*
X83036532Y-148369999D03*
D26*
X80496532Y-148369999D03*
X83036532Y-145829999D03*
X80496532Y-145829999D03*
X83036532Y-143289999D03*
X80496532Y-143289999D03*
X83036532Y-140749999D03*
X80496532Y-140749999D03*
X83036532Y-138209999D03*
X80496532Y-138209999D03*
X83036532Y-135669999D03*
X80496532Y-135669999D03*
X83036532Y-133129999D03*
X80496532Y-133129999D03*
X83036532Y-130589999D03*
X80496532Y-130589999D03*
D25*
X205499999Y-117310001D03*
D26*
X202959999Y-117310001D03*
X205499999Y-114770001D03*
X202959999Y-114770001D03*
X205499999Y-112230001D03*
X202959999Y-112230001D03*
X205499999Y-109690001D03*
X202959999Y-109690001D03*
X205499999Y-107150001D03*
X202959999Y-107150001D03*
X205499999Y-104610001D03*
X202959999Y-104610001D03*
X205499999Y-102070001D03*
X202959999Y-102070001D03*
X205499999Y-99530001D03*
X202959999Y-99530001D03*
D25*
X83036532Y-117310001D03*
D26*
X80496532Y-117310001D03*
X83036532Y-114770001D03*
X80496532Y-114770001D03*
X83036532Y-112230001D03*
X80496532Y-112230001D03*
X83036532Y-109690001D03*
X80496532Y-109690001D03*
X83036532Y-107150001D03*
X80496532Y-107150001D03*
X83036532Y-104610001D03*
X80496532Y-104610001D03*
X83036532Y-102070001D03*
X80496532Y-102070001D03*
X83036532Y-99530001D03*
X80496532Y-99530001D03*
D25*
X192791666Y-148369999D03*
D26*
X190251666Y-148369999D03*
X192791666Y-145829999D03*
X190251666Y-145829999D03*
X192791666Y-143289999D03*
X190251666Y-143289999D03*
X192791666Y-140749999D03*
X190251666Y-140749999D03*
X192791666Y-138209999D03*
X190251666Y-138209999D03*
X192791666Y-135669999D03*
X190251666Y-135669999D03*
X192791666Y-133129999D03*
X190251666Y-133129999D03*
X192791666Y-130589999D03*
X190251666Y-130589999D03*
D25*
X70190380Y-148369999D03*
D26*
X67650380Y-148369999D03*
X70190380Y-145829999D03*
X67650380Y-145829999D03*
X70190380Y-143289999D03*
X67650380Y-143289999D03*
X70190380Y-140749999D03*
X67650380Y-140749999D03*
X70190380Y-138209999D03*
X67650380Y-138209999D03*
X70190380Y-135669999D03*
X67650380Y-135669999D03*
X70190380Y-133129999D03*
X67650380Y-133129999D03*
X70190380Y-130589999D03*
X67650380Y-130589999D03*
D25*
X192691666Y-117310001D03*
D26*
X190151666Y-117310001D03*
X192691666Y-114770001D03*
X190151666Y-114770001D03*
X192691666Y-112230001D03*
X190151666Y-112230001D03*
X192691666Y-109690001D03*
X190151666Y-109690001D03*
X192691666Y-107150001D03*
X190151666Y-107150001D03*
X192691666Y-104610001D03*
X190151666Y-104610001D03*
X192691666Y-102070001D03*
X190151666Y-102070001D03*
X192691666Y-99530001D03*
X190151666Y-99530001D03*
D25*
X70190380Y-117310001D03*
D26*
X67650380Y-117310001D03*
X70190380Y-114770001D03*
X67650380Y-114770001D03*
X70190380Y-112230001D03*
X67650380Y-112230001D03*
X70190380Y-109690001D03*
X67650380Y-109690001D03*
X70190380Y-107150001D03*
X67650380Y-107150001D03*
X70190380Y-104610001D03*
X67650380Y-104610001D03*
X70190380Y-102070001D03*
X67650380Y-102070001D03*
X70190380Y-99530001D03*
X67650380Y-99530001D03*
D25*
X179945833Y-148369999D03*
D26*
X177405833Y-148369999D03*
X179945833Y-145829999D03*
X177405833Y-145829999D03*
X179945833Y-143289999D03*
X177405833Y-143289999D03*
X179945833Y-140749999D03*
X177405833Y-140749999D03*
X179945833Y-138209999D03*
X177405833Y-138209999D03*
X179945833Y-135669999D03*
X177405833Y-135669999D03*
X179945833Y-133129999D03*
X177405833Y-133129999D03*
X179945833Y-130589999D03*
X177405833Y-130589999D03*
D25*
X57344228Y-148369999D03*
D26*
X54804228Y-148369999D03*
X57344228Y-145829999D03*
X54804228Y-145829999D03*
X57344228Y-143289999D03*
X54804228Y-143289999D03*
X57344228Y-140749999D03*
X54804228Y-140749999D03*
X57344228Y-138209999D03*
X54804228Y-138209999D03*
X57344228Y-135669999D03*
X54804228Y-135669999D03*
X57344228Y-133129999D03*
X54804228Y-133129999D03*
X57344228Y-130589999D03*
X54804228Y-130589999D03*
D25*
X179883333Y-117310001D03*
D26*
X177343333Y-117310001D03*
X179883333Y-114770001D03*
X177343333Y-114770001D03*
X179883333Y-112230001D03*
X177343333Y-112230001D03*
X179883333Y-109690001D03*
X177343333Y-109690001D03*
X179883333Y-107150001D03*
X177343333Y-107150001D03*
X179883333Y-104610001D03*
X177343333Y-104610001D03*
X179883333Y-102070001D03*
X177343333Y-102070001D03*
X179883333Y-99530001D03*
X177343333Y-99530001D03*
D25*
X57344228Y-117310001D03*
D26*
X54804228Y-117310001D03*
X57344228Y-114770001D03*
X54804228Y-114770001D03*
X57344228Y-112230001D03*
X54804228Y-112230001D03*
X57344228Y-109690001D03*
X54804228Y-109690001D03*
X57344228Y-107150001D03*
X54804228Y-107150001D03*
X57344228Y-104610001D03*
X54804228Y-104610001D03*
X57344228Y-102070001D03*
X54804228Y-102070001D03*
X57344228Y-99530001D03*
X54804228Y-99530001D03*
D25*
X167125000Y-148369999D03*
D26*
X164585000Y-148369999D03*
X167125000Y-145829999D03*
X164585000Y-145829999D03*
X167125000Y-143289999D03*
X164585000Y-143289999D03*
X167125000Y-140749999D03*
X164585000Y-140749999D03*
X167125000Y-138209999D03*
X164585000Y-138209999D03*
X167125000Y-135669999D03*
X164585000Y-135669999D03*
X167125000Y-133129999D03*
X164585000Y-133129999D03*
X167125000Y-130589999D03*
X164585000Y-130589999D03*
D25*
X44498076Y-148369999D03*
D26*
X41958076Y-148369999D03*
X44498076Y-145829999D03*
X41958076Y-145829999D03*
X44498076Y-143289999D03*
X41958076Y-143289999D03*
X44498076Y-140749999D03*
X41958076Y-140749999D03*
X44498076Y-138209999D03*
X41958076Y-138209999D03*
X44498076Y-135669999D03*
X41958076Y-135669999D03*
X44498076Y-133129999D03*
X41958076Y-133129999D03*
X44498076Y-130589999D03*
X41958076Y-130589999D03*
D25*
X167100000Y-117310001D03*
D26*
X164560000Y-117310001D03*
X167100000Y-114770001D03*
X164560000Y-114770001D03*
X167100000Y-112230001D03*
X164560000Y-112230001D03*
X167100000Y-109690001D03*
X164560000Y-109690001D03*
X167100000Y-107150001D03*
X164560000Y-107150001D03*
X167100000Y-104610001D03*
X164560000Y-104610001D03*
X167100000Y-102070001D03*
X164560000Y-102070001D03*
X167100000Y-99530001D03*
X164560000Y-99530001D03*
D25*
X44498076Y-117310001D03*
D26*
X41958076Y-117310001D03*
X44498076Y-114770001D03*
X41958076Y-114770001D03*
X44498076Y-112230001D03*
X41958076Y-112230001D03*
X44498076Y-109690001D03*
X41958076Y-109690001D03*
X44498076Y-107150001D03*
X41958076Y-107150001D03*
X44498076Y-104610001D03*
X41958076Y-104610001D03*
X44498076Y-102070001D03*
X41958076Y-102070001D03*
X44498076Y-99530001D03*
X41958076Y-99530001D03*
M02*
