M48
;DRILL file {KiCad 4.0.7+dfsg1-1ubuntu2} date Sat Apr 28 09:12:00 2018
;FORMAT={-:-/ absolute / metric / decimal}
FMAT,2
METRIC,TZ
T1C0.600
T2C1.000
T3C1.016
T4C1.320
T5C5.300
%
G90
G05
M71
T1
X25.911Y-99.75
X25.911Y-148.661
X27.075Y-96.939
X27.075Y-102.561
X27.075Y-145.85
X27.075Y-151.471
X29.886Y-95.775
X29.886Y-103.725
X29.886Y-144.686
X29.886Y-152.636
X32.696Y-96.939
X32.696Y-102.561
X32.696Y-145.85
X32.696Y-151.471
X33.861Y-99.75
X33.861Y-148.661
X149.939Y-121.239
X151.104Y-118.429
X151.104Y-124.05
X153.914Y-117.264
X153.914Y-125.214
X156.725Y-118.429
X156.725Y-124.05
X157.889Y-121.239
X252.161Y-99.55
X252.161Y-148.461
X253.325Y-96.739
X253.325Y-102.361
X253.325Y-145.65
X253.325Y-151.271
X256.136Y-95.575
X256.136Y-103.525
X256.136Y-144.486
X256.136Y-152.436
X258.946Y-96.739
X258.946Y-102.361
X258.946Y-145.65
X258.946Y-151.271
X260.111Y-99.55
X260.111Y-148.461
T2
X152.75Y-100.875
X152.75Y-103.415
X152.75Y-108.425
X152.75Y-110.965
X157.8Y-100.65
X157.8Y-103.19
X157.8Y-108.425
X157.8Y-110.965
T3
X41.958Y-99.53
X41.958Y-102.07
X41.958Y-104.61
X41.958Y-107.15
X41.958Y-109.69
X41.958Y-112.23
X41.958Y-114.77
X41.958Y-117.31
X41.958Y-130.59
X41.958Y-133.13
X41.958Y-135.67
X41.958Y-138.21
X41.958Y-140.75
X41.958Y-143.29
X41.958Y-145.83
X41.958Y-148.37
X44.498Y-99.53
X44.498Y-102.07
X44.498Y-104.61
X44.498Y-107.15
X44.498Y-109.69
X44.498Y-112.23
X44.498Y-114.77
X44.498Y-117.31
X44.498Y-130.59
X44.498Y-133.13
X44.498Y-135.67
X44.498Y-138.21
X44.498Y-140.75
X44.498Y-143.29
X44.498Y-145.83
X44.498Y-148.37
X54.804Y-99.53
X54.804Y-102.07
X54.804Y-104.61
X54.804Y-107.15
X54.804Y-109.69
X54.804Y-112.23
X54.804Y-114.77
X54.804Y-117.31
X54.804Y-130.59
X54.804Y-133.13
X54.804Y-135.67
X54.804Y-138.21
X54.804Y-140.75
X54.804Y-143.29
X54.804Y-145.83
X54.804Y-148.37
X57.344Y-99.53
X57.344Y-102.07
X57.344Y-104.61
X57.344Y-107.15
X57.344Y-109.69
X57.344Y-112.23
X57.344Y-114.77
X57.344Y-117.31
X57.344Y-130.59
X57.344Y-133.13
X57.344Y-135.67
X57.344Y-138.21
X57.344Y-140.75
X57.344Y-143.29
X57.344Y-145.83
X57.344Y-148.37
X67.65Y-99.53
X67.65Y-102.07
X67.65Y-104.61
X67.65Y-107.15
X67.65Y-109.69
X67.65Y-112.23
X67.65Y-114.77
X67.65Y-117.31
X67.65Y-130.59
X67.65Y-133.13
X67.65Y-135.67
X67.65Y-138.21
X67.65Y-140.75
X67.65Y-143.29
X67.65Y-145.83
X67.65Y-148.37
X70.19Y-99.53
X70.19Y-102.07
X70.19Y-104.61
X70.19Y-107.15
X70.19Y-109.69
X70.19Y-112.23
X70.19Y-114.77
X70.19Y-117.31
X70.19Y-130.59
X70.19Y-133.13
X70.19Y-135.67
X70.19Y-138.21
X70.19Y-140.75
X70.19Y-143.29
X70.19Y-145.83
X70.19Y-148.37
X80.497Y-99.53
X80.497Y-102.07
X80.497Y-104.61
X80.497Y-107.15
X80.497Y-109.69
X80.497Y-112.23
X80.497Y-114.77
X80.497Y-117.31
X80.497Y-130.59
X80.497Y-133.13
X80.497Y-135.67
X80.497Y-138.21
X80.497Y-140.75
X80.497Y-143.29
X80.497Y-145.83
X80.497Y-148.37
X83.037Y-99.53
X83.037Y-102.07
X83.037Y-104.61
X83.037Y-107.15
X83.037Y-109.69
X83.037Y-112.23
X83.037Y-114.77
X83.037Y-117.31
X83.037Y-130.59
X83.037Y-133.13
X83.037Y-135.67
X83.037Y-138.21
X83.037Y-140.75
X83.037Y-143.29
X83.037Y-145.83
X83.037Y-148.37
X93.343Y-99.53
X93.343Y-102.07
X93.343Y-104.61
X93.343Y-107.15
X93.343Y-109.69
X93.343Y-112.23
X93.343Y-114.77
X93.343Y-117.31
X93.343Y-130.59
X93.343Y-133.13
X93.343Y-135.67
X93.343Y-138.21
X93.343Y-140.75
X93.343Y-143.29
X93.343Y-145.83
X93.343Y-148.37
X95.883Y-99.53
X95.883Y-102.07
X95.883Y-104.61
X95.883Y-107.15
X95.883Y-109.69
X95.883Y-112.23
X95.883Y-114.77
X95.883Y-117.31
X95.883Y-130.59
X95.883Y-133.13
X95.883Y-135.67
X95.883Y-138.21
X95.883Y-140.75
X95.883Y-143.29
X95.883Y-145.83
X95.883Y-148.37
X106.189Y-99.53
X106.189Y-102.07
X106.189Y-104.61
X106.189Y-107.15
X106.189Y-109.69
X106.189Y-112.23
X106.189Y-114.77
X106.189Y-117.31
X106.189Y-130.59
X106.189Y-133.13
X106.189Y-135.67
X106.189Y-138.21
X106.189Y-140.75
X106.189Y-143.29
X106.189Y-145.83
X106.189Y-148.37
X108.729Y-99.53
X108.729Y-102.07
X108.729Y-104.61
X108.729Y-107.15
X108.729Y-109.69
X108.729Y-112.23
X108.729Y-114.77
X108.729Y-117.31
X108.729Y-130.59
X108.729Y-133.13
X108.729Y-135.67
X108.729Y-138.21
X108.729Y-140.75
X108.729Y-143.29
X108.729Y-145.83
X108.729Y-148.37
X119.035Y-99.53
X119.035Y-102.07
X119.035Y-104.61
X119.035Y-107.15
X119.035Y-109.69
X119.035Y-112.23
X119.035Y-114.77
X119.035Y-117.31
X119.035Y-130.59
X119.035Y-133.13
X119.035Y-135.67
X119.035Y-138.21
X119.035Y-140.75
X119.035Y-143.29
X119.035Y-145.83
X119.035Y-148.37
X121.575Y-99.53
X121.575Y-102.07
X121.575Y-104.61
X121.575Y-107.15
X121.575Y-109.69
X121.575Y-112.23
X121.575Y-114.77
X121.575Y-117.31
X121.575Y-130.59
X121.575Y-133.13
X121.575Y-135.67
X121.575Y-138.21
X121.575Y-140.75
X121.575Y-143.29
X121.575Y-145.83
X121.575Y-148.37
X164.56Y-99.53
X164.56Y-102.07
X164.56Y-104.61
X164.56Y-107.15
X164.56Y-109.69
X164.56Y-112.23
X164.56Y-114.77
X164.56Y-117.31
X164.585Y-130.59
X164.585Y-133.13
X164.585Y-135.67
X164.585Y-138.21
X164.585Y-140.75
X164.585Y-143.29
X164.585Y-145.83
X164.585Y-148.37
X167.1Y-99.53
X167.1Y-102.07
X167.1Y-104.61
X167.1Y-107.15
X167.1Y-109.69
X167.1Y-112.23
X167.1Y-114.77
X167.1Y-117.31
X167.125Y-130.59
X167.125Y-133.13
X167.125Y-135.67
X167.125Y-138.21
X167.125Y-140.75
X167.125Y-143.29
X167.125Y-145.83
X167.125Y-148.37
X177.343Y-99.53
X177.343Y-102.07
X177.343Y-104.61
X177.343Y-107.15
X177.343Y-109.69
X177.343Y-112.23
X177.343Y-114.77
X177.343Y-117.31
X177.406Y-130.59
X177.406Y-133.13
X177.406Y-135.67
X177.406Y-138.21
X177.406Y-140.75
X177.406Y-143.29
X177.406Y-145.83
X177.406Y-148.37
X179.883Y-99.53
X179.883Y-102.07
X179.883Y-104.61
X179.883Y-107.15
X179.883Y-109.69
X179.883Y-112.23
X179.883Y-114.77
X179.883Y-117.31
X179.946Y-130.59
X179.946Y-133.13
X179.946Y-135.67
X179.946Y-138.21
X179.946Y-140.75
X179.946Y-143.29
X179.946Y-145.83
X179.946Y-148.37
X190.152Y-99.53
X190.152Y-102.07
X190.152Y-104.61
X190.152Y-107.15
X190.152Y-109.69
X190.152Y-112.23
X190.152Y-114.77
X190.152Y-117.31
X190.252Y-130.59
X190.252Y-133.13
X190.252Y-135.67
X190.252Y-138.21
X190.252Y-140.75
X190.252Y-143.29
X190.252Y-145.83
X190.252Y-148.37
X192.692Y-99.53
X192.692Y-102.07
X192.692Y-104.61
X192.692Y-107.15
X192.692Y-109.69
X192.692Y-112.23
X192.692Y-114.77
X192.692Y-117.31
X192.792Y-130.59
X192.792Y-133.13
X192.792Y-135.67
X192.792Y-138.21
X192.792Y-140.75
X192.792Y-143.29
X192.792Y-145.83
X192.792Y-148.37
X202.96Y-99.53
X202.96Y-102.07
X202.96Y-104.61
X202.96Y-107.15
X202.96Y-109.69
X202.96Y-112.23
X202.96Y-114.77
X202.96Y-117.31
X203.097Y-130.59
X203.097Y-133.13
X203.097Y-135.67
X203.097Y-138.21
X203.097Y-140.75
X203.097Y-143.29
X203.097Y-145.83
X203.097Y-148.37
X205.5Y-99.53
X205.5Y-102.07
X205.5Y-104.61
X205.5Y-107.15
X205.5Y-109.69
X205.5Y-112.23
X205.5Y-114.77
X205.5Y-117.31
X205.637Y-130.59
X205.637Y-133.13
X205.637Y-135.67
X205.637Y-138.21
X205.637Y-140.75
X205.637Y-143.29
X205.637Y-145.83
X205.637Y-148.37
X215.743Y-99.53
X215.743Y-102.07
X215.743Y-104.61
X215.743Y-107.15
X215.743Y-109.69
X215.743Y-112.23
X215.743Y-114.77
X215.743Y-117.31
X215.918Y-130.59
X215.918Y-133.13
X215.918Y-135.67
X215.918Y-138.21
X215.918Y-140.75
X215.918Y-143.29
X215.918Y-145.83
X215.918Y-148.37
X218.283Y-99.53
X218.283Y-102.07
X218.283Y-104.61
X218.283Y-107.15
X218.283Y-109.69
X218.283Y-112.23
X218.283Y-114.77
X218.283Y-117.31
X218.458Y-130.59
X218.458Y-133.13
X218.458Y-135.67
X218.458Y-138.21
X218.458Y-140.75
X218.458Y-143.29
X218.458Y-145.83
X218.458Y-148.37
X228.452Y-99.53
X228.452Y-102.07
X228.452Y-104.61
X228.452Y-107.15
X228.452Y-109.69
X228.452Y-112.23
X228.452Y-114.77
X228.452Y-117.31
X228.664Y-130.59
X228.664Y-133.13
X228.664Y-135.67
X228.664Y-138.21
X228.664Y-140.75
X228.664Y-143.29
X228.664Y-145.83
X228.664Y-148.37
X230.992Y-99.53
X230.992Y-102.07
X230.992Y-104.61
X230.992Y-107.15
X230.992Y-109.69
X230.992Y-112.23
X230.992Y-114.77
X230.992Y-117.31
X231.204Y-130.59
X231.204Y-133.13
X231.204Y-135.67
X231.204Y-138.21
X231.204Y-140.75
X231.204Y-143.29
X231.204Y-145.83
X231.204Y-148.37
X241.26Y-99.53
X241.26Y-102.07
X241.26Y-104.61
X241.26Y-107.15
X241.26Y-109.69
X241.26Y-112.23
X241.26Y-114.77
X241.26Y-117.31
X241.51Y-130.59
X241.51Y-133.13
X241.51Y-135.67
X241.51Y-138.21
X241.51Y-140.75
X241.51Y-143.29
X241.51Y-145.83
X241.51Y-148.37
X243.8Y-99.53
X243.8Y-102.07
X243.8Y-104.61
X243.8Y-107.15
X243.8Y-109.69
X243.8Y-112.23
X243.8Y-114.77
X243.8Y-117.31
X244.05Y-130.59
X244.05Y-133.13
X244.05Y-135.67
X244.05Y-138.21
X244.05Y-140.75
X244.05Y-143.29
X244.05Y-145.83
X244.05Y-148.37
T4
X131.5Y-101.85
X132.35Y-147.35
X136.5Y-101.85
X137.35Y-147.35
X141.5Y-101.85
X142.35Y-147.35
X146.5Y-101.85
X147.35Y-147.35
T5
X29.886Y-99.75
X29.886Y-148.661
X153.914Y-121.239
X256.136Y-99.55
X256.136Y-148.461
T0
M30
